<svg xmlns="http://www.w3.org/2000/svg" viewBox="0 0 32 32">
  <defs>
    <linearGradient id="g" x1="0" y1="0" x2="1" y2="1">
      <stop offset="0" stop-color="#0B6BCB"/>
      <stop offset="1" stop-color="#06B6D4"/>
    </linearGradient>
  </defs>
  <rect width="32" height="32" rx="8" fill="url(#g)"/>
  <path d="M6 20c2 0 2-2 5-2s3 2 5 2 3-2 5-2 3 2 5 2v3c-2 0-3-2-5-2s-3 2-5 2-3-2-5-2-3 2-5 2zM6 13c2 0 2-2 5-2s3 2 5 2 3-2 5-2 3 2 5 2v3c-2 0-3-2-5-2s-3 2-5 2-3-2-5-2-3 2-5 2z" fill="#fff" opacity=".95"/>
</svg>
