<svg xmlns="http://www.w3.org/2000/svg" width="338" height="13.508" viewBox="0 0 338 13.508"><defs><style>.a{fill:#fc0;stroke:rgba(0,0,0,0);stroke-miterlimit:10;}</style></defs><path class="a" d="M291.912,6.619c-7.635,0-7.635,5.882-15.267,5.882s-7.633-5.882-15.267-5.882S253.747,12.5,246.113,12.5s-7.635-5.882-15.269-5.882S223.21,12.5,215.575,12.5s-7.632-5.882-15.266-5.882S192.676,12.5,185.043,12.5s-7.632-5.882-15.266-5.882S162.142,12.5,154.508,12.5s-7.634-5.882-15.269-5.882S131.605,12.5,123.971,12.5s-7.632-5.882-15.266-5.882S101.073,12.5,93.439,12.5,85.805,6.619,78.171,6.619,70.537,12.5,62.9,12.5,55.268,6.619,47.634,6.619,40,12.5,32.368,12.5,24.734,6.619,17.1,6.619,9.466,12.5,1.832,12.5A12.678,12.678,0,0,1,0,12.375V0H337V12.483c-6.929-.355-7.167-5.864-14.555-5.864-7.634,0-7.634,5.882-15.268,5.882S299.544,6.619,291.912,6.619Z" transform="translate(0.5 0.499)"/></svg>