<svg xmlns="http://www.w3.org/2000/svg" width="1034.998" height="284.71" viewBox="0 0 1034.998 284.71">
  <path id="Interseção_8" data-name="Interseção 8" d="M18159.174,326.224l-19.514-6.473-24.361,3.087a2.919,2.919,0,0,1-.857-.014l-11.568-1.876L18090,322.054a.686.686,0,0,1-.348-1.3l13.1-6.032,12.7,1.557,26.484-8.265,5.268-5.155.67-12.82a3.523,3.523,0,0,1,.535-1.684l3.541-5.582a1.14,1.14,0,0,0,.146-.872l-.582-2.43a1.146,1.146,0,0,1,.244-1l2.1-2.477a1.125,1.125,0,0,0,.268-.872l-.344-2.833a1.139,1.139,0,0,1,.621-1.149l2.42-1.21a1.138,1.138,0,0,0,.6-1.3l-.5-1.942a1.138,1.138,0,0,1,.746-1.36l1.791-.591a1.132,1.132,0,0,0,.746-1.342l-.521-2.177a1.145,1.145,0,0,1,.658-1.309l3.076-1.318a1.132,1.132,0,0,0,.689-.994l.107-2.519a1.137,1.137,0,0,1,.484-.877l2.965-2.106a1.148,1.148,0,0,0,.479-1.027l-.211-2.4a1.144,1.144,0,0,1,.586-1.1l2.143-1.177a1.137,1.137,0,0,0,.582-.844l.338-2.5a1.123,1.123,0,0,1,.572-.835l1.465-.826a1.121,1.121,0,0,0,.566-1.149l-.426-3.012a1.137,1.137,0,0,1,.637-1.191c1.482-.69,4.635-2.153,5.01-2.28.328-.108.221-1.834.113-2.969a1.131,1.131,0,0,1,.867-1.22l1.8-.427a1.136,1.136,0,0,0,.84-.854l1.031-4.517a1.145,1.145,0,0,1,.662-.788l4.578-1.965a1.13,1.13,0,0,0,.689-.994l.094-2.083a1.128,1.128,0,0,1,1.031-1.079l3.891-.347a1.136,1.136,0,0,0,.971-.746l1.205-3.363a.716.716,0,0,1,1.328-.052l5.057,11.281a1.9,1.9,0,0,0,1.523,1.112l-.9-13.8a1.74,1.74,0,0,1,.543-1.379l4.387-4.1a1.732,1.732,0,0,1,2.9,1.027l5.719,41.519a2.892,2.892,0,0,1-.686,2.289l-5.75,6.586a2.871,2.871,0,0,0-.7,2.167l.867,9.128a2.927,2.927,0,0,1-.473,1.872l-17.887,26.827,12.412,12.238a9.542,9.542,0,0,0,11.135,1.661l14.4-7.548a14.95,14.95,0,0,1,13.383-.244l6.291,3.007s27.779-4.086,37.8,11.023c0,0-19.959-11.812-35.223-5.516l-6.717,3.814a16.07,16.07,0,0,1-9.584,2l-9.869-1.027-10.26,3.687a20.254,20.254,0,0,1-13.527.056l-9.912-3.462-22.854,9.293a16.466,16.466,0,0,1-11.4.375Zm-196.814-4.4-1.586-4.259a.458.458,0,0,0-.51-.291l-8.66,1.515a.459.459,0,0,1-.539-.469l.563-15.175a.941.941,0,0,0-.334-.746l-1.2-.98a.918.918,0,0,1-.285-1.009c.525-1.51,1.875-5.394,2.072-5.878.113-.286-.268-.521-.693-.685a.913.913,0,0,1-.484-1.267l2.52-4.944a.909.909,0,0,0,0-.844l-.826-1.581a.9.9,0,0,1,.084-.98l1.914-2.5a.92.92,0,0,0-.08-1.206l-3.705-3.7a.92.92,0,0,1-.211-.957l.881-2.486a.92.92,0,0,0-.369-1.079l-1.361-.877a.916.916,0,0,1,.1-1.6l.568-.272a.917.917,0,0,0,.488-1.088l-1.582-5.366-22.914.6-27.592-1.7a.294.294,0,0,1-.061-.577l3.775-1.112a.3.3,0,0,0,.053-.549l-3.777-1.89a.3.3,0,0,1,.127-.558l27.719-.577,52.908-17.29a71.648,71.648,0,0,1,46.219.586l23.721,8.425,16.771-7.022a11.445,11.445,0,0,1,9.32.216l7.266,3.448s35.928,5.6,40.346,21.587a49.474,49.474,0,0,0-40.346-15.1l-7.252,4.09a19.51,19.51,0,0,1-10.451,2.5l-7.854-.352-22.2,3.842-13.914.84-7.2,6.717,1.7,6.37a3.662,3.662,0,0,1-1.619,4.058l-4.09,2.528a5.289,5.289,0,0,0-2.309,3.063l-2.973,10.536a5.958,5.958,0,0,1-2.807,3.565l-7.457,4.194-11.465,10.128a.46.46,0,0,1-.76-.394l.355-3.115a.461.461,0,0,0-.713-.436l-18.607,12.332a.44.44,0,0,1-.254.08A.458.458,0,0,1,17962.359,321.829Zm-180.906-20.673.516-7.261a.358.358,0,0,0-.623-.263l-.977,1.084h0l-.609.685-2.979,3.321a.357.357,0,0,1-.623-.253l.285-7.064a.357.357,0,0,0-.619-.258l-3.42,3.692a.337.337,0,0,1-.3.117.361.361,0,0,1-.314-.357l-.365-41.786a1.408,1.408,0,0,0-1.174-1.379l-3.48-.591a1.413,1.413,0,0,1-1.162-1.553l.412-3.649a1.41,1.41,0,0,0-1.547-1.562l-2.525.263a1.411,1.411,0,0,1-1.543-1.614l.629-4.1a1.415,1.415,0,0,0-1.355-1.623l-35.092-.966a.3.3,0,0,1-.16-.052l-2.58-1.815a.291.291,0,0,1,.164-.525l2.234-.014a.288.288,0,0,0,.191-.5l-2.092-1.876a.29.29,0,0,1,.207-.507l10.525.563a.441.441,0,0,0,.432-.6l-.555-1.417a.44.44,0,0,1,.545-.577l9.082,2.96a3.751,3.751,0,0,0,3.2-.417l4.1-2.66a4.763,4.763,0,0,1,2.73-.765l3.082.084,27.1-8.49a32.5,32.5,0,0,1,14.029-1.2l13.332,1.792a32.377,32.377,0,0,1,9.568,2.838l8.182,3.87a9.3,9.3,0,0,0,8.189-.108l4.846-2.458a9.6,9.6,0,0,1,8.3-.188l4.889,2.209s25.3,1.407,31.424,16.582c0,0-8.213-7.449-18.332-10.418-.361-.1-.727-.206-1.1-.3a26.9,26.9,0,0,0-6.652-.9c-.2,0-.4,0-.6.009h-.09a21.049,21.049,0,0,0-3.367.361l-7.252,2.814a13.8,13.8,0,0,1-6.295.882l-18.984-1.759a8.127,8.127,0,0,0-8.795,6.971,8.04,8.04,0,0,1-1.848,4.119c-1.348,1.571-3.316,4-4.551,5.531a7.551,7.551,0,0,0-1.529,3.218l-.91,4.353a16.523,16.523,0,0,1-1.084,3.326l-5.295,11.83-.18.4-4.23,9.443a13.6,13.6,0,0,1-1.135,2.045l-11.221,16.695a.366.366,0,0,1-.295.159A.355.355,0,0,1,17781.453,301.157Zm533.09-4.789-1.59-4.259a.457.457,0,0,0-.506-.291l-8.664,1.515a.456.456,0,0,1-.535-.469l.559-15.175a.908.908,0,0,0-.334-.741l-1.2-.985a.923.923,0,0,1-.287-1.009c.525-1.51,1.881-5.394,2.074-5.878.111-.286-.268-.521-.7-.685a.909.909,0,0,1-.479-1.267l2.52-4.944a.944.944,0,0,0,0-.844l-.832-1.576a.923.923,0,0,1,.086-.985l1.914-2.5a.922.922,0,0,0-.076-1.206l-3.705-3.7a.924.924,0,0,1-.217-.957l.883-2.486a.918.918,0,0,0-.365-1.079l-1.365-.877a.916.916,0,0,1,.1-1.595l.572-.277a.91.91,0,0,0,.482-1.084l-1.576-5.371-22.914.6-27.592-1.7a.294.294,0,0,1-.064-.577l3.779-1.112a.3.3,0,0,0,.047-.549l-3.775-1.89a.294.294,0,0,1,.127-.558l27.719-.577,52.906-17.29a71.635,71.635,0,0,1,46.225.591l23.721,8.425,16.766-7.027a11.444,11.444,0,0,1,9.32.216l7.268,3.452s35.926,5.591,40.35,21.583a49.486,49.486,0,0,0-40.35-15.1l-7.248,4.09a19.5,19.5,0,0,1-10.457,2.5l-7.852-.347-22.191,3.837-13.918.84-7.2,6.717,1.7,6.37a3.662,3.662,0,0,1-1.613,4.062l-4.09,2.524a5.31,5.31,0,0,0-2.312,3.063l-2.975,10.536a5.928,5.928,0,0,1-2.8,3.565l-7.459,4.194-11.459,10.128a.459.459,0,0,1-.76-.394l.352-3.115a.459.459,0,0,0-.709-.436l-18.613,12.332a.43.43,0,0,1-.252.08A.453.453,0,0,1,18314.543,296.367Zm241.625-66.352-6.154-3.246a11.267,11.267,0,0,0-9.607-.427l-2.484.352a12.409,12.409,0,0,1-6.854-.971l-6.014-2.7h-31.838l-11.576-3.607-6.258-4.883a.515.515,0,0,1,.361-.919l6.281.507a.516.516,0,0,0,.4-.887.516.516,0,0,1,.445-.882l8.49,1.534a.513.513,0,0,0,.535-.765l-1.309-2.256a.517.517,0,0,1,.68-.718l10.943,5.535a.51.51,0,0,0,.311.052l32.127-5.155,3.852-4.972a.676.676,0,0,0-.9-.98l-1.6,1.027a.677.677,0,0,1-.887-1l3.543-4.292a.673.673,0,0,0-.762-1.055l-4.479,1.7a.675.675,0,0,1-.732-1.093l2.988-3.18a.674.674,0,0,0-.713-1.1l-2.861.99a.675.675,0,0,1-.77-1.032l3.809-5.272a.675.675,0,0,0-.619-1.065l-2.635.272a.675.675,0,0,1-.559-1.135l5.291-5.6a.676.676,0,0,0-.559-1.135l-2.74.258a.675.675,0,0,1-.543-1.149l2.9-2.894a.678.678,0,0,0-.459-1.154l-1.52-.042a.675.675,0,0,1-.338-1.248l1.373-.854a.675.675,0,0,0-.1-1.2.672.672,0,0,1,.061-1.271l5.1-1.506a.677.677,0,0,0-.02-1.3l-1.566-.408a.675.675,0,0,1-.094-1.271l1.229-.535a.674.674,0,0,0-.037-1.252l-1.416-.521a.677.677,0,0,1-.043-1.252l1.2-.53a.673.673,0,0,0,0-1.234l-1.262-.563a.675.675,0,0,1,.023-1.243l1.43-.572a.676.676,0,0,0,.254-1.074l-2.293-2.571a.672.672,0,0,1,.432-1.116l1.684-.183a.677.677,0,0,0,.441-1.112l-1.826-2.125a.675.675,0,0,1,.535-1.112l1.4.047a.673.673,0,0,0,.549-1.1l-1.309-1.6a.674.674,0,0,1,.623-1.093l3.748.568a.673.673,0,0,0,.656-1.046l-2.008-2.946a.676.676,0,0,1,.9-.966l16.648,9.733a1.172,1.172,0,0,0,1.58-1.637l-9.354-14.828a1.517,1.517,0,0,1,2.406-1.829l17.2,18.814v78.95a20.982,20.982,0,0,1-15.33-1.672Zm-537.273-13.374.52-7.257a.362.362,0,0,0-.629-.267l-4.559,5.094a.36.36,0,0,1-.625-.258l.287-7.06a.356.356,0,0,0-.619-.258l-3.42,3.692a.357.357,0,0,1-.619-.239l-.361-41.791a1.407,1.407,0,0,0-1.172-1.374l-3.48-.6a1.409,1.409,0,0,1-1.168-1.548l.412-3.649a1.41,1.41,0,0,0-1.549-1.562l-2.523.263a1.41,1.41,0,0,1-1.539-1.618l.625-4.1a1.411,1.411,0,0,0-1.355-1.623l-35.088-.966a.328.328,0,0,1-.16-.056l-2.58-1.815a.286.286,0,0,1,.164-.521l2.234-.019a.288.288,0,0,0,.191-.5l-2.1-1.876a.287.287,0,0,1,.205-.5l10.527.558a.439.439,0,0,0,.432-.6l-.555-1.412a.441.441,0,0,1,.549-.577l9.078,2.96a3.751,3.751,0,0,0,3.2-.422l4.1-2.655a4.751,4.751,0,0,1,2.727-.765l3.082.084,27.1-8.5a32.418,32.418,0,0,1,14.025-1.2l13.332,1.792a32.393,32.393,0,0,1,9.572,2.833l8.178,3.875a9.286,9.286,0,0,0,8.189-.113l4.846-2.458a9.63,9.63,0,0,1,8.3-.188l4.893,2.209s25.3,1.412,31.424,16.582c0,0-15.508-14.054-30.139-11.249l-7.252,2.819a13.871,13.871,0,0,1-6.3.882l-18.98-1.759a8.119,8.119,0,0,0-8.795,6.971,8.017,8.017,0,0,1-1.854,4.114c-1.342,1.576-3.311,4-4.549,5.531a7.581,7.581,0,0,0-1.525,3.223l-.914,4.353a16.762,16.762,0,0,1-1.08,3.326l-9.709,21.667a13.578,13.578,0,0,1-1.131,2.045l-11.225,16.695a.346.346,0,0,1-.3.159A.353.353,0,0,1,18018.895,216.642Zm-411.979-1.74-6.191-2.055-.85-.281-12.473-4.137-24.355,3.087a2.919,2.919,0,0,1-.857-.014l-11.568-1.876-12.877,1.1a.732.732,0,0,1-.244-.019v-1.326l10.223-4.711.576-.263h0l2.205-1.013,12.7,1.557,26.48-8.27,5.273-5.151.67-12.82a3.461,3.461,0,0,1,.535-1.684l3.541-5.582a1.158,1.158,0,0,0,.146-.872l-.582-2.435a1.137,1.137,0,0,1,.238-1l2.107-2.477a1.144,1.144,0,0,0,.262-.872l-.141-1.154-.094-.8-.1-.882a1.133,1.133,0,0,1,.619-1.154l2.422-1.21a1.136,1.136,0,0,0,.59-1.295l-.5-1.942a1.137,1.137,0,0,1,.74-1.36l1.791-.591a1.14,1.14,0,0,0,.752-1.346l-.521-2.172a1.137,1.137,0,0,1,.656-1.309l3.078-1.318a1.145,1.145,0,0,0,.689-.994l.107-2.524a1.149,1.149,0,0,1,.164-.539s.006,0,.006-.009a.115.115,0,0,1,.014-.019.022.022,0,0,1,.01-.019h0a1.053,1.053,0,0,1,.281-.291l2.969-2.1a1.141,1.141,0,0,0,.475-1.027l-.207-2.406a1.137,1.137,0,0,1,.582-1.093l2.148-1.182a1.121,1.121,0,0,0,.578-.84l.342-2.5a1.131,1.131,0,0,1,.566-.835l1.469-.826a1.144,1.144,0,0,0,.568-1.154l-.432-3.012a1.13,1.13,0,0,1,.643-1.187c1.477-.69,4.629-2.158,5.006-2.28.332-.113.219-1.834.111-2.974a1.135,1.135,0,0,1,.867-1.215l1.8-.427a1.153,1.153,0,0,0,.846-.854l1.031-4.517a1.148,1.148,0,0,1,.662-.793l2.9-1.243.521-.22,1.158-.5a1.138,1.138,0,0,0,.689-.994l.088-2.083a1.142,1.142,0,0,1,1.037-1.084l3.885-.342a1.126,1.126,0,0,0,.971-.751l1.205-3.359a.715.715,0,0,1,1.328-.052l5.057,11.281a1.886,1.886,0,0,0,.984.966s.006,0,.006,0a.094.094,0,0,1,.023.009h0l.023.009.006,0c.008,0,.014,0,.023,0a0,0,0,0,0,0,0c.01,0,.02,0,.023.009h.01a.033.033,0,0,0,.018.009.021.021,0,0,1,.016,0,.019.019,0,0,1,.014,0,.016.016,0,0,1,.014,0,.016.016,0,0,1,.014,0c.006,0,.01,0,.01,0h.014c.01,0,.02,0,.023.009a.036.036,0,0,1,.02,0h.014a.016.016,0,0,0,.014,0c.006,0,.01,0,.014,0h.01a.03.03,0,0,0,.02,0,.018.018,0,0,0,.014,0s.01,0,.01,0h.014a.082.082,0,0,0,.033,0,.014.014,0,0,0,.01,0h.014s.01,0,.014,0h.014c.006,0,.01,0,.014,0h.016s.008,0,.014,0h.014c.01,0,.02,0,.027,0l-.084-1.313-.82-12.487a1.732,1.732,0,0,1,.549-1.379l2.092-1.956,1.352-1.267.943-.882a1.732,1.732,0,0,1,2.9,1.027l3.063,22.244.113.844,1,7.238.174,1.252,1.365,9.94a2.871,2.871,0,0,1-.686,2.289l-5.746,6.581a2.9,2.9,0,0,0-.7,2.172l.863,9.128a2.864,2.864,0,0,1-.473,1.872l-17.881,26.827,12.41,12.238a9.545,9.545,0,0,0,11.137,1.661l14.393-7.548a14.943,14.943,0,0,1,13.387-.244l6.285,3.007a66.936,66.936,0,0,1,12.623-.371c.18.014.357.023.535.038,8.607.624,19.223,3.18,24.65,11.357a63.063,63.063,0,0,0-15.143-6.037c-.141-.033-.281-.066-.422-.1-6.187-1.482-13.33-1.989-19.658.624l-6.723,3.814a16.1,16.1,0,0,1-9.584,2l-9.863-1.027-10.26,3.687a20.288,20.288,0,0,1-13.529.056l-9.91-3.462-22.854,9.293a16.482,16.482,0,0,1-11.4.375Zm692.7-33.84-6.6,3.753a11.772,11.772,0,0,1-7.1,1.468l-11.9-1.309-11.615,4.771a12.6,12.6,0,0,1-8.307.441l-11.16-3.251a11.569,11.569,0,0,0-7.744.45l-12.643,5.343a20.983,20.983,0,0,1-17.947-.765l-6.154-3.246a11.269,11.269,0,0,0-9.6-.422l-2.486.352a12.47,12.47,0,0,1-6.857-.976l-6.014-2.7h-31.832l-11.578-3.607-6.256-4.883a.514.514,0,0,1,.355-.919l6.281.507a.515.515,0,0,0,.4-.887.515.515,0,0,1,.451-.877l8.49,1.529a.514.514,0,0,0,.535-.765l-1.309-2.256a.515.515,0,0,1,.68-.718l10.939,5.535a.484.484,0,0,0,.313.052l32.129-5.151,3.846-4.977a.674.674,0,0,0-.9-.98l-1.594,1.027a.676.676,0,0,1-.887-1l3.537-4.287a.672.672,0,0,0-.756-1.06l-4.479,1.7a.673.673,0,0,1-.732-1.088l2.982-3.185a.674.674,0,0,0-.713-1.1l-2.861.99a.672.672,0,0,1-.764-1.032l3.8-5.273a.673.673,0,0,0-.615-1.065l-2.637.272a.677.677,0,0,1-.562-1.135l5.291-5.6a.674.674,0,0,0-.553-1.135l-2.744.263a.675.675,0,0,1-.541-1.149l2.895-2.9a.671.671,0,0,0-.455-1.149l-1.523-.047a.675.675,0,0,1-.338-1.248l1.379-.854a.673.673,0,0,0-.1-1.2.676.676,0,0,1,.057-1.276l5.107-1.506a.675.675,0,0,0-.018-1.3l-1.566-.413a.675.675,0,0,1-.1-1.271l1.234-.535a.675.675,0,0,0-.033-1.252l-1.426-.521a.672.672,0,0,1-.037-1.248l1.2-.535a.676.676,0,0,0,0-1.234l-1.268-.563a.676.676,0,0,1,.023-1.243l1.432-.572a.673.673,0,0,0,.252-1.074l-2.293-2.566a.677.677,0,0,1,.432-1.121l1.684-.183a.672.672,0,0,0,.441-1.107l-1.82-2.125a.677.677,0,0,1,.535-1.116l1.4.052a.675.675,0,0,0,.545-1.1l-1.3-1.6a.675.675,0,0,1,.625-1.093l3.742.568a.675.675,0,0,0,.662-1.046l-2.012-2.946a.677.677,0,0,1,.9-.966l16.643,9.733a1.17,1.17,0,0,0,1.58-1.637l-9.348-14.823a1.519,1.519,0,0,1,2.406-1.834l31.521,34.492a12.855,12.855,0,0,1,1.75,14.922l-.834,1.506V163.7l18.8,14.424a7.405,7.405,0,0,0,7.416.933l20.2-8.645a10.641,10.641,0,0,1,8.561.089l7.764,3.5s33.469,1.867,41.574,21.944C18339.488,195.946,18318.977,177.351,18299.611,181.062Zm-358.469-2.2-6.6,3.757a11.744,11.744,0,0,1-7.1,1.464l-11.906-1.309-11.609,4.771a12.6,12.6,0,0,1-8.307.446l-11.16-3.255a11.6,11.6,0,0,0-7.744.455l-12.643,5.343a20.984,20.984,0,0,1-17.947-.769l-6.154-3.241a11.267,11.267,0,0,0-9.607-.427l-2.486.352a12.49,12.49,0,0,1-6.852-.971l-6.014-2.7h-31.838l-11.572-3.6-6.262-4.888a.516.516,0,0,1,.361-.919l6.281.507a.513.513,0,0,0,.4-.882.516.516,0,0,1,.445-.882l8.49,1.534a.52.52,0,0,0,.539-.769l-1.312-2.252a.516.516,0,0,1,.68-.718l10.943,5.535a.516.516,0,0,0,.314.047l32.123-5.151,3.852-4.972a.676.676,0,0,0-.9-.98l-1.6,1.023a.674.674,0,0,1-.887-.994l3.543-4.292a.675.675,0,0,0-.762-1.06l-4.479,1.707a.676.676,0,0,1-.732-1.093l2.988-3.18a.677.677,0,0,0-.713-1.1l-2.861.994a.676.676,0,0,1-.77-1.032l3.809-5.273a.678.678,0,0,0-.613-1.07l-2.643.272a.674.674,0,0,1-.557-1.135l5.291-5.6a.678.678,0,0,0-.559-1.135l-2.744.263a.675.675,0,0,1-.539-1.149l2.9-2.894a.675.675,0,0,0-.455-1.154l-1.523-.042a.675.675,0,0,1-.338-1.248l1.373-.854a.674.674,0,0,0-.1-1.2.676.676,0,0,1,.063-1.276l5.1-1.506a.674.674,0,0,0-.02-1.3l-1.566-.413a.675.675,0,0,1-.094-1.271l1.229-.53a.674.674,0,0,0-.033-1.252l-1.42-.521a.677.677,0,0,1-.043-1.252l1.2-.535a.673.673,0,0,0,0-1.234l-1.262-.563a.67.67,0,0,1,.023-1.238l1.43-.572a.681.681,0,0,0,.254-1.079l-2.293-2.566a.676.676,0,0,1,.432-1.121l1.684-.178a.677.677,0,0,0,.441-1.112l-1.826-2.125a.675.675,0,0,1,.539-1.112l1.395.047a.674.674,0,0,0,.549-1.1l-1.309-1.6a.677.677,0,0,1,.629-1.1l3.742.572a.673.673,0,0,0,.656-1.046l-2.008-2.951a.674.674,0,0,1,.9-.962l16.648,9.729a1.154,1.154,0,0,0,1.148.019,1.167,1.167,0,0,0,.432-1.651l-9.348-14.828a1.517,1.517,0,0,1,2.4-1.834l31.527,34.492a12.862,12.862,0,0,1,1.75,14.922l-.836,1.51v16.906l18.8,14.424a7.383,7.383,0,0,0,7.41.929l20.209-8.641a10.641,10.641,0,0,1,8.561.084l7.764,3.5s33.469,1.867,41.574,21.944C17981.02,193.75,17960.5,175.156,17941.143,178.866Zm458.967-14.251-19.514-6.473-24.361,3.091a3.09,3.09,0,0,1-.857-.014l-11.568-1.876-12.871,1.1a.685.685,0,0,1-.348-1.3l13.1-6.032,12.7,1.557,26.479-8.265,5.273-5.155.67-12.82a3.54,3.54,0,0,1,.535-1.684l3.541-5.577a1.139,1.139,0,0,0,.146-.872l-.582-2.435a1.122,1.122,0,0,1,.244-1l2.105-2.481a1.142,1.142,0,0,0,.264-.872l-.342-2.833a1.138,1.138,0,0,1,.619-1.149l2.42-1.21a1.141,1.141,0,0,0,.6-1.3l-.5-1.942a1.131,1.131,0,0,1,.746-1.356l1.791-.6a1.132,1.132,0,0,0,.746-1.342l-.521-2.172a1.146,1.146,0,0,1,.662-1.313l3.072-1.318a1.126,1.126,0,0,0,.689-.994l.109-2.519a1.14,1.14,0,0,1,.477-.877l2.975-2.106a1.146,1.146,0,0,0,.475-1.023l-.211-2.406a1.132,1.132,0,0,1,.586-1.093l2.143-1.182a1.115,1.115,0,0,0,.578-.844l.342-2.5a1.161,1.161,0,0,1,.568-.84l1.473-.821a1.144,1.144,0,0,0,.563-1.154l-.426-3.012a1.118,1.118,0,0,1,.637-1.187c1.482-.694,4.635-2.158,5.01-2.284.334-.108.221-1.834.107-2.969a1.145,1.145,0,0,1,.869-1.22l1.8-.427a1.128,1.128,0,0,0,.844-.854l1.031-4.513a1.153,1.153,0,0,1,.662-.793l4.582-1.965a1.132,1.132,0,0,0,.686-.994l.094-2.083a1.128,1.128,0,0,1,1.033-1.079l3.889-.342a1.148,1.148,0,0,0,.971-.751l1.2-3.363a.719.719,0,0,1,1.332-.047l5.057,11.281a1.9,1.9,0,0,0,1.52,1.107l-.9-13.8a1.724,1.724,0,0,1,.543-1.374l4.387-4.109a1.733,1.733,0,0,1,2.9,1.032l5.719,41.514a2.9,2.9,0,0,1-.686,2.294l-5.75,6.581a2.876,2.876,0,0,0-.7,2.172l.867,9.128a2.918,2.918,0,0,1-.473,1.872l-17.887,26.822,12.412,12.243a9.548,9.548,0,0,0,11.135,1.656l14.393-7.543a14.956,14.956,0,0,1,13.393-.249l6.285,3.007s27.779-4.086,37.8,11.023c0,0-19.959-11.812-35.223-5.512l-6.723,3.809a16.008,16.008,0,0,1-9.578,2l-9.865-1.027-10.264,3.687a20.225,20.225,0,0,1-13.527.056l-9.912-3.462-22.854,9.293a16.466,16.466,0,0,1-11.4.375Z" transform="translate(-17537 -42.854)" fill="#ff0030" stroke="rgba(0,0,0,0)" stroke-miterlimit="10" stroke-width="1"/>
</svg>
