<svg xmlns="http://www.w3.org/2000/svg" width="170.099" height="170.883" viewBox="0 0 170.099 170.883"><defs><style>.a{fill:#ffb267;}.b{fill:#cfa135;}.c{fill:#ffa272;}.d{fill:#ff6939;}.e{fill:#333;}.f{fill:#ff0030;}.g{fill:#b0892c;}.h{fill:#005f89;}.i{fill:#ff5e26;}.j{fill:#003753;}.k{fill:#039;}.l{fill:#ffc1b6;}.m{fill:#36ccc7;}.n{fill:#ff3e31;}.o{fill:#006938;}.p{fill:#ffca00;}.q{fill:#a3633e;}</style></defs><g transform="translate(-870 -4508)"><g transform="translate(870 4508)"><g transform="translate(114.013 3.086)"><path class="a" d="M1233.749,283.075v.019h0a1.863,1.863,0,0,0-.135-.749,9.415,9.415,0,0,1,.35-1.6c.07-.016.137-.034.2-.054A8,8,0,0,0,1233.749,283.075Z" transform="translate(-1195.77 -255.04)"/><path class="b" d="M1202.525,314.35a5.346,5.346,0,0,0,1.156-.081c-.005.014-.012.027-.018.041l.165.071.01.038a5.325,5.325,0,0,1-1.218.111c-.059-.063-.118-.124-.179-.185C1202.468,314.348,1202.5,314.35,1202.525,314.35Z" transform="translate(-1180.161 -271.855)"/><path class="a" d="M1185.518,325.824c-.071-.061-.14-.124-.209-.183l.056-.023-.072-.165-.133.055c-2.844-2.517-5.53-4.765-7.913-6.758-2.9-2.429-5.5-4.6-7.778-6.736.011-.047.023-.1.038-.145l.032-.034c2.291,2.149,4.9,4.332,7.824,6.78,2.481,2.075,5.293,4.429,8.273,7.075a7.318,7.318,0,0,1,1.277,1.51c-.037.048-.079.1-.118.144l.029.048A7.177,7.177,0,0,0,1185.518,325.824Z" transform="translate(-1163.65 -270.635)"/><path class="c" d="M1248.794,412.525l-.077-.176.165-.072.016.038C1248.864,412.388,1248.83,412.459,1248.794,412.525Z" transform="translate(-1203.334 -320.933)"/><path class="d" d="M1231.436,304.372c-.307,2.3-.718,3.3-1.867,4.569-.048-.034-.1-.071-.142-.111a6.915,6.915,0,0,0,1.826-4.447C1231.316,304.381,1231.377,304.379,1231.436,304.372Z" transform="translate(-1193.674 -266.899)"/><path class="e" d="M1229.922,283.974a1.813,1.813,0,0,0,.115.623,2.132,2.132,0,0,1-2.542,1.53,1.247,1.247,0,0,1-1.153-1.562c.012-.113.025-.23.043-.348l.16-.009-.011-.18-.122.007a2.4,2.4,0,0,1,.47-1.176,1.116,1.116,0,0,1,.759-.361,4.832,4.832,0,0,1,1.115.061l.328.046a1.11,1.11,0,0,1,.724.379,1.014,1.014,0,0,1,.156.26A5.98,5.98,0,0,0,1229.922,283.974Z" transform="translate(-1192.123 -255.939)"/><path class="f" d="M1223.269,333.448a39.571,39.571,0,0,0-1.471,10.211c-.057,1.864-.187,3.535-.312,5.151s-.255,3.293-.312,5.16a18.994,18.994,0,0,0,.2,3.3c-5.029-5.57-20.823-7.7-22.828-7.945a23.519,23.519,0,0,0,4.74-12.591,14.7,14.7,0,0,0-1.713-8.534,9.721,9.721,0,0,0,2.171-5.523,11.56,11.56,0,0,0-3.076-8.525,5.326,5.326,0,0,0,1.218-.111,3.371,3.371,0,0,0,.793-.268,8.539,8.539,0,0,0,7.212,3.909c.093.005.185.007.275.007a3.509,3.509,0,0,0,3.559-2.706l.014-.052a2.524,2.524,0,0,0,.059-1.422,6.229,6.229,0,0,0,1.477.893h0a23.576,23.576,0,0,0,5.211,6.379c2.362,2.174,4.23,3.893,4.162,7.526a9.485,9.485,0,0,1-1.156,4.424,8.509,8.509,0,0,1-2.422,2.761l.106.144A8.615,8.615,0,0,0,1223.269,333.448Z" transform="translate(-1178.212 -271.473)"/><path class="d" d="M1202.881,264.4c-3.088,0-7.386.632-10.532,3.595a14.318,14.318,0,0,0-3.007,4.375,11.551,11.551,0,0,1-3.907,4.957l-.138.1a11.075,11.075,0,0,1-2.81,1.58,3.6,3.6,0,0,0-1.985,1.978,2.87,2.87,0,0,1-.44.79l-.14-.111a2.73,2.73,0,0,0,.411-.742,3.774,3.774,0,0,1,2.115-2.091,11.182,11.182,0,0,0,2.747-1.551l.138-.1a11.406,11.406,0,0,0,3.849-4.891,14.471,14.471,0,0,1,3.043-4.426c3.191-3,7.535-3.643,10.656-3.643.034,0,.066,0,.1,0,1.607.005,6.846.373,6.846,4.8a3.356,3.356,0,0,1-2.548,3.419c.005-.016.009-.03.014-.047l-.172-.05-.011-.04a3.147,3.147,0,0,0,2.537-3.282c0-4.147-4.662-4.616-6.667-4.624C1202.947,264.4,1202.915,264.4,1202.881,264.4Z" transform="translate(-1168.884 -246.79)"/><path class="g" d="M1246.087,352.011c-.079.237-.155.476-.226.718a8.617,8.617,0,0,1-2.09,2.187l-.106-.144A8.509,8.509,0,0,0,1246.087,352.011Z" transform="translate(-1200.804 -290.754)"/><path class="h" d="M1222.892,417.044c0,.124-.007.232-.011.316-.01.207-.043.855-.1,1.8a.148.148,0,0,0-.015-.021l-.149.1h-.02c.054-1,.09-1.679.1-1.891,0-.084.007-.189.01-.313a11.2,11.2,0,0,1,1.583-5.945l.149.1A11.05,11.05,0,0,0,1222.892,417.044Z" transform="translate(-1190.256 -320.34)"/><path class="a" d="M1220.426,286.1a4.131,4.131,0,0,0,1.754,1.9c-.1.126-.2.239-.3.348a2.273,2.273,0,0,0-.781,1.682,11.112,11.112,0,0,0,.144,1.467,11.906,11.906,0,0,1,.149,1.566c0,1.118-.447,1.684-1.327,1.684a7.534,7.534,0,0,1-1.645-.654,7,7,0,0,0-1.722-.672.934.934,0,0,0-.756.257c-.244.293-.151.8-.061,1.3a7.4,7.4,0,0,0,1.971,4.277,3.434,3.434,0,0,1,.018,1.6l-.014.052a3.359,3.359,0,0,1-3.652,2.567,8.355,8.355,0,0,1-7.068-3.808,2.885,2.885,0,0,0,1.407-2.219c.016-.109.034-.228.056-.354a10.346,10.346,0,0,0-.2-4.851,23.18,23.18,0,0,1,3.533-4.093,1.176,1.176,0,0,0,.55.126,1.863,1.863,0,0,0,.58-.1L1213,288a1.219,1.219,0,0,1-1.117-.088,1.163,1.163,0,0,1-.427-.966,1.411,1.411,0,0,1,1.528-1.453.724.724,0,0,1,.5.225.715.715,0,0,1,.158.575l.18.016a.906.906,0,0,0-.169-.668,8.543,8.543,0,0,0,1.672.127q.64,0,1.443-.046c-.018.118-.031.235-.043.348a1.247,1.247,0,0,0,1.153,1.562A2.132,2.132,0,0,0,1220.426,286.1Z" transform="translate(-1182.511 -257.446)"/><path class="i" d="M1228.946,303.065a6.916,6.916,0,0,1-1.826,4.447c-.084-.068-.169-.14-.25-.215l-.007-.007-.225-.225-.028-.03a7.6,7.6,0,0,1-1.7-3.952c-.1-.54-.155-.939.023-1.151a.774.774,0,0,1,.618-.192,7.634,7.634,0,0,1,1.646.655,6.917,6.917,0,0,0,1.72.669Z" transform="translate(-1191.367 -265.581)"/><path class="h" d="M1222.79,427.216a.138.138,0,0,1,.014.021c0,.1-.009.194-.014.295-.05-.07-.1-.142-.149-.216Z" transform="translate(-1190.276 -328.413)"/><path class="b" d="M1205.123,314.175c-.021.052-.045.106-.068.16l-.165-.071c.006-.014.013-.027.018-.041C1204.981,314.207,1205.053,314.191,1205.123,314.175Z" transform="translate(-1181.387 -271.808)"/><path class="c" d="M1228.463,312.406l.225.225C1228.61,312.559,1228.537,312.483,1228.463,312.406Z" transform="translate(-1193.191 -270.922)"/><path class="j" d="M1205.418,429.391a27.376,27.376,0,0,0,3-.023q-.005.084-.01.172c-.537.036-1.2.065-1.719.065-.423,0-.849-.012-1.276-.034a24.09,24.09,0,0,1-10.816-2.785l-.054-.235A24.585,24.585,0,0,0,1205.418,429.391Z" transform="translate(-1176.204 -328.08)"/><path class="b" d="M1201.134,342.963l.071.113c.041-.048.081-.1.119-.145a14.7,14.7,0,0,1,1.713,8.534,23.519,23.519,0,0,1-4.74,12.591l-.209-.025-.043.054a23.3,23.3,0,0,0,4.814-12.632A14.455,14.455,0,0,0,1201.134,342.963Z" transform="translate(-1177.96 -286.207)"/><path class="b" d="M1206.765,313.571c.036.052.07.1.108.153-.048.027-.1.054-.153.079-.037-.05-.072-.1-.108-.153h0C1206.666,313.625,1206.716,313.6,1206.765,313.571Z" transform="translate(-1182.249 -271.505)"/><path class="b" d="M1205.441,323.3a11.812,11.812,0,0,0-3.151-8.525c.052,0,.1.005.154.007.034,0,.068,0,.1,0a11.561,11.561,0,0,1,3.076,8.525,9.722,9.722,0,0,1-2.171,5.523c-.031-.054-.065-.108-.1-.16A9.371,9.371,0,0,0,1205.441,323.3Z" transform="translate(-1180.085 -272.108)"/><path class="i" d="M1177.132,318.93c2.383,1.993,5.069,4.241,7.912,6.758a17.326,17.326,0,0,1-6.842,1.361c-5.2,0-8.071-3.738-8.071-6.321a4.683,4.683,0,0,1,.783-2.388,3.89,3.89,0,0,0,.662-1.9c0-.849-.574-1.226-1.129-1.592a2.061,2.061,0,0,1-1.093-2.656C1171.636,314.33,1174.228,316.5,1177.132,318.93Z" transform="translate(-1163.534 -270.816)"/><path class="d" d="M1227.876,277.954c-.014.05-.03.1-.045.151a6.768,6.768,0,0,1-1.614.176,6.582,6.582,0,0,1-3.052-.7.923.923,0,0,0,.042-.09l-.165-.07-.032.073a3.471,3.471,0,0,1-1.641-2.027l.172-.052c.587,1.979,2.8,2.682,4.677,2.682a6.557,6.557,0,0,0,1.648-.187Z" transform="translate(-1189.639 -252.4)"/><path class="a" d="M1201.031,339.112l.072.165-.056.023c-.05-.046-.1-.09-.149-.133Z" transform="translate(-1179.388 -284.295)"/><path class="i" d="M1209.788,269.2a3.146,3.146,0,0,1-2.537,3.282,6.557,6.557,0,0,1-1.648.187c-1.876,0-4.09-.7-4.677-2.682l-.172.052a3.472,3.472,0,0,0,1.641,2.027,8.885,8.885,0,0,1-2.528,2.86.87.87,0,0,0-.366-.088,1.6,1.6,0,0,0-1.707,1.632,1.344,1.344,0,0,0,.489,1.1,24.209,24.209,0,0,0-3.582,4.187,9.075,9.075,0,0,0-.98,1.7,6.6,6.6,0,0,0-.541,2.979,5.762,5.762,0,0,1-.634,2.948,5.35,5.35,0,0,1-1.156.081c-.029,0-.057,0-.084,0a.25.25,0,0,1-.034,0l-.183-.011a.335.335,0,0,1-.045,0,5.1,5.1,0,0,1-2.841-1.144c-1.07-.874-3.214-2.569-5.483-4.364-.845-.668-1.7-1.343-2.517-1.991a2.87,2.87,0,0,0,.44-.79,3.6,3.6,0,0,1,1.986-1.979,11.073,11.073,0,0,0,2.81-1.58l.138-.1a11.55,11.55,0,0,0,3.907-4.957,14.323,14.323,0,0,1,3.007-4.375c3.146-2.963,7.444-3.595,10.532-3.595.034,0,.066,0,.1,0C1205.125,264.586,1209.788,265.055,1209.788,269.2Z" transform="translate(-1169.024 -246.971)"/><path class="a" d="M1180.194,272.157a11.812,11.812,0,0,1,3.151,8.525,9.371,9.371,0,0,1-2.092,5.372,7.314,7.314,0,0,0-1.277-1.51c-2.98-2.646-5.792-5-8.273-7.075-2.924-2.447-5.534-4.63-7.824-6.78a45.972,45.972,0,0,1-5.687-6.25c-.21-.327.652-6.166,5.738-14.947.585-1.011.934-1.595,1.214-2.061.61-1.02.917-1.532,2.693-4.843a22.456,22.456,0,0,0,2.862-7.3,8.065,8.065,0,0,1,.663-1.808l.009-.018c1.662-3.5,3.547-3.98,4.313-3.742a.567.567,0,0,1,.4.316,1.3,1.3,0,0,1-.234,1.023,8.3,8.3,0,0,0-.84,2.1,1.918,1.918,0,0,0,0,.813,1.271,1.271,0,0,1,.013.533,2.781,2.781,0,0,1-.53.979,15.575,15.575,0,0,0-2.433,4.413l-1.839,4.977c-.393,1.061-.745,2.045-1.086,3-.6,1.691-1.176,3.288-1.905,5.138-.259.655-.553,1.5-.838,2.316-.221.637-.451,1.3-.659,1.853-.027.072-.061.16-.1.26-.645,1.67-1.226,3.44-.643,3.916,1.451,1.185,4.062,3.25,6.587,5.246,2.268,1.794,4.411,3.489,5.482,4.363A5.306,5.306,0,0,0,1180.194,272.157Z" transform="translate(-1157.989 -229.49)"/><path class="c" d="M1206.616,313.65l.151-.079C1206.718,313.6,1206.668,313.625,1206.616,313.65Z" transform="translate(-1182.251 -271.505)"/><path class="b" d="M1247.769,355.154h0c-.02.07-.039.142-.057.214a1.842,1.842,0,0,1-.117-.147l.149-.1A.177.177,0,0,0,1247.769,355.154Z" transform="translate(-1202.772 -292.312)"/><path class="a" d="M1233.276,304.2c0,.023-.007.048-.009.072-.059.007-.12.009-.183.01.006-.034.009-.07.015-.106Z" transform="translate(-1195.505 -266.803)"/><path class="a" d="M1242.882,486.457c-.243.115-.756-.1-1.374-.573-.241-.187-.842-.736-1.6-1.431-1.074-.98-2.546-2.325-3.968-3.528-2.154-1.823-1.964-2.6-1.883-2.934l.014-.061a2.8,2.8,0,0,1,.952-1.278l.08-.077a4.916,4.916,0,0,0,1.358-2.769,58.208,58.208,0,0,0,.381-7.212,32.838,32.838,0,0,1,.347-5.55,52.527,52.527,0,0,1,2.775-9.839c1.016-2.81,1.751-4.839,1.2-5.948a27.122,27.122,0,0,0-3.444-5.323c-.371-.479-.793-1.021-1.259-1.643-1.35-1.8-2.781-3.454-4.163-5.052-.964-1.113-1.96-2.266-2.939-3.474-.282-.348-.544-.664-.794-.962a21.85,21.85,0,0,0,6.4-1.2,19.275,19.275,0,0,0,4.758-2.677,10.928,10.928,0,0,0,1.539-1.595c.632,1.282,1.192,2.451,1.443,3.1.02.052.131.3.331.745,3.494,7.77,5.491,12.8,5.934,14.957a13.543,13.543,0,0,1-.162,5.05,86.709,86.709,0,0,1-2.776,9.266c-.537,1.469-1.206,2.987-1.853,4.454-.669,1.519-1.361,3.09-1.894,4.579-.479,1.341-.934,2.5-1.621,4.138l-.029.066a26.721,26.721,0,0,0-1.687,4.862c-.661,3.646.255,5.045,2.7,8.78q.3.452.623.953a4.593,4.593,0,0,1,.737,1.636,1.217,1.217,0,0,1,.019.241A.3.3,0,0,1,1242.882,486.457Z" transform="translate(-1193.24 -326.468)"/><path class="b" d="M1229.472,313.472l-.131-.122c.014-.016.031-.032.043-.048a1.782,1.782,0,0,0,.142.111Z" transform="translate(-1193.631 -271.37)"/><path class="d" d="M1205.739,303.667a5.827,5.827,0,0,1-.6,2.907c-.07.016-.142.032-.215.047a5.76,5.76,0,0,0,.634-2.948,6.6,6.6,0,0,1,.541-2.979,9.066,9.066,0,0,1,.98-1.7l.029.019c.016.061.034.12.048.18a8.479,8.479,0,0,0-.891,1.564A6.455,6.455,0,0,0,1205.739,303.667Z" transform="translate(-1181.405 -264.207)"/><path class="j" d="M1227.97,434.123l-.158-.174q.113,0,.226-.011l.147.176Z" transform="translate(-1192.865 -331.779)"/><path class="b" d="M1204.393,342.771q-.057.073-.119.145l-.071-.113-.029-.048c.04-.047.081-.1.118-.144C1204.328,342.663,1204.363,342.717,1204.393,342.771Z" transform="translate(-1181.029 -286.047)"/><path class="k" d="M1209.813,409.722c-.138-.165-.275-.323-.407-.481a31.9,31.9,0,0,1-2.237-2.853c.054-.95.086-1.6.1-1.8,0-.084.007-.192.011-.316a11.051,11.051,0,0,1,1.553-5.849l-.149-.1a11.2,11.2,0,0,0-1.584,5.945c0,.124-.005.228-.01.313-.011.212-.047.894-.1,1.891-.036.668-.082,1.479-.135,2.386a27.364,27.364,0,0,1-3,.023,24.585,24.585,0,0,1-10.878-2.84c-1.149-4.943-2.426-10.907-.758-15.381a18.014,18.014,0,0,1,2.6-5.036c.01-.012.02-.025.028-.037,2.009.269,18.01,2.594,23.017,8.119a13.775,13.775,0,0,0,.346,1.517,26.646,26.646,0,0,1-1.734,2.172,2.91,2.91,0,0,0-.656.984,1.434,1.434,0,0,0-.047.6,1.741,1.741,0,0,1-.072.739,8.123,8.123,0,0,1-1.014,1.965,1.446,1.446,0,0,0-.355,1.149.743.743,0,0,0,.469.467,1.5,1.5,0,0,0,.585.106c.988,0,2.632-.718,4.289-3.489l.011-.018c.118-.2.268-.447.415-.736.435.98,1.169,2.458,1.878,3.89.2.4.4.8.592,1.2a10.178,10.178,0,0,1-1.566,1.643,19.438,19.438,0,0,1-4.7,2.645A22.629,22.629,0,0,1,1209.813,409.722Z" transform="translate(-1174.641 -307.563)"/><path class="c" d="M1202.006,314.4l.183.011C1202.126,314.407,1202.067,314.4,1202.006,314.4Z" transform="translate(-1179.943 -271.919)"/><path class="j" d="M1253.91,423.1c-.028-.061-.059-.122-.09-.185l.032-.043.18.068C1253.993,423,1253.953,423.049,1253.91,423.1Z" transform="translate(-1205.889 -326.239)"/><path class="j" d="M1244.621,402.107l-.023-.127c.071.391.161.79.273,1.187-.043.064-.086.127-.133.192a13.836,13.836,0,0,1-.346-1.517C1244.47,401.929,1244.547,402.017,1244.621,402.107Z" transform="translate(-1201.167 -315.707)"/><path class="d" d="M1224.811,279.6c-.053-.027-.106-.057-.156-.086l.032-.073.165.07A.918.918,0,0,1,1224.811,279.6Z" transform="translate(-1191.284 -254.412)"/><path class="b" d="M1217.716,314.656a3.433,3.433,0,0,0-.018-1.6c.081.077.165.153.25.223a2.523,2.523,0,0,1-.059,1.422l-.014.052a3.509,3.509,0,0,1-3.559,2.706c-.089,0-.181,0-.275-.007a8.539,8.539,0,0,1-7.212-3.909c.052-.025.1-.052.153-.079a8.354,8.354,0,0,0,7.068,3.808,3.359,3.359,0,0,0,3.652-2.567Z" transform="translate(-1182.358 -271.249)"/><path class="d" d="M1209.241,294.8a24.216,24.216,0,0,1,3.582-4.187l.014.011a1.078,1.078,0,0,0,.147.088,23.18,23.18,0,0,0-3.533,4.093.291.291,0,0,0-.009-.034l-.172.048Z" transform="translate(-1183.566 -260.007)"/><path class="a" d="M1219.805,285.447c-.024.016-.045.032-.067.048l-.054-.073.016-.045A.538.538,0,0,1,1219.805,285.447Z" transform="translate(-1188.796 -257.387)"/><path class="b" d="M1202.178,314.407c.061.061.12.122.179.185-.032,0-.066,0-.1,0-.052,0-.1,0-.154-.007-.062-.065-.124-.129-.187-.192a.331.331,0,0,0,.045,0c.061.005.12.009.183.011A.249.249,0,0,0,1202.178,314.407Z" transform="translate(-1179.898 -271.916)"/><path class="c" d="M1248.593,441.979c-.443-2.155-2.44-7.187-5.934-14.957-.2-.447-.311-.693-.33-.745-.251-.654-.811-1.822-1.443-3.1.043-.054.083-.106.122-.16.648,1.316,1.232,2.528,1.488,3.2.018.046.142.321.328.736,3.5,7.781,5.5,12.826,5.944,15a13.648,13.648,0,0,1-.161,5.119,88.391,88.391,0,0,1-2.783,9.294c-.54,1.474-1.21,3-1.858,4.467-.668,1.515-1.359,3.083-1.889,4.564-.481,1.346-.936,2.51-1.625,4.149l-.028.066a26.661,26.661,0,0,0-1.677,4.824c-.648,3.577.256,4.957,2.675,8.648.2.3.406.619.623.955a4.749,4.749,0,0,1,.763,1.7,1.587,1.587,0,0,1,.021.273.462.462,0,0,1-.246.451.548.548,0,0,1-.23.047,2.526,2.526,0,0,1-1.33-.64c-.248-.19-.82-.714-1.614-1.44-1.074-.98-2.544-2.323-3.962-3.524-2.241-1.894-2.04-2.718-1.943-3.113l.014-.056a2.909,2.909,0,0,1,1-1.37l.083-.079a4.729,4.729,0,0,0,1.3-2.657,58.114,58.114,0,0,0,.379-7.193,32.948,32.948,0,0,1,.35-5.578,52.565,52.565,0,0,1,2.783-9.871c1-2.769,1.724-4.767,1.207-5.808a26.972,26.972,0,0,0-3.426-5.293c-.371-.479-.793-1.021-1.26-1.645-1.346-1.8-2.776-3.447-4.157-5.041-.964-1.115-1.962-2.268-2.941-3.48-.373-.46-.709-.86-1.031-1.241h0l.158.174.215-.009c.249.3.511.614.794.963.978,1.208,1.975,2.36,2.939,3.474,1.382,1.6,2.813,3.252,4.163,5.052.465.621.887,1.163,1.259,1.643a27.125,27.125,0,0,1,3.444,5.323c.553,1.11-.181,3.139-1.2,5.949a52.526,52.526,0,0,0-2.775,9.839,32.851,32.851,0,0,0-.347,5.55,58.181,58.181,0,0,1-.381,7.212,4.917,4.917,0,0,1-1.357,2.769l-.08.077a2.8,2.8,0,0,0-.952,1.278l-.014.061c-.081.332-.271,1.111,1.883,2.934,1.422,1.2,2.894,2.548,3.968,3.528.761.695,1.362,1.244,1.6,1.431.618.474,1.131.688,1.374.573a.3.3,0,0,0,.143-.293,1.2,1.2,0,0,0-.02-.241,4.59,4.59,0,0,0-.736-1.635q-.326-.5-.623-.953c-2.445-3.735-3.361-5.133-2.7-8.78a26.73,26.73,0,0,1,1.688-4.862l.029-.066c.688-1.636,1.142-2.8,1.621-4.138.533-1.488,1.225-3.059,1.894-4.579.647-1.467,1.316-2.985,1.853-4.454a86.675,86.675,0,0,0,2.776-9.266A13.543,13.543,0,0,0,1248.593,441.979Z" transform="translate(-1192.864 -326.308)"/><path class="a" d="M1216.518,290.451l.1.145-.045.032a1.081,1.081,0,0,1-.147-.088l-.014-.011C1216.452,290.5,1216.486,290.474,1216.518,290.451Z" transform="translate(-1187.159 -259.928)"/><path class="b" d="M1229.134,313.134l.131.122.054-.059a5.971,5.971,0,0,0,1.041.628c.043.086.086.171.131.255a6.227,6.227,0,0,1-1.477-.893c-.021-.1-.05-.2-.086-.318.081.075.165.147.25.215C1229.164,313.1,1229.148,313.118,1229.134,313.134Z" transform="translate(-1193.424 -271.154)"/><path class="j" d="M1239.575,424.741a19.277,19.277,0,0,1-4.758,2.677,21.848,21.848,0,0,1-6.4,1.2l-.147-.176a22.625,22.625,0,0,0,6.491-1.192,19.438,19.438,0,0,0,4.7-2.645,10.17,10.17,0,0,0,1.566-1.643c.031.063.062.124.09.185A10.924,10.924,0,0,1,1239.575,424.741Z" transform="translate(-1193.092 -326.283)"/><path class="a" d="M1245.27,404.678l-.172.05c0-.014-.009-.026-.012-.041.046-.065.09-.128.133-.192C1245.234,404.556,1245.252,404.617,1245.27,404.678Z" transform="translate(-1201.515 -317.036)"/><path class="a" d="M1216.044,287.734a1.219,1.219,0,0,0,1.117.088l.056.17a1.863,1.863,0,0,1-.58.1,1.177,1.177,0,0,1-.55-.126l.045-.032-.1-.145c-.032.023-.066.048-.1.079a1.344,1.344,0,0,1-.489-1.1,1.6,1.6,0,0,1,1.707-1.632.871.871,0,0,1,.367.088l-.006,0,.052.074-.029.084a2.6,2.6,0,0,0,.287.077.905.905,0,0,1,.169.668l-.18-.016a.715.715,0,0,0-.158-.575.724.724,0,0,0-.5-.225,1.411,1.411,0,0,0-1.528,1.453A1.163,1.163,0,0,0,1216.044,287.734Z" transform="translate(-1186.669 -257.266)"/><path class="a" d="M1180,299.258c-.019.025-.039.048-.059.071l-.137-.115c.02-.021.038-.045.056-.068Z" transform="translate(-1168.828 -264.282)"/><path class="d" d="M1234.314,280.648c.015-.05.031-.1.045-.151l.172.05c-.005.016-.009.03-.014.047C1234.451,280.613,1234.384,280.631,1234.314,280.648Z" transform="translate(-1196.121 -254.943)"/><path class="j" d="M1250.75,416.453c-.709-1.432-1.444-2.91-1.878-3.89.036-.066.07-.137.1-.21.422.973,1.19,2.523,1.933,4.022.216.434.435.872.645,1.3l-.18-.068-.033.043C1251.149,417.256,1250.947,416.854,1250.75,416.453Z" transform="translate(-1203.411 -320.971)"/><path class="a" d="M1194.75,427.458q-.052-.216-.1-.436a24.09,24.09,0,0,0,10.816,2.785c.427.021.853.034,1.276.034.519,0,1.182-.029,1.719-.065-.154,2.606-.368,5.951-.612,8.963-.063.786-.106,1.472-.147,2.137a42.679,42.679,0,0,1-2.036,11.106c-.083.289-.221.632-.368.995a7.375,7.375,0,0,0-.533,1.645c-.036.295-.072.566-.1.817-.149,1.176-.248,1.953-.3,3.005-.056,1.072-.142,2.136-.259,3.163a54.194,54.194,0,0,1-.911,5.44c-.384,1.752-.826,3.453-1.322,5.332l-.059.224c-.508,1.923-1.032,3.911-1.506,5.877a21.388,21.388,0,0,0-.629,3.734c-.014.282-.031.512-.043.72a12.176,12.176,0,0,0-.009,1.907c.079,1.209.4,2.254,1.925,4.615.4.616,1.037,1.643,1.463,2.337l.077.126a4.3,4.3,0,0,1,.648,1.391,1.189,1.189,0,0,1,.023.223c0,.192-.073.233-.1.246-.106.059-.418.073-1.325-.485a29.907,29.907,0,0,1-2.643-2.1c-.725-.61-1.549-1.3-2.44-2.025-.629-.506-2.541-2.052-1.91-3.345a2.648,2.648,0,0,1,.585-.7,3.233,3.233,0,0,0,.564-.643,7.213,7.213,0,0,0,.656-4.279l-.016-.353c-.093-2.075-.2-4.162-.3-6.18-.056-1.1-.111-2.2-.167-3.3a72.988,72.988,0,0,1-.023-7.325,40.7,40.7,0,0,1,1.42-8.566,14.41,14.41,0,0,0,.356-6.126c-.246-1.53-.477-3.083-.721-4.725-.661-4.428-1.345-9.008-2.438-13.983C1195.1,428.95,1194.93,428.227,1194.75,427.458Z" transform="translate(-1176.258 -328.316)"/><path class="b" d="M1205.915,313.729c.036.052.07.1.108.153a3.365,3.365,0,0,1-.793.268l-.009-.038c.023-.053.047-.107.068-.16A3.355,3.355,0,0,0,1205.915,313.729Z" transform="translate(-1181.552 -271.584)"/><path class="j" d="M1225.191,430.112c.133.158.269.316.407.481q-.113.008-.226.011h0l-.318-.375a33.1,33.1,0,0,1-2.113-2.675c.006-.1.011-.2.015-.295A31.88,31.88,0,0,0,1225.191,430.112Z" transform="translate(-1190.425 -328.435)"/><path class="b" d="M1244.039,373.332a18.9,18.9,0,0,0,.249,3.55c-.071-.086-.147-.174-.224-.259a19,19,0,0,1-.2-3.3c.057-1.867.187-3.541.312-5.16s.255-3.287.313-5.151a39.572,39.572,0,0,1,1.471-10.211c.14-.208.269-.422.389-.643q-.243.733-.449,1.51a.176.176,0,0,1-.025-.032l-.149.1a1.859,1.859,0,0,0,.117.147,41.293,41.293,0,0,0-1.174,9.133c-.057,1.868-.187,3.541-.313,5.16S1244.094,371.468,1244.039,373.332Z" transform="translate(-1200.898 -290.83)"/><path class="a" d="M1208.433,304.211a2.885,2.885,0,0,1-1.407,2.219c-.038-.05-.072-.1-.108-.153a2.681,2.681,0,0,0,1.338-2.093c.016-.109.036-.228.056-.355a10.246,10.246,0,0,0-.156-4.629c.043-.065.088-.129.133-.194a10.347,10.347,0,0,1,.2,4.851C1208.467,303.983,1208.45,304.1,1208.433,304.211Z" transform="translate(-1182.403 -264.212)"/><path class="l" d="M1219.649,285.344l-.016.045-.053-.074.006,0A.253.253,0,0,1,1219.649,285.344Z" transform="translate(-1188.743 -257.354)"/><path class="d" d="M1209.471,298.938a.318.318,0,0,1,.009.034c-.045.065-.09.129-.133.194-.015-.059-.032-.118-.048-.18Z" transform="translate(-1183.595 -264.178)"/><path class="b" d="M1244.54,401.637l.023.127c-.073-.09-.151-.178-.23-.266-.022-.115-.039-.23-.057-.341.077.084.153.172.224.259C1244.513,401.49,1244.526,401.564,1244.54,401.637Z" transform="translate(-1201.11 -315.365)"/><path class="d" d="M1219.9,285.346c-.027.021-.054.041-.081.061a.538.538,0,0,0-.1-.07l.012-.039A1.736,1.736,0,0,0,1219.9,285.346Z" transform="translate(-1188.812 -257.347)"/><path class="b" d="M1232.05,314.9c.042.083.084.165.127.248-.084-.034-.169-.07-.25-.106h0c-.045-.084-.088-.169-.131-.255l.041.018c.068.032.137.064.2.093Z" transform="translate(-1194.861 -272.112)"/><path class="e" d="M1233.7,284.755c0,.113-.008.228-.018.339a2.3,2.3,0,0,1-.045.264,1.815,1.815,0,0,1-.115-.623,5.955,5.955,0,0,1,.043-.729A1.867,1.867,0,0,1,1233.7,284.755Z" transform="translate(-1195.727 -256.7)"/><path class="e" d="M1226.591,285.574l.011.18-.16.009c.007-.059.016-.12.027-.181Z" transform="translate(-1192.179 -257.486)"/><path class="i" d="M1205.357,306.774a5.828,5.828,0,0,0,.6-2.907,6.455,6.455,0,0,1,.528-2.909,8.471,8.471,0,0,1,.891-1.564,10.246,10.246,0,0,1,.156,4.629c-.02.127-.039.246-.056.355a2.681,2.681,0,0,1-1.338,2.093l-.151.079h0A3.354,3.354,0,0,1,1205.357,306.774Z" transform="translate(-1181.621 -264.406)"/><path class="a" d="M1248.875,343.774c0-8.114-3.452-23.243-16.392-28.491l-.052-.022c-.043-.082-.086-.165-.127-.248.081.036.163.07.246.1a24.775,24.775,0,0,1,12.931,12.72,38.187,38.187,0,0,1,3.575,15.936q0,.347.006.693c0,.228,0,.456,0,.682,0,1.952-1.5,5.4-4.574,10.538q-.229.38-.436.727a25.334,25.334,0,0,0-3.041,6.366,6.254,6.254,0,0,1-.332.83l-.016-.038-.165.072-.028-.014a6.122,6.122,0,0,0,.369-.9,25.521,25.521,0,0,1,3.06-6.406c.14-.232.285-.472.436-.725,3.061-5.111,4.55-8.526,4.55-10.446,0-.226,0-.452,0-.681S1248.875,344.006,1248.875,343.774Z" transform="translate(-1195.115 -272.227)"/><path class="b" d="M1228.666,312.607c.036.113.065.219.086.318-.084-.07-.169-.145-.25-.223-.027-.116-.06-.237-.1-.357l.029.03c.074.077.147.153.225.225Z" transform="translate(-1193.163 -270.891)"/><path class="c" d="M1231.879,314.819l.2.093C1232.016,314.883,1231.947,314.852,1231.879,314.819Z" transform="translate(-1194.902 -272.13)"/><path class="h" d="M1222.486,427.415c.05.074.1.146.149.216-.034.621-.076,1.352-.124,2.158-.059,0-.118.009-.18.01.052-.907.1-1.718.135-2.386Z" transform="translate(-1190.121 -328.512)"/><path class="d" d="M1219.591,282.443a8.887,8.887,0,0,0,2.528-2.86c.05.029.1.059.156.086a9.066,9.066,0,0,1-2.436,2.815,1.743,1.743,0,0,1-.173-.048l-.012.039A.252.252,0,0,0,1219.591,282.443Z" transform="translate(-1188.749 -254.485)"/><path class="l" d="M1199.411,484.739a12.161,12.161,0,0,1,.009-1.907c.012-.208.029-.438.043-.72a21.407,21.407,0,0,1,.628-3.734c.474-1.966,1-3.954,1.506-5.877l.059-.224c.5-1.88.938-3.58,1.322-5.332a54.23,54.23,0,0,0,.911-5.44c.116-1.027.2-2.091.259-3.163.054-1.052.152-1.83.3-3.005.032-.252.068-.523.1-.817a7.374,7.374,0,0,1,.533-1.645c.147-.362.286-.705.369-.995a42.679,42.679,0,0,0,2.036-11.106c.041-.665.084-1.35.147-2.137.244-3.012.458-6.357.612-8.963l.18-.012,0-.045c-.154,2.615-.37,5.993-.616,9.035-.064.784-.106,1.47-.147,2.133a42.75,42.75,0,0,1-2.041,11.144,10.691,10.691,0,0,1-.378,1.014,7.233,7.233,0,0,0-.521,1.6c-.036.295-.07.564-.1.817-.151,1.173-.25,1.947-.3,2.991-.054,1.075-.142,2.144-.257,3.174a53.884,53.884,0,0,1-.916,5.458c-.383,1.758-.826,3.458-1.323,5.341l-.057.223c-.508,1.923-1.032,3.909-1.5,5.875a21.623,21.623,0,0,0-.627,3.7c-.012.282-.029.513-.042.722a11.94,11.94,0,0,0-.009,1.883c.077,1.178.391,2.2,1.9,4.528.4.619,1.039,1.646,1.465,2.343l.077.126a4.435,4.435,0,0,1,.671,1.45,1.258,1.258,0,0,1,.027.257.424.424,0,0,1-.189.4.463.463,0,0,1-.221.05,2.906,2.906,0,0,1-1.287-.541,29.826,29.826,0,0,1-2.663-2.113c-.725-.612-1.548-1.3-2.438-2.023-.657-.53-2.652-2.142-1.959-3.562a2.807,2.807,0,0,1,.623-.75,2.978,2.978,0,0,0,.535-.605,7.085,7.085,0,0,0,.628-4.176l-.016-.355c-.093-2.075-.2-4.16-.3-6.178-.057-1.1-.113-2.2-.167-3.306a72.834,72.834,0,0,1-.025-7.341,40.993,40.993,0,0,1,1.426-8.6,14.241,14.241,0,0,0,.353-6.051c-.248-1.531-.479-3.084-.723-4.727-.661-4.425-1.343-9-2.437-13.971-.152-.693-.321-1.417-.5-2.184-.045-.192-.09-.384-.134-.58l.208.1q.051.221.1.436c.179.768.348,1.492.5,2.187,1.093,4.975,1.777,9.555,2.438,13.983.244,1.643.476,3.2.722,4.725a14.408,14.408,0,0,1-.356,6.126,40.7,40.7,0,0,0-1.42,8.566,72.99,72.99,0,0,0,.024,7.325c.055,1.106.111,2.205.167,3.3.1,2.018.21,4.1.3,6.18l.016.353a7.213,7.213,0,0,1-.656,4.279,3.232,3.232,0,0,1-.564.643,2.648,2.648,0,0,0-.585.7c-.63,1.293,1.281,2.839,1.91,3.345.891.721,1.715,1.415,2.44,2.025a29.874,29.874,0,0,0,2.643,2.1c.907.558,1.219.544,1.325.485.023-.013.1-.054.1-.246a1.187,1.187,0,0,0-.023-.223,4.3,4.3,0,0,0-.648-1.391l-.077-.126c-.426-.695-1.065-1.722-1.463-2.337C1199.809,486.992,1199.49,485.947,1199.411,484.739Z" transform="translate(-1176.049 -328.213)"/><path class="e" d="M1221.736,285.72a8.543,8.543,0,0,1-1.672-.127c-.011-.015-.023-.029-.036-.043a.727.727,0,0,0-.1-.093c.027-.02.054-.039.081-.061a12.275,12.275,0,0,0,3.2.1c-.01.061-.02.122-.027.181Q1222.376,285.719,1221.736,285.72Z" transform="translate(-1188.916 -257.396)"/><path class="a" d="M1179.831,271.787c.063.063.125.127.187.192a5.306,5.306,0,0,1-3.14-1.2c-1.07-.874-3.214-2.569-5.482-4.363-2.526-2-5.136-4.061-6.587-5.246-.584-.476,0-2.246.642-3.916.039-.1.074-.188.1-.26.208-.557.438-1.216.659-1.853.285-.817.58-1.661.838-2.317.729-1.851,1.3-3.447,1.905-5.138.341-.952.693-1.936,1.086-3l1.839-4.977a15.567,15.567,0,0,1,2.433-4.413,2.779,2.779,0,0,0,.53-.979,1.266,1.266,0,0,0-.012-.533,1.918,1.918,0,0,1,0-.813,8.29,8.29,0,0,1,.84-2.1,1.3,1.3,0,0,0,.234-1.023.568.568,0,0,0-.4-.316c-.765-.239-2.65.239-4.312,3.742l-.009.018a8.055,8.055,0,0,0-.662,1.808,22.459,22.459,0,0,1-2.862,7.3c-1.775,3.311-2.082,3.823-2.693,4.843-.28.466-.629,1.05-1.214,2.061-5.086,8.781-5.948,14.62-5.738,14.947a45.962,45.962,0,0,0,5.687,6.25l-.033.034-.173-.047c0,.018-.008.036-.014.052a45.613,45.613,0,0,1-5.612-6.183c-.338-.458.688-6.442,5.727-15.144.587-1.011.936-1.595,1.217-2.063.609-1.016.914-1.526,2.688-4.833a22.317,22.317,0,0,0,2.844-7.255,8.327,8.327,0,0,1,.675-1.846l.009-.02c1.716-3.614,3.712-4.09,4.528-3.837a.748.748,0,0,1,.512.422,1.443,1.443,0,0,1-.244,1.176,8.123,8.123,0,0,0-.821,2.054,1.718,1.718,0,0,0,0,.741,1.45,1.45,0,0,1,.011.605,2.934,2.934,0,0,1-.558,1.041,15.455,15.455,0,0,0-2.41,4.366l-1.84,4.982c-.393,1.059-.745,2.043-1.084,2.994-.605,1.691-1.178,3.29-1.909,5.142-.256.652-.551,1.5-.835,2.311-.223.638-.452,1.3-.662,1.857l-.1.262c-.343.89-1.257,3.253-.7,3.711.938.767,2.359,1.9,3.929,3.142-.018.023-.036.046-.056.068l.137.115c.02-.023.04-.046.059-.071.817.648,1.672,1.323,2.517,1.991,2.27,1.8,4.413,3.49,5.483,4.364A5.1,5.1,0,0,0,1179.831,271.787Z" transform="translate(-1157.813 -229.312)"/><path class="b" d="M1221.3,393.53c-5.007-5.525-21.008-7.85-23.017-8.119.045-.056.088-.111.131-.167,2.005.25,17.8,2.375,22.828,7.945C1221.265,393.3,1221.283,393.415,1221.3,393.53Z" transform="translate(-1178.081 -307.396)"/><path class="a" d="M1230.856,288.009a4.131,4.131,0,0,1-1.754-1.9,2.3,2.3,0,0,0,.045-.264c.01-.111.018-.226.018-.339h0c.015.972,1.013,1.9,1.869,2.4l.09.052-.065.081c-.129.162-.253.3-.373.436a2.1,2.1,0,0,0-.734,1.562,10.9,10.9,0,0,0,.142,1.441,12.117,12.117,0,0,1,.151,1.591c0,1.129-.447,1.765-1.3,1.853,0-.023.006-.048.009-.072l-.178-.023c-.005.036-.009.072-.015.106h-.027a6.919,6.919,0,0,1-1.72-.67,7.631,7.631,0,0,0-1.646-.655.774.774,0,0,0-.617.192c-.178.212-.12.611-.023,1.151a7.6,7.6,0,0,0,1.7,3.952c.037.12.07.241.1.357a7.4,7.4,0,0,1-1.971-4.277c-.09-.494-.183-1.005.061-1.3a.934.934,0,0,1,.756-.257,7,7,0,0,1,1.722.671,7.537,7.537,0,0,0,1.645.654c.88,0,1.327-.566,1.327-1.684a11.927,11.927,0,0,0-.149-1.566,11.112,11.112,0,0,1-.144-1.467,2.273,2.273,0,0,1,.781-1.682C1230.651,288.248,1230.752,288.135,1230.856,288.009Z" transform="translate(-1191.187 -257.451)"/><path class="a" d="M1227.19,280.277a9.4,9.4,0,0,0-.35,1.6,1.014,1.014,0,0,0-.156-.26,1.11,1.11,0,0,0-.724-.379l-.328-.046a4.837,4.837,0,0,0-1.115-.061,1.116,1.116,0,0,0-.759.361,2.4,2.4,0,0,0-.47,1.176,12.276,12.276,0,0,1-3.2-.1,9.065,9.065,0,0,0,2.436-2.815,6.582,6.582,0,0,0,3.052.7A6.771,6.771,0,0,0,1227.19,280.277Z" transform="translate(-1188.997 -254.572)"/><path class="a" d="M1219.71,285.54c.022-.016.043-.032.066-.048a.736.736,0,0,1,.1.093c.012.014.025.028.036.043a2.594,2.594,0,0,1-.287-.077l.029-.084Z" transform="translate(-1188.767 -257.432)"/><path class="g" d="M1248.46,352.067a.106.106,0,0,1-.008.019c-.12.221-.25.435-.389.643.071-.243.147-.481.226-.718Z" transform="translate(-1203.006 -290.754)"/><path class="b" d="M1197.874,385.359l.035-.047c.016-.021.035-.043.05-.064l.043-.054.209.025c-.043.056-.086.111-.131.167Z" transform="translate(-1177.874 -307.371)"/><path class="d" d="M1170.169,314.86a2.249,2.249,0,0,1-1.144-2.947c.048.048.1.1.149.14a2.061,2.061,0,0,0,1.093,2.655c.555.366,1.129.743,1.129,1.592a3.889,3.889,0,0,1-.662,1.9,4.682,4.682,0,0,0-.783,2.388c0,2.584,2.875,6.321,8.071,6.321a17.326,17.326,0,0,0,6.842-1.361c.05.043.1.086.149.133a17.533,17.533,0,0,1-6.991,1.408c-5.311,0-8.25-3.844-8.25-6.5a4.9,4.9,0,0,1,.8-2.476,3.745,3.745,0,0,0,.641-1.81C1171.217,315.549,1170.73,315.229,1170.169,314.86Z" transform="translate(-1163.354 -270.675)"/><path class="a" d="M1241.38,404.881a26.231,26.231,0,0,1-1.81,2.279,2.761,2.761,0,0,0-.621.923,1.3,1.3,0,0,0-.04.535,1.9,1.9,0,0,1-.079.808,8.294,8.294,0,0,1-1.036,2.009,1.291,1.291,0,0,0-.333.994.571.571,0,0,0,.365.353c.74.311,2.663.016,4.652-3.311l.011-.018c.133-.221.3-.5.463-.833l.028.014.077.176c-.147.289-.3.537-.415.736l-.011.018c-1.657,2.77-3.3,3.489-4.289,3.489a1.5,1.5,0,0,1-.585-.106.743.743,0,0,1-.469-.467,1.447,1.447,0,0,1,.355-1.149,8.1,8.1,0,0,0,1.014-1.965,1.744,1.744,0,0,0,.072-.739,1.434,1.434,0,0,1,.046-.6,2.914,2.914,0,0,1,.655-.984,26.631,26.631,0,0,0,1.734-2.172c0,.014.009.027.012.041l.172-.05Z" transform="translate(-1197.598 -317.219)"/><path class="j" d="M1194.385,426.685l-.208-.1-.054-.234.208.1Z" transform="translate(-1175.995 -327.979)"/><path class="a" d="M1249.009,344.717c0,.228,0,.454,0,.681,0,1.92-1.488,5.334-4.55,10.446-.151.253-.3.494-.436.725a25.517,25.517,0,0,0-3.06,6.406,6.122,6.122,0,0,1-.369.9c-.162.33-.331.613-.463.833l-.011.018c-1.989,3.327-3.912,3.622-4.652,3.311a.57.57,0,0,1-.364-.353,1.29,1.29,0,0,1,.332-.995,8.3,8.3,0,0,0,1.036-2.009,1.906,1.906,0,0,0,.079-.808,1.3,1.3,0,0,1,.039-.535,2.76,2.76,0,0,1,.621-.923,26.229,26.229,0,0,0,1.81-2.279,9.667,9.667,0,0,0,1.038-1.887l1.469-3.823c.619-1.609,1.291-3.169,1.65-4.007.134-.311.232-.535.275-.646l.172-.425a8.619,8.619,0,0,0,.862-3.291,14.434,14.434,0,0,0-3.927-10.367c-.142-.156-.257-.284-.323-.372h0q.208-.778.449-1.51a9.646,9.646,0,0,0,1.172-4.5c.07-3.716-1.918-5.544-4.219-7.661a22.1,22.1,0,0,1-5.083-6.142l.052.022c12.94,5.248,16.392,20.378,16.392,28.491Q1249,344.37,1249.009,344.717Z" transform="translate(-1195.242 -272.476)"/><path class="a" d="M1250.9,365.929a8.619,8.619,0,0,1-.862,3.291l-.172.425c-.043.111-.14.335-.275.646-.359.839-1.031,2.4-1.65,4.007l-1.469,3.823a9.675,9.675,0,0,1-1.038,1.887l-.027-.019c-.018-.061-.036-.122-.052-.183a9.446,9.446,0,0,0,.95-1.75l1.468-3.821c.62-1.613,1.291-3.174,1.654-4.014.131-.307.228-.53.272-.641.057-.144.116-.286.174-.427a8.517,8.517,0,0,0,.848-3.223,14.266,14.266,0,0,0-3.88-10.247c-.1-.109-.183-.2-.248-.278.018-.072.037-.144.057-.214.067.088.181.216.323.372A14.434,14.434,0,0,1,1250.9,365.929Z" transform="translate(-1201.648 -292.346)"/><path class="a" d="M1169.321,312c-.05-.045-.1-.092-.149-.14.005-.016.009-.034.014-.052l.173.047C1169.344,311.906,1169.332,311.954,1169.321,312Z" transform="translate(-1163.501 -270.623)"/><path class="j" d="M1194.639,385.589a18.02,18.02,0,0,0-2.6,5.036c-1.668,4.474-.391,10.438.758,15.381l-.208-.1.054.234c-1.16-4.986-2.467-11.026-.772-15.577a18.265,18.265,0,0,1,2.591-5.038l.206.027C1194.658,385.564,1194.649,385.577,1194.639,385.589Z" transform="translate(-1174.461 -307.536)"/><path class="b" d="M1232.309,315.4a22.1,22.1,0,0,0,5.083,6.142c2.3,2.117,4.29,3.945,4.219,7.661a9.644,9.644,0,0,1-1.172,4.5.116.116,0,0,0,.007-.019l-.171-.056a9.488,9.488,0,0,0,1.156-4.424c.068-3.634-1.8-5.352-4.162-7.526a23.576,23.576,0,0,1-5.211-6.379C1232.14,315.333,1232.224,315.369,1232.309,315.4Z" transform="translate(-1194.992 -272.369)"/><path class="h" d="M1222.5,432.172c0,.041,0,.082-.007.125l0,.045-.18.012c0-.059.007-.116.01-.172C1222.382,432.181,1222.441,432.176,1222.5,432.172Z" transform="translate(-1190.11 -330.895)"/></g><path class="m" d="M995.2,309.422a11.822,11.822,0,0,0-2.566,8.724,9.413,9.413,0,0,0,2.454,5.225c-.03.052-.057.1-.084.156a9.736,9.736,0,0,1-2.548-5.359,11.557,11.557,0,0,1,2.483-8.717l.094-.009C995.091,309.436,995.147,309.43,995.2,309.422Z" transform="translate(-960.955 -266.342)"/><path class="m" d="M965.51,312.893a8.551,8.551,0,0,0,6.921-4.4,4.4,4.4,0,0,0,2.039.241,11.557,11.557,0,0,0-2.483,8.717,9.735,9.735,0,0,0,2.548,5.359,10.668,10.668,0,0,0-.939,2.623h-.005a.066.066,0,0,0,0,.019,17.129,17.129,0,0,0-.174,5.988,23.493,23.493,0,0,0,5.6,12.234c-1.979.384-17.62,3.607-22.238,9.523a17.954,17.954,0,0,0-.011-3.316c-.187-1.86-.432-3.521-.669-5.128s-.483-3.262-.67-5.117a39.6,39.6,0,0,0-2.173-10.085,8.594,8.594,0,0,0,2.236,2.037l.095-.151a8.49,8.49,0,0,1-2.605-2.582l0-.005h0a9.494,9.494,0,0,1-1.458-4.332c-.3-3.379,1.46-5.336,3.686-7.812a23.464,23.464,0,0,0,5.409-8.494,2.519,2.519,0,0,0,.984-.226,7.526,7.526,0,0,0-.111,2.461,3.177,3.177,0,0,0,3.4,2.485A5.261,5.261,0,0,0,965.51,312.893Z" transform="translate(-940.484 -265.622)"/><path class="d" d="M997.863,337.5a.33.33,0,0,0-.016.03l-.068.126c-.045-.045-.088-.09-.129-.136.027-.052.054-.1.084-.156C997.775,337.408,997.818,337.453,997.863,337.5Z" transform="translate(-963.597 -280.333)"/><path class="a" d="M974.122,284.783c.015-.059.031-.116.047-.174a.7.7,0,0,1,.084.008l-.031.176C974.188,284.788,974.154,284.785,974.122,284.783Z" transform="translate(-951.816 -253.916)"/><path class="d" d="M995.768,340.3a10.663,10.663,0,0,1,.939-2.623c.041.046.084.091.129.136l.068-.126a10.454,10.454,0,0,0-.961,2.639.184.184,0,0,1,0-.032Z" transform="translate(-962.656 -280.489)"/><path class="d" d="M1006.981,379.542l-.206.039c-.047-.05-.093-.1-.138-.155.124-.025.194-.037.2-.039l.064.07c.013.012.023.027.036.039l0,0Z" transform="translate(-968.098 -301.377)"/><path class="h" d="M985.979,427.94c.009.061.018.124.023.185l-.178.009c-.009-.065-.016-.129-.025-.194Z" transform="translate(-957.664 -325.69)"/><path class="a" d="M983.993,278.885a5.725,5.725,0,0,1,.041.7,9.934,9.934,0,0,1-.574,3.038,14.914,14.914,0,0,1-1.814,3.9,6.858,6.858,0,0,1-4.005,2.95,2.207,2.207,0,0,1-1.718-.348,3.651,3.651,0,0,1-1.154-1.282,8.1,8.1,0,0,1-.885-2.593,14.992,14.992,0,0,1-.237-3.327,11.229,11.229,0,0,1,1.923-6.111,6.044,6.044,0,0,1,4.272-2.553,1.471,1.471,0,0,1,.172-.011c.9,0,1.37.914,1.907,1.963.138.269.282.55.438.822.275.485.566.939.823,1.341A5.528,5.528,0,0,1,983.993,278.885Z" transform="translate(-951.572 -248.225)"/><path class="h" d="M982.715,413a11.04,11.04,0,0,0-1.954-5.729l.142-.109a11.2,11.2,0,0,1,1.991,5.821c.01.122.021.226.032.311.026.212.108.889.23,1.88l-.018,0-.154-.09c0,.009-.01.016-.014.025-.116-.944-.2-1.589-.221-1.8C982.737,413.224,982.727,413.121,982.715,413Z" transform="translate(-955.141 -315.283)"/><path class="a" d="M952.8,223.985a1.276,1.276,0,0,1-.389.973,8.331,8.331,0,0,0-1.153,1.947,1.884,1.884,0,0,0-.127.8,1.273,1.273,0,0,1-.072.532,2.766,2.766,0,0,1-.674.883,15.547,15.547,0,0,0-3.086,3.984l-2.587,4.633c-.551.987-1.052,1.9-1.537,2.792-.858,1.576-1.67,3.066-2.677,4.781-.357.607-.778,1.395-1.185,2.156-.318.6-.648,1.214-.941,1.732-.038.065-.084.147-.138.241-.9,1.55-1.743,3.208-1.241,3.769.9,1,2.349,2.544,3.885,4.18,2.539,2.7,5.417,5.761,6.548,7.178a3.1,3.1,0,0,0,2.133,1.324,23.023,23.023,0,0,1-5.343,8.381c-.234.26-.463.515-.689.77-.056-1.661-2.8-5.011-5.945-8.942-2.826-3.524-6.029-7.521-7.778-10.891-.158-.357,1.6-5.993,7.982-13.881.734-.909,1.169-1.429,1.519-1.849.759-.912,1.142-1.37,3.409-4.366a22.424,22.424,0,0,0,3.956-6.771,8.225,8.225,0,0,1,.935-1.684l.013-.016c2.183-3.205,4.121-3.382,4.839-3.029A.565.565,0,0,1,952.8,223.985Z" transform="translate(-929.617 -223.307)"/><path class="a" d="M987.439,433.468c-.452-2.984-.9-6.3-1.233-8.891l.082-.006a27.2,27.2,0,0,0,13.505-3.716c-.023.153-.048.3-.072.452-.125.777-.244,1.512-.348,2.214-.747,5.04-1.112,9.654-1.463,14.116-.129,1.657-.253,3.223-.393,4.767a14.439,14.439,0,0,0,.781,6.088,40.71,40.71,0,0,1,2.01,8.445,72.686,72.686,0,0,1,.483,7.309c.023,1.1.043,2.194.063,3.287.037,2.027.075,4.123.127,6.207l.007.353a7.238,7.238,0,0,0,.95,4.223,3.219,3.219,0,0,0,.609.6,2.684,2.684,0,0,1,.632.655c.719,1.246-1.081,2.919-1.673,3.469-.84.781-1.612,1.53-2.295,2.19a29.932,29.932,0,0,1-2.49,2.277c-.824.589-1.156.638-1.289.577-.025-.012-.1-.048-.115-.241a1.283,1.283,0,0,1,.009-.225,4.3,4.3,0,0,1,.551-1.432l.067-.129c.377-.722.943-1.79,1.3-2.435,1.357-2.46,1.6-3.524,1.6-4.736a12.176,12.176,0,0,0-.14-1.9c-.027-.207-.059-.436-.091-.716a21.679,21.679,0,0,0-.887-3.681c-.609-1.926-1.269-3.871-1.909-5.752l-.075-.224c-.627-1.841-1.185-3.5-1.687-5.229a54.318,54.318,0,0,1-1.288-5.364c-.185-1.012-.346-2.068-.476-3.138-.127-1.045-.28-1.812-.51-2.973-.05-.251-.1-.519-.16-.81a7.341,7.341,0,0,0-.646-1.605c-.172-.352-.334-.684-.436-.966a42.592,42.592,0,0,1-2.8-10.939C987.648,434.93,987.556,434.248,987.439,433.468Z" transform="translate(-957.867 -322.143)"/><path class="a" d="M992.109,452.767c.129,1.07.291,2.126.476,3.138a54.3,54.3,0,0,0,1.288,5.364c.5,1.724,1.061,3.388,1.687,5.229l.075.224c.64,1.882,1.3,3.826,1.909,5.752a21.688,21.688,0,0,1,.887,3.681c.032.28.064.51.091.716a12.169,12.169,0,0,1,.14,1.9c.005,1.212-.241,2.277-1.6,4.736-.357.645-.923,1.713-1.3,2.435l-.066.129a4.3,4.3,0,0,0-.551,1.432,1.289,1.289,0,0,0-.009.225c.014.192.09.228.115.241.133.061.465.012,1.289-.577a29.931,29.931,0,0,0,2.49-2.277c.682-.661,1.454-1.409,2.294-2.19.593-.55,2.392-2.223,1.674-3.469a2.687,2.687,0,0,0-.632-.656,3.219,3.219,0,0,1-.609-.6,7.237,7.237,0,0,1-.95-4.223l-.008-.353c-.052-2.084-.09-4.18-.127-6.207-.02-1.093-.039-2.187-.063-3.287a72.668,72.668,0,0,0-.483-7.309,40.705,40.705,0,0,0-2.009-8.445,14.437,14.437,0,0,1-.781-6.088c.14-1.544.264-3.11.393-4.767.351-4.462.716-9.076,1.463-14.116.1-.7.223-1.436.348-2.214.023-.149.048-.3.072-.452l.2-.115c-.032.2-.064.4-.1.6-.126.778-.244,1.51-.348,2.212-.743,5.032-1.108,9.643-1.46,14.1-.131,1.657-.255,3.225-.395,4.768a14.263,14.263,0,0,0,.772,6.013,40.911,40.911,0,0,1,2.018,8.483,72.571,72.571,0,0,1,.485,7.327q.034,1.651.062,3.289c.038,2.025.076,4.12.128,6.2l.007.355a7.094,7.094,0,0,0,.918,4.124,3.147,3.147,0,0,0,.576.565,2.848,2.848,0,0,1,.673.7c.788,1.37-1.09,3.117-1.707,3.689-.838.779-1.611,1.528-2.291,2.187a29.881,29.881,0,0,1-2.512,2.295,2.714,2.714,0,0,1-1.289.63.4.4,0,0,1-.18-.038.418.418,0,0,1-.217-.389,1.281,1.281,0,0,1,.009-.257,4.462,4.462,0,0,1,.569-1.5l.068-.129c.375-.723.943-1.792,1.3-2.438,1.339-2.425,1.582-3.468,1.577-4.648a12.08,12.08,0,0,0-.138-1.88c-.029-.206-.059-.436-.093-.718a21.453,21.453,0,0,0-.88-3.648c-.607-1.925-1.268-3.867-1.905-5.747l-.077-.226c-.627-1.842-1.185-3.508-1.69-5.236a54.239,54.239,0,0,1-1.29-5.383c-.187-1.016-.349-2.075-.478-3.149-.125-1.038-.278-1.8-.508-2.959-.05-.251-.1-.519-.16-.812a7.226,7.226,0,0,0-.632-1.56,10.5,10.5,0,0,1-.444-.984,42.719,42.719,0,0,1-2.81-10.977c-.086-.657-.178-1.339-.295-2.117-.452-2.991-.9-6.318-1.233-8.909l.178-.009c.335,2.589.781,5.907,1.233,8.891.117.779.209,1.462.295,2.12a42.588,42.588,0,0,0,2.8,10.939c.1.282.264.614.436.966a7.341,7.341,0,0,1,.647,1.605c.055.291.109.559.16.81C991.829,450.956,991.981,451.722,992.109,452.767Z" transform="translate(-957.689 -322.027)"/><path class="a" d="M994.3,290.22a.906.906,0,0,1-.569.2h-.054c.02-.057.038-.117.057-.178a.739.739,0,0,0,.454-.158.631.631,0,0,0,.246-.414.757.757,0,0,0-.357-.724c.012-.061.025-.122.036-.183a.936.936,0,0,1,.5.925A.813.813,0,0,1,994.3,290.22Z" transform="translate(-961.607 -255.994)"/><path class="m" d="M995.409,348.932a23.3,23.3,0,0,0,5.695,12.288l-.064-.07c-.011,0-.081.014-.2.039a23.494,23.494,0,0,1-5.6-12.234,17.133,17.133,0,0,1,.174-5.988,4.558,4.558,0,0,0,.057.612A17.473,17.473,0,0,0,995.409,348.932Z" transform="translate(-962.297 -283.14)"/><path class="h" d="M985.2,423.028l.154.09c-.044.075-.088.151-.133.224-.012-.1-.025-.2-.036-.289C985.188,423.044,985.194,423.037,985.2,423.028Z" transform="translate(-957.356 -323.23)"/><path class="j" d="M1009.89,384.618a18.085,18.085,0,0,0-2.944-4.846l-.032-.036.206-.039a18.392,18.392,0,0,1,2.934,4.847c1.975,4.354,1.149,10.351.346,15.358-.066.039-.133.077-.2.115C1011,395,1011.863,388.967,1009.89,384.618Z" transform="translate(-968.236 -301.532)"/><path class="m" d="M997.519,309.246c.054-.066.11-.133.165-.2l.111-.014a.332.332,0,0,0,.043-.008l.113-.014q-.086.1-.172.2c-.055.008-.111.014-.167.02Z" transform="translate(-963.532 -266.137)"/><path class="h" d="M985.527,425.568c-.1-.8-.194-1.522-.271-2.138.045-.073.088-.149.133-.224l.018,0c.085.662.185,1.467.3,2.364Z" transform="translate(-957.392 -323.318)"/><path class="j" d="M980.1,430.285c.045-.063.089-.124.135-.185.073,0,.149,0,.224-.005-.045.061-.09.122-.133.183Z" transform="translate(-954.808 -326.769)"/><path class="j" d="M980.883,426.182l-.293.4c-.075,0-.151.005-.224.005.125-.174.251-.343.373-.51a32.125,32.125,0,0,0,2.032-3c.011.093.023.189.036.289A33.345,33.345,0,0,1,980.883,426.182Z" transform="translate(-954.943 -323.255)"/><path class="a" d="M1006.087,228.9a22.345,22.345,0,0,0,3.339,7.038c2,3.176,2.339,3.664,3.018,4.635.313.449.7,1.005,1.355,1.975,5.633,8.332,7.069,14.231,6.763,14.712a48.147,48.147,0,0,1-5.969,7.408c-.009-.018-.016-.036-.026-.054l-.163.074-.039-.038a48.474,48.474,0,0,0,6.047-7.487c.187-.341-1.079-6.106-6.761-14.514-.654-.968-1.041-1.525-1.354-1.972-.681-.975-1.021-1.465-3.021-4.643a22.39,22.39,0,0,1-3.361-7.086,8.12,8.12,0,0,0-.788-1.76l-.009-.016c-1.9-3.379-3.814-3.724-4.561-3.433a.568.568,0,0,0-.375.343,1.3,1.3,0,0,0,.305,1,8.311,8.311,0,0,1,.982,2.036,1.913,1.913,0,0,1,.059.812,1.279,1.279,0,0,0,.023.533,2.793,2.793,0,0,0,.6.939,15.516,15.516,0,0,1,2.734,4.241l2.178,4.831c.467,1.032.887,1.989,1.293,2.918.72,1.643,1.4,3.194,2.255,4.989.3.634.655,1.454.994,2.248.266.621.542,1.266.79,1.808.03.068.072.154.117.253.759,1.62,1.461,3.345.912,3.86-.664.625-1.589,1.476-2.637,2.436l-.034-.036a.815.815,0,0,0-.05-.129c1.034-.947,1.944-1.785,2.6-2.4.528-.5-.548-2.79-.952-3.654-.047-.1-.086-.185-.119-.255-.248-.544-.524-1.189-.791-1.812-.339-.792-.689-1.611-.991-2.241-.857-1.8-1.537-3.35-2.259-4.995-.405-.926-.826-1.885-1.291-2.916l-2.18-4.837a15.4,15.4,0,0,0-2.707-4.194,2.884,2.884,0,0,1-.629-1,1.45,1.45,0,0,1-.032-.6,1.758,1.758,0,0,0-.05-.741,8.151,8.151,0,0,0-.963-1.989,1.444,1.444,0,0,1-.325-1.158.755.755,0,0,1,.479-.456c.8-.309,2.823.027,4.783,3.514l.01.016A8.319,8.319,0,0,1,1006.087,228.9Z" transform="translate(-964.764 -223.308)"/><path class="m" d="M971.65,310.321c.162,1.334,1.635,2.557,3.817,2.29a8.366,8.366,0,0,0,6.785-4.292c.05.025.1.047.158.068a8.551,8.551,0,0,1-6.921,4.4,5.261,5.261,0,0,1-.614.038,3.177,3.177,0,0,1-3.4-2.485,7.524,7.524,0,0,1,.111-2.461,2.05,2.05,0,0,0,.208-.1A8.288,8.288,0,0,0,971.65,310.321Z" transform="translate(-950.462 -265.519)"/><path class="a" d="M973.961,302.712a3.19,3.19,0,0,1-.979,1.829,3.9,3.9,0,0,1-.817.587c.018-.081.036-.158.054-.235a3.946,3.946,0,0,0,.641-.485,3.2,3.2,0,0,0,.97-1.923C973.871,302.564,973.916,302.64,973.961,302.712Z" transform="translate(-950.837 -262.868)"/><path class="a" d="M946.492,228.165a22.426,22.426,0,0,1-3.956,6.771c-2.268,3-2.65,3.454-3.409,4.366-.351.42-.785.941-1.519,1.849-6.384,7.888-8.14,13.523-7.982,13.881,1.749,3.37,4.952,7.366,7.778,10.891,3.149,3.931,5.889,7.281,5.945,8.941l-.182.208c-.005-1.582-2.745-5.1-5.9-9.036-2.831-3.532-6.04-7.535-7.8-10.923-.262-.5,1.677-6.257,8-14.074.736-.909,1.171-1.431,1.521-1.851.757-.91,1.14-1.366,3.4-4.359a22.3,22.3,0,0,0,3.932-6.727,8.248,8.248,0,0,1,.955-1.72l.011-.018c2.253-3.305,4.3-3.465,5.067-3.088a.741.741,0,0,1,.439.5,1.44,1.44,0,0,1-.423,1.124,8.075,8.075,0,0,0-1.128,1.9,1.719,1.719,0,0,0-.115.733,1.439,1.439,0,0,1-.084.6,2.919,2.919,0,0,1-.711.943,15.37,15.37,0,0,0-3.056,3.941l-2.591,4.637c-.551.986-1.05,1.9-1.535,2.79-.86,1.578-1.672,3.069-2.68,4.787-.353.6-.774,1.39-1.181,2.149-.318.6-.649,1.215-.943,1.736-.038.066-.084.149-.14.243-.477.826-1.745,3.02-1.262,3.56.894,1,2.346,2.541,3.884,4.176,2.54,2.7,5.422,5.765,6.557,7.187a2.924,2.924,0,0,0,2.007,1.257c.034,0,.07,0,.106,0h-.061l-.059.176a3.1,3.1,0,0,1-2.133-1.324c-1.131-1.416-4.01-4.478-6.548-7.178-1.537-1.636-2.99-3.18-3.885-4.18-.5-.561.344-2.219,1.241-3.769.054-.093.1-.176.138-.241.292-.519.623-1.136.94-1.732.407-.761.828-1.55,1.185-2.156,1.007-1.715,1.819-3.205,2.677-4.781.485-.887.986-1.8,1.537-2.792l2.587-4.633a15.546,15.546,0,0,1,3.086-3.984,2.766,2.766,0,0,0,.674-.883,1.275,1.275,0,0,0,.072-.532,1.882,1.882,0,0,1,.127-.8,8.331,8.331,0,0,1,1.153-1.947,1.276,1.276,0,0,0,.389-.973.565.565,0,0,0-.343-.373c-.718-.353-2.655-.176-4.839,3.029l-.013.016A8.228,8.228,0,0,0,946.492,228.165Z" transform="translate(-929.443 -223.131)"/><path class="a" d="M1010.03,242.829c5.682,8.408,6.948,14.173,6.761,14.514a48.471,48.471,0,0,1-6.047,7.487c-1.941,2.032-4.12,4.129-6.528,6.446-2.33,2.244-4.973,4.788-7.763,7.634a7.287,7.287,0,0,0-1.174,1.605,9.413,9.413,0,0,1-2.454-5.225,11.822,11.822,0,0,1,2.566-8.724,5.3,5.3,0,0,0,3.038-1.409c1.005-.945,3.023-2.781,5.16-4.727,1.223-1.113,2.469-2.246,3.575-3.259,1.048-.961,1.973-1.811,2.637-2.436.55-.515-.152-2.241-.912-3.86-.045-.1-.086-.185-.117-.253-.248-.542-.524-1.187-.79-1.808-.339-.794-.691-1.614-.995-2.248-.855-1.8-1.535-3.346-2.255-4.989-.405-.928-.826-1.885-1.293-2.918l-2.178-4.831a15.516,15.516,0,0,0-2.734-4.241,2.792,2.792,0,0,1-.6-.939,1.279,1.279,0,0,1-.023-.533,1.912,1.912,0,0,0-.059-.812,8.31,8.31,0,0,0-.982-2.036,1.3,1.3,0,0,1-.305-1,.568.568,0,0,1,.375-.343c.747-.291,2.659.054,4.561,3.433l.009.016a8.122,8.122,0,0,1,.788,1.76,22.388,22.388,0,0,0,3.361,7.086c2,3.178,2.341,3.668,3.021,4.643C1008.988,241.3,1009.376,241.861,1010.03,242.829Z" transform="translate(-961.142 -223.485)"/><path class="a" d="M975.681,302.465c-.016.075-.032.147-.05.218-.045-.072-.09-.147-.131-.227l.006-.028Z" transform="translate(-952.506 -262.839)"/><path class="a" d="M973.64,287.717l-.027.178a.688.688,0,0,1-.091-.019c.007-.059.016-.119.025-.178A.733.733,0,0,0,973.64,287.717Z" transform="translate(-951.516 -255.463)"/><path class="k" d="M967.079,404.9c-5.444.133-10.593-1.718-13.247-4.689a62.387,62.387,0,0,1,3.205-7.426,9.789,9.789,0,0,0,.885-3.3c4.334-6.011,20.385-9.316,22.41-9.713l.032.036a18.085,18.085,0,0,1,2.944,4.846c1.974,4.348,1.115,10.386.311,15.4a24.626,24.626,0,0,1-10.658,3.587,26.477,26.477,0,0,1-2.991.178c-.115-.9-.215-1.7-.3-2.364-.122-.991-.2-1.668-.23-1.88-.011-.084-.021-.189-.032-.311a11.2,11.2,0,0,0-1.991-5.821l-.142.109a11.039,11.039,0,0,1,1.953,5.729c.012.124.023.228.034.314.025.206.1.851.221,1.8a32.1,32.1,0,0,1-2.032,3C967.33,404.56,967.2,404.728,967.079,404.9Z" transform="translate(-941.656 -301.572)"/><path class="c" d="M1007.251,379.611l.041.043h0Z" transform="translate(-968.406 -301.489)"/><path class="j" d="M953.778,420.712c2.654,2.971,7.8,4.822,13.247,4.689-.045.061-.09.122-.135.185-.225.006-.458.009-.668.009-5.227,0-9.918-1.839-12.5-4.735C953.741,420.812,953.759,420.762,953.778,420.712Z" transform="translate(-941.602 -322.071)"/><path class="j" d="M956.9,402.441a62.4,62.4,0,0,0-3.205,7.426c-.048-.05-.093-.1-.136-.153a62.913,62.913,0,0,1,3.182-7.356,9.652,9.652,0,0,0,.874-3.3l.011,0,.145.1a.143.143,0,0,1,.015-.018A9.789,9.789,0,0,1,956.9,402.441Z" transform="translate(-941.519 -311.226)"/><path class="a" d="M972.489,286.033a.857.857,0,0,1-.133-.645.881.881,0,0,1,.921-.782c-.016.057-.032.115-.047.174a.71.71,0,0,0-.7.641.674.674,0,0,0,.1.508.561.561,0,0,0,.32.219c-.009.059-.018.118-.025.178A.742.742,0,0,1,972.489,286.033Z" transform="translate(-950.924 -253.913)"/><path class="d" d="M961.9,398.541c-.009.115-.021.23-.034.344a.153.153,0,0,0-.015.018l-.145-.1C961.767,398.713,961.832,398.627,961.9,398.541Z" transform="translate(-945.598 -310.968)"/><path class="m" d="M970.762,307.752a2.52,2.52,0,0,1-.984.226c.021-.061.041-.122.061-.183a2.407,2.407,0,0,0,.993-.275l-.02.011C970.794,307.6,970.778,307.678,970.762,307.752Z" transform="translate(-949.641 -265.389)"/><path class="d" d="M993.344,308.556l.115.05C993.419,308.59,993.382,308.574,993.344,308.556Z" transform="translate(-961.442 -265.908)"/><path class="a" d="M975.407,275.629a11.229,11.229,0,0,0-1.923,6.111h-.043a.5.5,0,0,1-.131-.113c.019-.393.055-.784.106-1.167a.679.679,0,0,0,.091.019l.027-.178a.739.739,0,0,1-.093-.019,12.794,12.794,0,0,1,.275-1.368c.032,0,.066.005.1.011l.031-.176a.7.7,0,0,0-.084-.008,9.788,9.788,0,0,1,1.5-3.218,6.219,6.219,0,0,1,4.395-2.623c1.14-.138,1.686.923,2.261,2.047.138.269.28.546.434.817.273.479.562.932.817,1.332a5.375,5.375,0,0,1,.84,1.591,7.032,7.032,0,0,1-.1,2.125c-.023-.01-.048-.021-.073-.03l-.059.169a.634.634,0,0,1,.1.045,13.181,13.181,0,0,1-.343,1.3.712.712,0,0,1-.108-.007l-.023.178a.472.472,0,0,0,.073.007c0,.01-.005.02-.009.028a15.559,15.559,0,0,1-1.659,3.681c-.045.071-.093.142-.142.212,0-.01,0-.023,0-.036l-.18-.009-.006,0a14.913,14.913,0,0,0,1.814-3.9,9.932,9.932,0,0,0,.574-3.038,5.736,5.736,0,0,0-.041-.7,5.532,5.532,0,0,0-.813-1.516c-.257-.4-.548-.856-.823-1.341-.156-.273-.3-.553-.438-.822-.537-1.048-1.005-1.963-1.907-1.963a1.465,1.465,0,0,0-.172.011A6.044,6.044,0,0,0,975.407,275.629Z" transform="translate(-951.41 -248.046)"/><path class="a" d="M980.719,300.479a6.831,6.831,0,0,0,.165,2.07,2.883,2.883,0,0,0,1.557,2.115,8.366,8.366,0,0,1-6.785,4.292c-2.181.267-3.655-.956-3.817-2.289a8.289,8.289,0,0,1,.142-2.542,3.9,3.9,0,0,0,.817-.587,3.189,3.189,0,0,0,.979-1.829,3.746,3.746,0,0,0,1.128,1.2,2.5,2.5,0,0,0,1.375.427,2.055,2.055,0,0,0,.485-.056A6.919,6.919,0,0,0,980.719,300.479Z" transform="translate(-950.651 -261.863)"/><path class="a" d="M973.465,290.62a14.993,14.993,0,0,0,.237,3.327,8.094,8.094,0,0,0,.885,2.593l-.021.012-.176-.037-.005.028a8.369,8.369,0,0,1-.858-2.564,15.157,15.157,0,0,1-.246-3.241.484.484,0,0,0,.054.036l.088-.156Z" transform="translate(-951.391 -256.925)"/><path class="m" d="M954.9,316.8a23.022,23.022,0,0,0,5.343-8.381h0c.066.005.131.007.2.007a23.466,23.466,0,0,1-5.409,8.494c-2.227,2.476-3.986,4.433-3.686,7.812a9.5,9.5,0,0,0,1.458,4.332l-.165.068a9.63,9.63,0,0,1-1.472-4.384c-.264-2.984,1.093-4.941,2.862-6.97v.03l.183-.158c0-.027,0-.052,0-.081C954.437,317.319,954.666,317.064,954.9,316.8Z" transform="translate(-940.305 -265.841)"/><path class="c" d="M953.5,420.406c-.018.048-.036.1-.054.149Z" transform="translate(-941.465 -321.917)"/><path class="m" d="M957.092,352.369l-.095.151a8.594,8.594,0,0,1-2.236-2.037q-.132-.353-.275-.695A8.491,8.491,0,0,0,957.092,352.369Z" transform="translate(-941.984 -286.555)"/><path class="a" d="M972.815,286.106a.674.674,0,0,1-.1-.508.71.71,0,0,1,.7-.641,12.8,12.8,0,0,0-.275,1.368A.56.56,0,0,1,972.815,286.106Z" transform="translate(-951.104 -254.09)"/><path class="j" d="M989.15,423.986a24.626,24.626,0,0,0,10.658-3.587l-.038.228a27.2,27.2,0,0,1-13.505,3.716l-.082.005c-.006-.061-.015-.124-.023-.185A26.471,26.471,0,0,0,989.15,423.986Z" transform="translate(-957.844 -321.914)"/><path class="a" d="M989.82,302.275a6.829,6.829,0,0,1-.165-2.07c.064-.09.129-.182.19-.273a7.233,7.233,0,0,0,.151,2.306,2.679,2.679,0,0,0,1.476,1.992l-.095.16A2.883,2.883,0,0,1,989.82,302.275Z" transform="translate(-959.587 -261.589)"/><path class="a" d="M994.244,290.263a.739.739,0,0,1-.454.158,13.2,13.2,0,0,0,.343-1.3.757.757,0,0,1,.357.724A.631.631,0,0,1,994.244,290.263Z" transform="translate(-961.665 -256.178)"/><path class="a" d="M994.416,288.727c-.011.061-.023.122-.036.183a.63.63,0,0,0-.1-.045l.059-.169C994.367,288.706,994.392,288.717,994.416,288.727Z" transform="translate(-961.912 -255.964)"/><path class="c" d="M1021.362,290.4l-.172.05c-.005-.018-.011-.034-.018-.052l.14-.127A.81.81,0,0,1,1021.362,290.4Z" transform="translate(-975.377 -256.753)"/><path class="a" d="M993.528,291.885l.023-.178a.712.712,0,0,0,.108.007c-.02.061-.037.12-.057.178A.476.476,0,0,1,993.528,291.885Z" transform="translate(-961.534 -257.471)"/><path class="a" d="M1029.038,305.873c.01.018.016.036.026.054-.042.047-.087.091-.131.138-.021-.039-.039-.079-.057-.118Z" transform="translate(-979.234 -264.564)"/><path class="a" d="M973.288,290.625c0-.077.007-.154.011-.234a.5.5,0,0,0,.131.113l-.088.156A.469.469,0,0,1,973.288,290.625Z" transform="translate(-951.399 -256.812)"/><path class="j" d="M1013.659,420.169c-.012.075-.025.153-.036.228l-.2.115.038-.228C1013.526,420.246,1013.593,420.208,1013.659,420.169Z" transform="translate(-971.496 -321.799)"/><path class="m" d="M995.639,308.881c-.055.065-.111.131-.165.2a4.4,4.4,0,0,1-2.039-.241c.034-.052.065-.106.1-.16a4.311,4.311,0,0,0,2.02.212c.066-.007.133-.014.2-.023Z" transform="translate(-961.487 -265.969)"/><path class="a" d="M960.527,425.736c-.23.314-.469.646-.727,1.014-.891,1.273-1.806,2.492-2.689,3.67-1.269,1.689-2.582,3.438-3.8,5.327-.422.654-.8,1.225-1.14,1.727a27.065,27.065,0,0,0-3.068,5.55c-.474,1.144.4,3.119,1.609,5.85a52.562,52.562,0,0,1,3.449,9.623,32.935,32.935,0,0,1,.732,5.512,58.394,58.394,0,0,0,.878,7.171,4.932,4.932,0,0,0,1.546,2.667l.088.071a2.8,2.8,0,0,1,1.036,1.21l.018.058c.1.327.348,1.089-1.675,3.059-1.334,1.3-2.709,2.74-3.713,3.794-.711.747-1.271,1.336-1.5,1.539-.582.515-1.077.765-1.328.667a.3.3,0,0,1-.165-.282,1.356,1.356,0,0,1,0-.241,4.6,4.6,0,0,1,.622-1.682c.194-.35.379-.681.555-.995,2.181-3.9,3-5.354,2.086-8.945a26.668,26.668,0,0,0-2.023-4.736l-.031-.063c-.8-1.584-1.332-2.711-1.905-4.016-.634-1.449-1.433-2.966-2.207-4.435-.747-1.42-1.519-2.889-2.156-4.316a86.4,86.4,0,0,1-3.411-9.051,13.534,13.534,0,0,1-.513-5.027c.294-2.182,1.936-7.338,4.882-15.331.171-.461.264-.716.28-.768q.525-1.713,1.109-3.345c2.58,2.9,7.272,4.735,12.5,4.735C960.069,425.745,960.3,425.741,960.527,425.736Z" transform="translate(-935.239 -322.22)"/><path class="a" d="M951.133,467.21a26.673,26.673,0,0,1,2.023,4.736c.912,3.591.095,5.049-2.086,8.945-.176.314-.361.645-.555.995a4.6,4.6,0,0,0-.622,1.682,1.361,1.361,0,0,0,0,.241.3.3,0,0,0,.165.282c.252.1.747-.151,1.328-.667.23-.2.79-.792,1.5-1.539,1-1.054,2.379-2.5,3.713-3.794,2.023-1.97,1.779-2.732,1.675-3.059l-.018-.058a2.8,2.8,0,0,0-1.036-1.21l-.088-.071a4.932,4.932,0,0,1-1.546-2.666,58.394,58.394,0,0,1-.878-7.171,32.942,32.942,0,0,0-.732-5.512,52.562,52.562,0,0,0-3.449-9.623c-1.208-2.731-2.082-4.706-1.609-5.85a27.067,27.067,0,0,1,3.068-5.55c.338-.5.718-1.074,1.14-1.727,1.223-1.889,2.535-3.638,3.8-5.327.883-1.178,1.8-2.4,2.689-3.67.259-.368.5-.7.727-1.014l.226-.007c-.253.347-.519.715-.806,1.126-.892,1.275-1.808,2.494-2.693,3.673-1.268,1.688-2.578,3.433-3.8,5.318-.422.654-.8,1.225-1.142,1.729a26.836,26.836,0,0,0-3.052,5.518c-.443,1.073.416,3.018,1.607,5.709a52.572,52.572,0,0,1,3.462,9.655,33.1,33.1,0,0,1,.734,5.539,58.592,58.592,0,0,0,.876,7.149,4.747,4.747,0,0,0,1.485,2.562l.088.071a2.912,2.912,0,0,1,1.093,1.3l.018.054c.124.387.381,1.2-1.721,3.241-1.332,1.3-2.706,2.738-3.708,3.79-.743.779-1.278,1.341-1.512,1.55a2.393,2.393,0,0,1-1.328.731.519.519,0,0,1-.187-.032.463.463,0,0,1-.277-.433,1.31,1.31,0,0,1,0-.275,4.7,4.7,0,0,1,.643-1.752c.194-.348.379-.678.555-.995,2.156-3.85,2.963-5.291,2.068-8.814a26.658,26.658,0,0,0-2.009-4.7l-.031-.062c-.8-1.588-1.336-2.716-1.911-4.025-.63-1.442-1.429-2.957-2.2-4.422-.749-1.424-1.523-2.894-2.164-4.327a88.307,88.307,0,0,1-3.42-9.079,13.7,13.7,0,0,1-.517-5.1c.3-2.192,1.941-7.363,4.891-15.369.158-.427.262-.711.277-.759q.541-1.764,1.145-3.443c.045.052.088.1.136.152q-.584,1.633-1.109,3.345c-.016.052-.109.307-.28.768-2.946,7.993-4.587,13.15-4.882,15.331a13.534,13.534,0,0,0,.513,5.027,86.418,86.418,0,0,0,3.411,9.051c.638,1.427,1.409,2.9,2.156,4.316.774,1.469,1.573,2.986,2.207,4.435.573,1.305,1.106,2.433,1.905,4.016Z" transform="translate(-935.058 -322.067)"/><path class="d" d="M956.932,326.961l.182-.208c0,.029,0,.054,0,.081l-.183.158Z" transform="translate(-943.208 -275.02)"/><path class="c" d="M995.763,342.929a.068.068,0,0,0,0,.019.066.066,0,0,1,0-.019Z" transform="translate(-962.65 -283.12)"/><path class="n" d="M954.318,349.781q.143.341.275.695c-.158-.2-.305-.411-.441-.627l0-.005.165-.068h0Z" transform="translate(-941.815 -286.549)"/><path class="o" d="M1028.5,322.266a7.607,7.607,0,0,1-1.374,5.611,4.41,4.41,0,0,1-2.908,1.806,19.375,19.375,0,0,1-3.9-.05l-.3-.023c-2.989-.235-4.269,1.341-5.508,2.865-1.108,1.363-2.156,2.65-4.35,2.806-2.641.189-4.087-1.242-5.616-2.756a11.735,11.735,0,0,0-2.982-2.366c-4.679-2.307-5.393-4.039-5.445-5.566a10.453,10.453,0,0,1,.961-2.639c.005-.01.01-.021.016-.03a7.169,7.169,0,0,1,1.174-1.616c2.786-2.844,5.427-5.386,7.76-7.631,2.395-2.305,4.568-4.395,6.5-6.418.788,1.6,2.828,2.56,5.184,3.671C1022.025,311.96,1027.388,314.49,1028.5,322.266Z" transform="translate(-962.832 -264.757)"/><path class="d" d="M995.939,342.918a.184.184,0,0,0,0,.032c-.045.2-.086.4-.122.6a4.557,4.557,0,0,1-.057-.612.073.073,0,0,1,0-.019Z" transform="translate(-962.652 -283.115)"/><path class="a" d="M1006.119,293.691c1.185-1.079,2.391-2.174,3.47-3.163.007.018.013.034.018.052l.172-.05.034.036c-1.106,1.013-2.353,2.146-3.575,3.259-2.136,1.946-4.154,3.783-5.16,4.727a5.3,5.3,0,0,1-3.038,1.409q.086-.1.172-.2l-.113.014a5.088,5.088,0,0,0,2.855-1.35C1001.962,297.475,1003.98,295.638,1006.119,293.691Z" transform="translate(-963.794 -256.88)"/><path class="m" d="M993.373,308.609c-.032.054-.062.108-.1.16-.054-.021-.108-.043-.158-.068l.095-.16.018.008c.038.018.075.034.115.05Z" transform="translate(-961.329 -265.9)"/><path class="o" d="M972.084,274.375a.857.857,0,0,0,.133.645.742.742,0,0,0,.442.293c-.05.382-.086.774-.106,1.167a6.883,6.883,0,0,1-.745-3.736c.375-7.182,4.691-9.682,6.922-10,5.1-.729,6.8,1.571,10.212,6.157.846,1.136,1.8,2.424,2.939,3.837a11.786,11.786,0,0,0,3.306,2.765c.646.4,1.122.688,1.262,1.047-1.079.989-2.286,2.084-3.47,3.163-2.139,1.947-4.157,3.783-5.164,4.729a5.087,5.087,0,0,1-2.855,1.35.336.336,0,0,1-.043.008c-.066.009-.133.016-.2.023a4.31,4.31,0,0,1-2.02-.212l-.027-.01-.115-.05-.018-.007a2.679,2.679,0,0,1-1.476-1.992,7.237,7.237,0,0,1-.151-2.306c.048-.07.1-.14.142-.212a15.556,15.556,0,0,0,1.659-3.681c0-.009.005-.018.009-.028h.054a.906.906,0,0,0,.569-.2.812.812,0,0,0,.314-.537.936.936,0,0,0-.5-.925,7.028,7.028,0,0,0,.1-2.125,5.372,5.372,0,0,0-.84-1.591c-.255-.4-.544-.853-.817-1.332-.154-.271-.3-.548-.434-.817-.575-1.124-1.12-2.185-2.261-2.047a6.219,6.219,0,0,0-4.395,2.623,9.788,9.788,0,0,0-1.5,3.218A.881.881,0,0,0,972.084,274.375Z" transform="translate(-950.652 -242.9)"/><path class="a" d="M1013.38,306.1c-1.932,2.023-4.1,4.113-6.5,6.418-2.332,2.245-4.973,4.787-7.76,7.631a7.166,7.166,0,0,0-1.174,1.616c-.045-.045-.088-.09-.129-.136a7.289,7.289,0,0,1,1.174-1.605c2.79-2.846,5.433-5.39,7.763-7.634,2.408-2.316,4.588-4.413,6.528-6.446l.039.038C1013.341,306.022,1013.359,306.062,1013.38,306.1Z" transform="translate(-963.682 -264.6)"/><path class="m" d="M957.928,370.9c-.187-1.857-.432-3.516-.67-5.119s-.483-3.266-.67-5.126a38.016,38.016,0,0,0-2.436-10.729c.136.215.284.423.441.627a39.6,39.6,0,0,1,2.173,10.085c.187,1.855.432,3.514.669,5.117s.483,3.268.669,5.128a17.949,17.949,0,0,1,.011,3.316c-.066.086-.131.172-.194.259l-.011,0A17.837,17.837,0,0,0,957.928,370.9Z" transform="translate(-941.817 -286.623)"/><path class="d" d="M971.9,307.427l.162-.09C972,307.369,971.95,307.4,971.9,307.427Z" transform="translate(-950.701 -265.298)"/><path class="a" d="M989.861,299.851c0,.013,0,.025,0,.036-.061.091-.126.183-.19.273,0-.1.007-.2.012-.318Z" transform="translate(-959.601 -261.544)"/><path class="m" d="M984.435,379.621c-2.025.4-18.076,3.7-22.41,9.713.012-.115.025-.23.034-.345,4.618-5.916,20.259-9.139,22.238-9.523C984.342,379.518,984.388,379.57,984.435,379.621Z" transform="translate(-945.759 -301.416)"/><path class="d" d="M969.733,308.07a.541.541,0,0,1-.113,0Z" transform="translate(-949.562 -265.665)"/><path class="m" d="M969.64,308.07c-.02.061-.04.122-.061.183-.066,0-.131,0-.2-.007h0l.059-.176h.061a.541.541,0,0,0,.113,0Z" transform="translate(-949.441 -265.665)"/><path class="j" d="M953.451,420.555c.018-.05.036-.1.054-.149.043.052.088.1.136.153-.019.05-.037.1-.054.149C953.539,420.658,953.5,420.607,953.451,420.555Z" transform="translate(-941.465 -321.917)"/><path class="m" d="M972.011,307.308c-.018.077-.036.154-.054.235a2.058,2.058,0,0,1-.208.1c.016-.073.033-.147.05-.221l.02-.011h0c.054-.027.108-.058.162-.09A.177.177,0,0,0,972.011,307.308Z" transform="translate(-950.628 -265.283)"/><path class="a" d="M1070.826,524.883l.139-.019-.028-.178-.057.009C1070.862,524.756,1070.845,524.819,1070.826,524.883Z" transform="translate(-1000.241 -374.135)"/><path class="a" d="M1069.99,360.875c.007.136.019.281.039.434l.137-.41-.085-.029Z" transform="translate(-999.822 -292.105)"/><path class="a" d="M1133.166,520.279c0,.061.006.12.01.181l.078.005.011-.181Z" transform="translate(-1031.458 -371.929)"/><path class="h" d="M1128.786,410.967a.632.632,0,0,1,.169-.059l-.084-.043a.49.49,0,0,0-.143-.052C1128.747,410.865,1128.767,410.916,1128.786,410.967Z" transform="translate(-1029.236 -317.113)"/><path class="a" d="M1161.79,521.646l-.021.18.08.009c.01-.058.025-.117.039-.177Z" transform="translate(-1045.781 -372.614)"/><path class="j" d="M1161.908,452.262a1.869,1.869,0,0,0,.126-.16l-.019-.045-.164.074Z" transform="translate(-1045.822 -337.767)"/><g transform="translate(48.004 28.598)"><path class="f" d="M1095.235,431.261a33.909,33.909,0,0,0-2.123-5.868c-.153-.361-.285-.674-.385-.918-.664-1.619-2.291-5.122-2.959-6.553-.211-.454-.405-.868-.587-1.254-.942-2-1.544-3.285-2.4-5.547a.239.239,0,0,1-.072.026c-.511.13-7.091,1.82-8.591,2.045,1.647,1.2,3.371,2.807,3.174,4.425a1.073,1.073,0,0,1-.491.768,1.352,1.352,0,0,1-.661.219,1.425,1.425,0,0,1-.249-.006c-1.531-.186-2.543-2.213-3.146-4,.26,1.9.21,4.115-1.452,4.893a1.093,1.093,0,0,1-.394.1,1.455,1.455,0,0,1-1.073-.423,2,2,0,0,1-.415-2.258c.011-.026.029-.084.057-.171a16.967,16.967,0,0,1,1.255-2.972c-1.483.291-4.4.527-6.692.676-1.446.094-2.78.156-3.263.173-.015.056-.025.111-.038.166-.113.508-.231,1.015-.348,1.523a40.882,40.882,0,0,0-.89,4.6c-.132,1.153-.246,2.385-.368,3.993-.25,3.27-.4,6.23-.466,9.048-.025,1.084-.043,2.237.007,3.369,0,.077,0,.169,0,.271a2.118,2.118,0,0,0,.2,1.151c.083.034.17.066.26.1,3.6,1.283,11.363.59,13.081-.573.022-.015.043-.029.064-.045a.572.572,0,0,0,.284-.421,38.367,38.367,0,0,1,.309-4.266c.165-1.529.345-3.187.416-5.085.045-1.154.05-2.4-.01-3.758l.179-.008c.06,1.343.056,2.576.014,3.72l.028-.009c1.321,4,5.271,9.258,6.043,9.207h.005c.184-.019.376-.048.577-.088,3.669-.708,9.805-4.569,10.938-5.911A.6.6,0,0,0,1095.235,431.261Z" transform="translate(-1044.141 -345.866)"/><path class="j" d="M1063.436,466.881c-.006-.05-.016-.1-.024-.151l-.178.029.009.051Z" transform="translate(-1044.443 -373.712)"/><path class="a" d="M1054.108,492.556a19.672,19.672,0,0,0-.863,2.647c-.046.168-.093.338-.139.505l-.014.046.057-.009.028.178.049.014c.018-.06.035-.121.051-.181.049-.167.1-.337.14-.506a19.7,19.7,0,0,1,.855-2.623,64.578,64.578,0,0,1,3.759-7.091,22.048,22.048,0,0,0,1.791-3.362,137.216,137.216,0,0,0-1.465-15.212l-.193-.07a138.845,138.845,0,0,1,1.483,15.242,22.746,22.746,0,0,1-1.769,3.312A64.352,64.352,0,0,0,1054.108,492.556Z" transform="translate(-1039.365 -373.793)"/><path class="a" d="M1051.765,536.7a9.019,9.019,0,0,1-.58-2.94,6.037,6.037,0,0,1,1.353-3.2c.089-.13.176-.26.263-.391.916-1.384,1.886-2.706,2.8-3.927.444-.594.893-1.184,1.342-1.775.461-.608.928-1.221,1.392-1.843l-.032.008-.039-.176-.018-.013c-.48.647-.966,1.285-1.447,1.917-.449.591-.9,1.181-1.341,1.775-.916,1.224-1.888,2.546-2.8,3.936-.087.13-.174.26-.262.389a6.172,6.172,0,0,0-1.385,3.3,9.214,9.214,0,0,0,.59,3c.374,1.131.675,2.3.967,3.42.12.464.241.927.366,1.392a3.678,3.678,0,0,1,.1,1.382c-.072.471-.6.7-1.034.747a1.7,1.7,0,0,1-1.425-.47,9.348,9.348,0,0,1-2.372-2.8,18.584,18.584,0,0,1-.916-1.916c-.121-.28-.242-.56-.368-.838a6.624,6.624,0,0,1-.731-2.966,6.068,6.068,0,0,1,.64-2.287c.161-.35.343-.7.518-1.046a10.136,10.136,0,0,0,1.106-2.794c.25-1.384.649-2.784,1.033-4.137.066-.231.132-.458.195-.687l-.049-.014-.139.019c-.056.211-.116.422-.178.633-.386,1.358-.786,2.763-1.037,4.155a10.071,10.071,0,0,1-1.088,2.744c-.177.343-.361.7-.523,1.054a6.2,6.2,0,0,0-.654,2.353,6.79,6.79,0,0,0,.745,3.048c.128.278.247.558.367.836a18.49,18.49,0,0,0,.925,1.934,9.5,9.5,0,0,0,2.418,2.855,1.887,1.887,0,0,0,1.414.52c.045,0,.093-.008.141-.013.494-.059,1.1-.329,1.19-.9a3.881,3.881,0,0,0-.106-1.456c-.125-.463-.246-.927-.365-1.39C1052.442,539,1052.141,537.838,1051.765,536.7Z" transform="translate(-1035.813 -401.611)"/><path class="a" d="M1070.562,522.425l.038.176.032-.008c.055-.07.108-.142.159-.214C1070.708,522.395,1070.631,522.41,1070.562,522.425Z" transform="translate(-1048.113 -401.579)"/><path class="f" d="M1064.549,418.295c.012-.054.023-.109.038-.166-.1,0-.165.005-.185,0-.009.042-.019.082-.028.122-.113.508-.231,1.013-.349,1.522a41.139,41.139,0,0,0-.892,4.621c-.132,1.156-.246,2.389-.369,4-.251,3.273-.4,6.236-.467,9.057-.022,1.088-.043,2.245.008,3.382,0,.073,0,.163,0,.262a2.08,2.08,0,0,0,.258,1.285l.014.013.03.016.153.06c0-.017-.006-.033-.009-.051l.178-.029.015-.042c-.09-.032-.177-.064-.26-.1a2.118,2.118,0,0,1-.2-1.151c0-.1,0-.194,0-.271-.05-1.132-.031-2.285-.007-3.369.063-2.818.216-5.779.466-9.048.122-1.608.236-2.84.368-3.993a40.909,40.909,0,0,1,.89-4.6C1064.318,419.31,1064.436,418.8,1064.549,418.295Z" transform="translate(-1043.962 -349.375)"/><path class="h" d="M1066.536,417.953s0,0,0,0c.02,0,.083,0,.185,0,.01-.058.025-.117.039-.177a.057.057,0,0,0-.018,0Z" transform="translate(-1046.096 -349.196)"/><path class="p" d="M1059.462,302.309l-.024-.176a1.117,1.117,0,0,0-.306.081.546.546,0,0,0,.231.095.489.489,0,0,0,.085,0h0A.026.026,0,0,1,1059.462,302.309Z" transform="translate(-1042.389 -291.29)"/><path class="k" d="M1056.494,285.431c-.194,1.907.7,5.71,1.557,5.824a.168.168,0,0,0,.052,0c.216-.021.649-.368,1.013-2.545l.024-.136a2.723,2.723,0,0,0,.051-1.153l-.108-.272.241.164a2.172,2.172,0,0,0,1.224.422,7.289,7.289,0,0,1,3.953,1.492,8.682,8.682,0,0,0,2.428,1.228,4.836,4.836,0,0,0,1.782.179,2.281,2.281,0,0,0,1.521-.959,4,4,0,0,0,.755-1.642c.384-2.143-1.586-6.728-5.829-7.491a8.649,8.649,0,0,0-2.092-.108,10.271,10.271,0,0,0-1.769.273,11.317,11.317,0,0,0-1.762.59A4.991,4.991,0,0,0,1056.494,285.431Z" transform="translate(-1041.055 -280.414)"/><path class="a" d="M1060.065,306.275c.007.023.016.046.023.068a1.1,1.1,0,0,0,.18-.029c-.011-.033-.022-.063-.031-.1Z" transform="translate(-1042.856 -293.336)"/><path class="a" d="M1065.938,302.162a1.3,1.3,0,0,0-.58.246c0,.014.005.03.007.045.108.941-.622,2.138-2.817,2.394-.991.115-1.73-.262-1.841-1.231a4.543,4.543,0,0,1-.032-.934l-.065-.01a3.615,3.615,0,0,1-1.4-.436.463.463,0,0,1-.232.083h0a.879.879,0,0,0-.636.376,1,1,0,0,0-.126.776.913.913,0,0,0,.475.577,1.007,1.007,0,0,0,.87-.038l.072.164a1.452,1.452,0,0,1-.3.1,15.932,15.932,0,0,0,1.427,3.167.272.272,0,0,1,.241-.057,1.25,1.25,0,0,1,.323.146,3.3,3.3,0,0,0,3.863-.277,4.949,4.949,0,0,1,3.976-.637c1.148.188,1.977.327,2.515-1.115a20.2,20.2,0,0,1-.471-2.951,1.223,1.223,0,0,1-.734.684c-1.727.7-3.465.15-3.706-.766a1.8,1.8,0,0,1-.046-.238A1.785,1.785,0,0,0,1065.938,302.162Z" transform="translate(-1041.913 -291.298)"/><path class="a" d="M1059.112,304.254c.009.032.02.062.031.1a1.451,1.451,0,0,0,.3-.1l-.072-.164a1.007,1.007,0,0,1-.87.038.913.913,0,0,1-.475-.577,1,1,0,0,1,.126-.776.879.879,0,0,1,.635-.376.493.493,0,0,1-.085,0,.546.546,0,0,1-.231-.095.985.985,0,0,0-.47.374,1.177,1.177,0,0,0-.149.922,1.112,1.112,0,0,0,.571.7,1.04,1.04,0,0,0,.517.094h.02c-.007-.022-.016-.045-.023-.068Z" transform="translate(-1041.732 -291.371)"/><path class="p" d="M1060.264,301.977l-.1.149.037.024a.7.7,0,0,0,.139-.124Z" transform="translate(-1042.905 -291.212)"/><path class="a" d="M1052.226,361.306c.247,2.022,1.543,5.358,3.025,9.179,1.874,4.822,3.994,10.287,4.616,14.667.016.121.03.241.038.362h0c.059,0,.119,0,.18,0-.01-.127-.024-.256-.041-.384-.625-4.4-2.75-9.877-4.626-14.708-1.589-4.092-2.961-7.627-3.052-9.557l-.088,0,.084.029Z" transform="translate(-1038.931 -320.699)"/><path class="h" d="M1067.169,410.422l-.1-.181h0a11.993,11.993,0,0,1-.444,3.541c-.031.133-.062.268-.089.4l.206-.181a.056.056,0,0,1,.018,0c.012-.058.026-.119.041-.179a12.958,12.958,0,0,0,.46-3.4Z" transform="translate(-1046.097 -345.425)"/><path class="h" d="M1067.609,410.238l.1.181h.093c0-.061-.006-.122-.01-.183C1067.728,410.238,1067.668,410.238,1067.609,410.238Z" transform="translate(-1046.634 -345.423)"/><path class="a" d="M1061.718,309.577a15.949,15.949,0,0,1-1.427-3.167,1.1,1.1,0,0,1-.18.029,15.942,15.942,0,0,0,1.508,3.319.339.339,0,0,1,.086-.17Z" transform="translate(-1042.879 -293.431)"/><path class="p" d="M1063.151,312.97l.152-.094c-.024-.04-.05-.081-.073-.121l-.013.011a.339.339,0,0,0-.086.17A.312.312,0,0,0,1063.151,312.97Z" transform="translate(-1044.392 -296.608)"/><path class="a" d="M1036.747,370.547c-.179-.809-.3-1.722-.413-2.607a20.386,20.386,0,0,0-.363-2.217c-.169-.635-.314-1.312-.469-2.027a24.808,24.808,0,0,0-1.278-4.53c-.213-.5-.444-1.018-.67-1.52-.688-1.533-1.467-3.273-1.205-3.535,4.339-4.356,4.378-4.472,6.406-10.554l.136-.4c-.021-.153-.032-.3-.039-.434l.091,0-.086-.029-.271.815c-2.016,6.041-2.053,6.157-6.363,10.482-.333.333.227,1.637,1.168,3.735.225.5.457,1.019.669,1.516a24.861,24.861,0,0,1,1.268,4.5c.154.718.3,1.4.471,2.037a19.943,19.943,0,0,1,.359,2.195c.115.887.234,1.806.415,2.624a19.515,19.515,0,0,0,1.752,5.031c.058.113.113.218.163.314a1.821,1.821,0,0,1,.314,1.583,1.879,1.879,0,0,1-.437.672,2.994,2.994,0,0,0-.312.4,12.089,12.089,0,0,0-.776,1.517,12.354,12.354,0,0,0-.812,2.719c-.01.052-.018.111-.027.169-.064.395-.152.935-.443,1.112a.561.561,0,0,1-.485.015c-1-.333-2.583-1.424-1.935-4.987l0-.022a8.134,8.134,0,0,1,.516-1.854c.931-2.124.048-3.564-.972-5.23-.171-.279-.346-.568-.519-.866-1.1-1.9-2.509-4.412-3.714-7.06a41.274,41.274,0,0,1-2.346-6.418,30.752,30.752,0,0,1-.716-3.4,7.606,7.606,0,0,1,.019-1.889c.021-.2.04-.411.055-.623a26.141,26.141,0,0,1,2.37-9.058,22.329,22.329,0,0,1,14.875-12.72l.108-.025c2.982-.69,4.249-2.39,3.869-5.194-.07-.051-.138-.1-.2-.157.588,3.733-1.831,4.743-3.707,5.176l-.108.025a22.514,22.514,0,0,0-15,12.82,26.284,26.284,0,0,0-2.386,9.121c-.015.212-.034.416-.053.619a7.748,7.748,0,0,0-.02,1.934,31.234,31.234,0,0,0,.721,3.424,41.241,41.241,0,0,0,2.357,6.444c1.207,2.656,2.624,5.176,3.721,7.077.174.3.351.589.522.868,1.035,1.692,1.852,3.028.961,5.065a8.279,8.279,0,0,0-.53,1.893l0,.022c-.673,3.7,1,4.84,2.054,5.192a.951.951,0,0,0,.356.052.609.609,0,0,0,.278-.085c.363-.22.457-.807.526-1.236.011-.06.019-.115.029-.167a12.2,12.2,0,0,1,.8-2.681,12,12,0,0,1,.765-1.494,2.946,2.946,0,0,1,.293-.379,1.791,1.791,0,0,0,.148-2.455c-.051-.1-.1-.2-.163-.314A19.314,19.314,0,0,1,1036.747,370.547Z" transform="translate(-1025.595 -302.548)"/><path class="k" d="M1063.869,311.175a1.33,1.33,0,0,0-.269-.128c-.066-.012-.088.009-.1.017-.118.121-.01.673.036.91a7.774,7.774,0,0,0,2.523,4.791,5.752,5.752,0,0,0,1.828.964c2.424.783,5.569.208,6.976-1.616a3.509,3.509,0,0,0,.56-1.046,6.359,6.359,0,0,0-.6-5.411,3.15,3.15,0,0,0-.376-.55c-.588,1.521-1.518,1.367-2.691,1.176a4.791,4.791,0,0,0-3.846.608A3.51,3.51,0,0,1,1063.869,311.175Z" transform="translate(-1044.552 -294.781)"/><path class="a" d="M1062.567,295.1a2.326,2.326,0,0,1-1.132-.336,4.138,4.138,0,0,1-.091,1.026l-.024.135a5.535,5.535,0,0,1-.8,2.488,3.626,3.626,0,0,0,1.292.382l.058.011a1.611,1.611,0,0,1,.269-.681,1.546,1.546,0,0,1,.868-.543,7.948,7.948,0,0,1,1.421-.22l.426-.038a1.7,1.7,0,0,1,1.007.188,1.476,1.476,0,0,1,.637,1,1.416,1.416,0,0,1,.591-.229,2.036,2.036,0,0,1,.779.054,1.676,1.676,0,0,1,.147-.857,12.1,12.1,0,0,1-1.582-.919A7.119,7.119,0,0,0,1062.567,295.1Z" transform="translate(-1043.082 -287.601)"/><path class="e" d="M1061.668,302.457a3.626,3.626,0,0,1-1.292-.382.69.69,0,0,1-.139.124,3.615,3.615,0,0,0,1.4.436l.065.01c.005-.06.014-.118.023-.178Z" transform="translate(-1042.942 -291.261)"/><path class="e" d="M1063.163,301.544a4.535,4.535,0,0,0,.032.934c.111.97.85,1.346,1.841,1.231,2.195-.256,2.924-1.453,2.817-2.394a.438.438,0,0,0-.006-.045l-.039.028-.107-.146c.038-.028.076-.054.114-.078a1.476,1.476,0,0,0-.637-1,1.7,1.7,0,0,0-1.007-.188l-.426.038a7.943,7.943,0,0,0-1.421.22,1.546,1.546,0,0,0-.868.543,1.61,1.61,0,0,0-.269.681l.084.014-.03.177Z" transform="translate(-1044.401 -290.159)"/><path class="e" d="M1063.175,303.04l.076.013.03-.177-.084-.014C1063.189,302.922,1063.18,302.98,1063.175,303.04Z" transform="translate(-1044.414 -291.655)"/><path class="f" d="M1070.171,416.9c2.293-.149,5.209-.385,6.693-.676.04-.071.079-.14.12-.207a98.1,98.1,0,0,1-10.036.88c-.014.06-.028.119-.039.177C1067.391,417.051,1068.725,416.99,1070.171,416.9Z" transform="translate(-1046.283 -348.315)"/><path class="p" d="M1068.509,324.707c-.009-.073-.021-.148-.033-.223l-.176.029c0,.012,0,.025.006.036C1068.37,324.6,1068.439,324.656,1068.509,324.707Z" transform="translate(-1046.98 -302.482)"/><path class="h" d="M1088.3,403.859c-4.087,2.285-15.03,3.114-20.329,3.184,0,.06.008.121.01.183,1.4-.017,3.183-.079,5.127-.206,5.493-.357,12.27-1.221,15.238-2.977C1088.328,403.981,1088.313,403.921,1088.3,403.859Z" transform="translate(-1046.814 -342.229)"/><path class="e" d="M1072.263,302.354l.107.146.039-.028c-.008-.064-.019-.13-.032-.2C1072.339,302.3,1072.3,302.326,1072.263,302.354Z" transform="translate(-1048.964 -291.361)"/><path class="e" d="M1073.1,301.981a1.785,1.785,0,0,1,.774.072,1.437,1.437,0,0,1-.016-.2,2.036,2.036,0,0,0-.779-.054,1.415,1.415,0,0,0-.591.229c.013.066.024.132.032.2A1.3,1.3,0,0,1,1073.1,301.981Z" transform="translate(-1049.078 -291.116)"/><path class="e" d="M1075.236,301.925a1.437,1.437,0,0,0,.016.2.659.659,0,0,1,.109.048l.089-.155A1.044,1.044,0,0,0,1075.236,301.925Z" transform="translate(-1050.453 -291.186)"/><path class="e" d="M1076.648,300.587c-.4-.1-1.085-.444-1.116-.391l0,0a6.111,6.111,0,0,0,.9.332c.1.029.207.055.311.077Z" transform="translate(-1050.601 -290.317)"/><path class="e" d="M1078.218,301.083c-.03-.007-.061-.012-.089-.017Z" transform="translate(-1051.901 -290.755)"/><path class="a" d="M1079.99,472.5c.045-1.131.153-2.16.255-3.154a21.266,21.266,0,0,0,.184-3.817,1.649,1.649,0,0,1-.17.131,22.028,22.028,0,0,1-.192,3.667c-.1,1-.211,2.029-.256,3.167a77.42,77.42,0,0,1-.943,9.35c-.212,1.306-1.365,2.7-2.7,4.3a35.325,35.325,0,0,0-2.791,3.7c-.884,1.4-1.861,2.764-2.853,4.1l.018.013c.069-.015.146-.031.229-.045.96-1.29,1.9-2.609,2.757-3.969a34.941,34.941,0,0,1,2.778-3.677c1.349-1.63,2.517-3.037,2.738-4.39A77.372,77.372,0,0,0,1079.99,472.5Z" transform="translate(-1048.094 -373.112)"/><path class="f" d="M1071.15,466.813c2.483-.162,4.732-.6,5.637-1.213,0-.053-.007-.107-.012-.161l-.023-.033c-.02.016-.041.03-.064.045-1.718,1.163-9.485,1.855-13.081.573l-.015.042c.009.049.017.1.024.151A22.112,22.112,0,0,0,1071.15,466.813Z" transform="translate(-1044.622 -373.05)"/><path class="a" d="M1068.157,465.8c-.9.613-3.154,1.051-5.637,1.213a22.112,22.112,0,0,1-7.535-.595,137.232,137.232,0,0,1,1.465,15.212,22.039,22.039,0,0,1-1.791,3.362,64.619,64.619,0,0,0-3.759,7.091,19.7,19.7,0,0,0-.855,2.623c-.044.168-.091.339-.14.506-.016.06-.034.121-.051.181-.062.229-.129.456-.195.687-.385,1.353-.783,2.753-1.033,4.137a10.14,10.14,0,0,1-1.106,2.794c-.176.342-.358.7-.518,1.046a6.07,6.07,0,0,0-.64,2.287,6.621,6.621,0,0,0,.731,2.966c.126.278.247.558.367.838a18.6,18.6,0,0,0,.916,1.916,9.348,9.348,0,0,0,2.372,2.8,1.7,1.7,0,0,0,1.425.47c.432-.051.963-.277,1.034-.747a3.678,3.678,0,0,0-.1-1.382c-.125-.465-.246-.929-.366-1.392-.292-1.125-.593-2.289-.967-3.42a9.21,9.21,0,0,1-.59-3,6.17,6.17,0,0,1,1.385-3.3c.088-.13.175-.26.262-.389.917-1.389,1.889-2.712,2.8-3.936.443-.594.893-1.184,1.342-1.775.481-.633.966-1.271,1.446-1.917.992-1.331,1.969-2.693,2.853-4.1a35.3,35.3,0,0,1,2.791-3.7c1.335-1.609,2.488-3,2.7-4.3a77.4,77.4,0,0,0,.943-9.35c.045-1.138.152-2.169.256-3.167A22.04,22.04,0,0,0,1068.157,465.8Z" transform="translate(-1035.992 -373.244)"/><path class="j" d="M1090.009,465.618a1.634,1.634,0,0,0,.17-.131l0-.045-.179.015C1090,465.511,1090.006,465.565,1090.009,465.618Z" transform="translate(-1057.845 -373.067)"/><path class="f" d="M1086.849,416.217c.059-.011.116-.022.171-.034l-.038-.175-.012,0C1086.928,416.077,1086.89,416.146,1086.849,416.217Z" transform="translate(-1056.268 -348.313)"/><path class="e" d="M1078.307,301.038a4.832,4.832,0,0,0,1.205.084c.052,0,.1-.008.152-.013a1.91,1.91,0,0,0,.526-.133,3.049,3.049,0,0,1-1.021.151A5.75,5.75,0,0,1,1078.307,301.038Z" transform="translate(-1051.991 -290.71)"/><path class="q" d="M1084.041,358.222a3.687,3.687,0,0,1-.063.714l.177.033a3.941,3.941,0,0,0,.066-.749,8.605,8.605,0,0,0-.7-2.886l-.169.063A8.466,8.466,0,0,1,1084.041,358.222Z" transform="translate(-1054.52 -317.931)"/><path class="f" d="M1086.819,413.439a12.126,12.126,0,0,0-2.364,4.519c-.031.092-.052.156-.062.184a1.825,1.825,0,0,0,.371,2.059,1.159,1.159,0,0,0,1.269.29c2.177-1.019,1.4-4.769.991-6.654-.008-.032-.015-.062-.021-.092-.023-.1-.043-.192-.061-.275h-.009A.486.486,0,0,1,1086.819,413.439Z" transform="translate(-1054.958 -347.027)"/><path class="f" d="M1089.256,413.125c.031-.036.065-.071.1-.1-.013-.062-.024-.117-.032-.163l-.009-.046c-.071.068-.142.141-.213.216A.5.5,0,0,0,1089.256,413.125Z" transform="translate(-1057.396 -346.712)"/><path class="f" d="M1089.466,412.5l.03.156.036-.034.051-.048Z" transform="translate(-1057.579 -346.555)"/><path class="f" d="M1089.509,413.231c-.032.033-.066.067-.1.1a.492.492,0,0,0,.115.028h.009c0-.022-.008-.041-.011-.06a.18.18,0,0,1-.008-.039Z" transform="translate(-1057.552 -346.922)"/><path class="f" d="M1090.156,455.668a.653.653,0,0,0,.258-.485,37.869,37.869,0,0,1,.308-4.247c.155-1.436.323-2.984.4-4.74-.044-.123-.086-.243-.126-.362h-.039c-.071,1.9-.251,3.556-.416,5.085a38.336,38.336,0,0,0-.309,4.266.572.572,0,0,1-.284.421l.023.033.179-.016Z" transform="translate(-1057.821 -363.248)"/><path class="f" d="M1089.622,413.3a.167.167,0,0,0,.008.039C1089.627,413.324,1089.625,413.312,1089.622,413.3Z" transform="translate(-1057.657 -346.957)"/><path class="f" d="M1089.651,413.437a.5.5,0,0,0-.013-.06c0,.019.008.039.011.06Z" transform="translate(-1057.665 -346.996)"/><path class="f" d="M1089.595,413.071a.507.507,0,0,0,.179-.015c-.008-.039-.016-.074-.023-.11h0c-.015-.074-.029-.144-.04-.206l-.008-.037-.034-.021-.058-.037-.051.048-.036.034.009.046c.008.046.019.1.032.163,0,.011.005.021.007.034s.005.025.008.039A.574.574,0,0,1,1089.595,413.071Z" transform="translate(-1057.609 -346.629)"/><path class="f" d="M1089.661,413.5c.018.083.038.174.061.275-.021-.1-.042-.19-.059-.275Z" transform="translate(-1057.676 -347.056)"/><path class="f" d="M1089.92,413.82c-.031-.13-.056-.249-.077-.353a.507.507,0,0,1-.179.015c.018.085.038.177.059.275.005.03.013.06.021.092.116.509.293,1.2.537,1.924-.095-.71-.236-1.377-.351-1.908A.424.424,0,0,0,1089.92,413.82Z" transform="translate(-1057.678 -347.041)"/><path class="f" d="M1089.7,412.579l.058.038.034.021-.022-.124Z" transform="translate(-1057.695 -346.563)"/><path class="f" d="M1092,442.057l.143-.047c.042-1.144.047-2.376-.013-3.72l-.179.008c.061,1.358.056,2.6.01,3.758Z" transform="translate(-1058.822 -359.471)"/><path class="f" d="M1089.161,412.2l-.03-.156.116.073.069-.065.022.124c.1.062.2.125.307.194a.489.489,0,0,0,.1-.246.479.479,0,1,0-.8.292C1089.019,412.338,1089.09,412.265,1089.161,412.2Z" transform="translate(-1057.245 -346.098)"/><path class="f" d="M1090.191,412.957c-.107-.069-.21-.132-.307-.194l.008.037c.011.062.024.131.04.206l.113.07A.487.487,0,0,0,1090.191,412.957Z" transform="translate(-1057.788 -346.688)"/><path class="f" d="M1089.979,413.25c.008.034.016.069.023.106a.314.314,0,0,0,.089-.036Z" transform="translate(-1057.836 -346.932)"/><path class="f" d="M1090,413.355c-.008-.037-.015-.072-.023-.106h0c.007.035.015.071.023.11h0Z" transform="translate(-1057.834 -346.931)"/><path class="h" d="M1092.049,445.788c.04.12.082.239.126.362.006-.133.011-.271.016-.409Z" transform="translate(-1058.872 -363.202)"/><path class="f" d="M1090.026,413.429c.016.078.034.163.054.252.008.033.016.065.021.1a.4.4,0,0,1,.01.046c.405,1.749,1.5,5.484,3.518,5.728a1.181,1.181,0,0,0,.79-.185.9.9,0,0,0,.412-.641c.192-1.58-1.6-3.188-3.257-4.368-.522-.369-1.029-.7-1.459-.972a.316.316,0,0,1-.089.036Z" transform="translate(-1057.859 -347.003)"/><path class="f" d="M1090.022,413.467c.021.1.047.224.077.353-.006-.036-.013-.068-.021-.1-.02-.089-.038-.174-.054-.252Z" transform="translate(-1057.857 -347.041)"/><path class="f" d="M1084.584,420.1a1.825,1.825,0,0,1-.371-2.059c.01-.027.031-.092.062-.184a12.13,12.13,0,0,1,2.363-4.519.5.5,0,0,1-.156-.1,7.767,7.767,0,0,0-1,1.382l.012,0,.039.175c-.055.012-.112.023-.171.034a16.977,16.977,0,0,0-1.255,2.972c-.028.086-.046.145-.057.171a2,2,0,0,0,.415,2.258,1.455,1.455,0,0,0,1.073.423,1.094,1.094,0,0,0,.394-.1c1.662-.778,1.712-2.994,1.452-4.893-.244-.727-.421-1.415-.537-1.924.409,1.886,1.187,5.635-.991,6.654A1.159,1.159,0,0,1,1084.584,420.1Z" transform="translate(-1054.778 -346.928)"/><path class="e" d="M1082.324,300.177a2.774,2.774,0,0,0,.868-.686v0A3.857,3.857,0,0,1,1082.324,300.177Z" transform="translate(-1054.002 -289.965)"/><path class="e" d="M1079.735,301.224c-.056-.589-.093-1.187-.1-1.73a2.773,2.773,0,0,1-.868.686c-.042.021-.082.037-.122.053a1.907,1.907,0,0,1-.526.133c-.05.005-.1.01-.152.013a4.831,4.831,0,0,1-1.205-.084l-.089-.017c-.031-.007-.06-.012-.089-.019-.1-.022-.207-.047-.311-.077a6.112,6.112,0,0,1-.9-.332,1.677,1.677,0,0,0-.147.857,1.044,1.044,0,0,1,.214.09l-.089.155a.659.659,0,0,0-.109-.048,1.843,1.843,0,0,0,.047.238c.241.916,1.979,1.469,3.706.766A1.222,1.222,0,0,0,1079.735,301.224Z" transform="translate(-1050.45 -289.968)"/><path class="p" d="M1062.181,294.671a7.118,7.118,0,0,1,3.863,1.461,12.086,12.086,0,0,0,1.582.919l0,0c.031-.052.719.293,1.116.391l.09.021c.029.007.058.012.089.019s.06.01.089.017a5.751,5.751,0,0,0,.862.088,3.049,3.049,0,0,0,1.021-.151c.04-.015.08-.032.122-.053a3.855,3.855,0,0,0,.867-.69c0-.086,0-.169,0-.252l-.013-.01a2.282,2.282,0,0,1-1.521.959,4.836,4.836,0,0,1-1.782-.179,8.679,8.679,0,0,1-2.428-1.228,7.288,7.288,0,0,0-3.952-1.492,2.172,2.172,0,0,1-1.224-.422l-.241-.164.108.272a2.717,2.717,0,0,1-.051,1.153l-.023.136c-.364,2.177-.8,2.524-1.013,2.545v0l.024.176a.027.027,0,0,0-.011,0,.463.463,0,0,0,.232-.083l-.037-.024.1-.149.075.049a5.536,5.536,0,0,0,.8-2.488l.024-.135a4.138,4.138,0,0,0,.091-1.026A2.326,2.326,0,0,0,1062.181,294.671Z" transform="translate(-1042.696 -287.169)"/><path class="e" d="M1084.061,299.483v0s.005-.005.005-.007Z" transform="translate(-1054.872 -289.961)"/><path class="p" d="M1084.063,298.983c0,.082,0,.165,0,.252l.005,0,0,0c.06-.07.118-.142.173-.216,0-.009,0-.018,0-.027Z" transform="translate(-1054.872 -289.712)"/><path class="e" d="M1084.062,299.46c0,.543.04,1.142.1,1.73a1.893,1.893,0,0,0,.09-.834c-.039-.536-.024-.859-.143-.93,0,0-.016.007-.035.024l0,0S1084.063,299.457,1084.062,299.46Z" transform="translate(-1054.873 -289.935)"/><path class="a" d="M1084.079,299.258c.019-.017.031-.025.034-.024.12.071.1.394.143.93a1.892,1.892,0,0,1-.09.834,20.2,20.2,0,0,0,.471,2.951c0-.007.006-.017.009-.026a.109.109,0,0,1,.1-.074h.014a.088.088,0,0,1,.04.006,22.587,22.587,0,0,1-.545-4.811C1084.2,299.116,1084.139,299.188,1084.079,299.258Z" transform="translate(-1054.881 -289.742)"/><path class="p" d="M1068.686,324.034a6.012,6.012,0,0,0,1.755.894,7.806,7.806,0,0,0,2.876.344,5.9,5.9,0,0,0,4.211-1.9c-.01-.07-.022-.141-.032-.216l-.022-.018c-1.407,1.824-4.553,2.4-6.977,1.616a5.752,5.752,0,0,1-1.828-.964l-.015.019C1068.665,323.886,1068.677,323.961,1068.686,324.034Z" transform="translate(-1047.157 -301.809)"/><path class="p" d="M1085.3,308.668a.109.109,0,0,0-.1.074c0,.009-.006.018-.009.026s.005.019.008.028l.173-.049-.021-.074a.089.089,0,0,0-.04-.006Z" transform="translate(-1055.442 -294.561)"/><path class="p" d="M1086.4,323.368c.053-.065.1-.131.152-.2,0-.012,0-.026-.006-.041l-.179.024C1086.374,323.227,1086.385,323.3,1086.4,323.368Z" transform="translate(-1056.025 -301.803)"/><path class="f" d="M1090.2,413.271c.43.272.937.6,1.459.972l0-.008.007-.178a.176.176,0,0,0,.032,0c-.483-.342-.952-.647-1.356-.9A.487.487,0,0,1,1090.2,413.271Z" transform="translate(-1057.949 -346.883)"/><path class="f" d="M1093.176,414.964a.169.169,0,0,1-.032,0l-.007.178a.519.519,0,0,0,.059,0c.05,0,.116-.011.2-.023l-.215-.153Z" transform="translate(-1059.417 -347.79)"/><path class="p" d="M1071.584,310.068c1.173.192,2.1.346,2.691-1.176a3.138,3.138,0,0,1,.376.55,6.359,6.359,0,0,1,.6,5.411,3.506,3.506,0,0,1-.56,1.046l.022.018.179-.024c0,.014,0,.028.006.041a3.76,3.76,0,0,0,.522-1.025,6.611,6.611,0,0,0-.61-5.558,2.1,2.1,0,0,0-.519-.672l.021.074-.173.049c0-.008-.005-.017-.008-.028-.538,1.442-1.367,1.3-2.515,1.115a4.949,4.949,0,0,0-3.976.637,3.3,3.3,0,0,1-3.863.277,1.246,1.246,0,0,0-.323-.146.272.272,0,0,0-.241.057c.023.04.049.081.073.121l-.152.094a.294.294,0,0,1-.02-.034,2.485,2.485,0,0,0,.073.9,7.976,7.976,0,0,0,2.514,4.84c0-.011,0-.023-.006-.036l.176-.029.015-.019a7.774,7.774,0,0,1-2.523-4.791c-.046-.236-.154-.789-.036-.91.009-.008.03-.029.1-.017a1.33,1.33,0,0,1,.269.128,3.51,3.51,0,0,0,4.048-.285A4.791,4.791,0,0,1,1071.584,310.068Z" transform="translate(-1044.372 -294.568)"/><path class="f" d="M1095.095,419.193c.2-1.618-1.527-3.228-3.174-4.425-.08.012-.146.02-.2.023a.52.52,0,0,1-.059,0l0,.008c1.656,1.18,3.449,2.789,3.256,4.368a.9.9,0,0,1-.412.641,1.181,1.181,0,0,1-.79.185c-2.02-.245-3.112-3.979-3.518-5.728.115.53.256,1.2.351,1.908.6,1.787,1.616,3.814,3.146,4a1.423,1.423,0,0,0,.249.005,1.351,1.351,0,0,0,.661-.219A1.074,1.074,0,0,0,1095.095,419.193Z" transform="translate(-1057.945 -347.441)"/><path class="j" d="M1105.422,464.232l.2-.038c-.029-.039-.057-.081-.085-.12l-.148.1C1105.4,464.2,1105.41,464.213,1105.422,464.232Z" transform="translate(-1065.55 -372.382)"/><path class="f" d="M1102,410.809c-2.764.71-8.082,2.041-8.782,2.072l.215.153c1.5-.225,8.08-1.915,8.591-2.045a.238.238,0,0,0,.072-.026l-.059-.155-.02,0Z" transform="translate(-1059.458 -345.707)"/><path class="h" d="M1108.735,403.958v0l.1-.264c-.048.028-.1.057-.147.083C1108.7,403.838,1108.719,403.9,1108.735,403.958Z" transform="translate(-1067.205 -342.146)"/><path class="f" d="M1078.725,408.682c.4.258.873.562,1.356.9h0c.7-.031,6.018-1.361,8.782-2.072l.017,0,.02,0c-.069-.184-.139-.376-.214-.574a26.428,26.428,0,0,1-.837-2.714c-2.968,1.756-9.745,2.62-15.238,2.978-1.944.127-3.728.189-5.127.206a12.953,12.953,0,0,1-.46,3.4c-.014.06-.028.121-.04.179a98.071,98.071,0,0,0,10.036-.88,7.767,7.767,0,0,1,1-1.382.479.479,0,1,1,.8-.292A.489.489,0,0,1,1078.725,408.682Z" transform="translate(-1046.322 -342.413)"/><path class="a" d="M1107.909,384.74a40.741,40.741,0,0,1-.6-14.06c.073-.67.158-1.354.242-2.014.116-.931.233-1.869.321-2.812l-.182.017c-.087.929-.2,1.854-.316,2.771-.083.663-.17,1.346-.242,2.016a40.82,40.82,0,0,0,.611,14.169c.051-.026.1-.055.147-.083Z" transform="translate(-1066.261 -323.198)"/><path class="q" d="M1108.7,358.577a26.316,26.316,0,0,1-.12,3.65l.182-.017a27.452,27.452,0,0,0,.13-3.315q-.086-.162-.166-.318Z" transform="translate(-1067.151 -319.554)"/><path class="q" d="M1107.866,352.015a14.962,14.962,0,0,1,.478,3.254h.026l.151-.076a15.109,15.109,0,0,0-.481-3.222Z" transform="translate(-1066.793 -316.246)"/><path class="q" d="M1108.874,358.5q.08.157.166.319c0-.131-.006-.263-.015-.395Z" transform="translate(-1067.297 -319.477)"/><path class="a" d="M1046.93,366.857c-.01-.127-.024-.256-.041-.384-.624-4.4-2.75-9.877-4.626-14.708-1.589-4.092-2.961-7.627-3.052-9.557l-.088,0-.086-.028-.271.815c-2.016,6.041-2.053,6.157-6.363,10.482-.333.333.227,1.637,1.168,3.735.225.5.457,1.019.669,1.516a24.86,24.86,0,0,1,1.268,4.5c.154.718.3,1.4.471,2.037a19.827,19.827,0,0,1,.359,2.195c.115.887.235,1.806.415,2.624a19.519,19.519,0,0,0,1.752,5.031c.058.113.114.218.163.314a1.822,1.822,0,0,1,.313,1.583,1.878,1.878,0,0,1-.437.672,3,3,0,0,0-.312.4,12.093,12.093,0,0,0-.776,1.517,12.347,12.347,0,0,0-.812,2.719c-.009.052-.018.111-.027.169-.064.395-.152.935-.442,1.112a.561.561,0,0,1-.485.016c-1-.333-2.583-1.424-1.935-4.988l0-.022a8.146,8.146,0,0,1,.516-1.854c.931-2.124.048-3.564-.972-5.23-.171-.279-.346-.568-.519-.866-1.1-1.9-2.509-4.412-3.714-7.06a41.29,41.29,0,0,1-2.346-6.418,30.782,30.782,0,0,1-.716-3.4,7.618,7.618,0,0,1,.019-1.889c.021-.2.04-.411.055-.623a26.142,26.142,0,0,1,2.371-9.058,22.328,22.328,0,0,1,14.875-12.72l.108-.025c2.981-.69,4.249-2.39,3.869-5.194a6.012,6.012,0,0,0,1.755.894,7.806,7.806,0,0,0,2.876.343,5.9,5.9,0,0,0,4.211-1.9,5.793,5.793,0,0,0,.592,1.712,4.572,4.572,0,0,0,2.293,2.105,8.864,8.864,0,0,0,4.359.573,10,10,0,0,1,6.124,1.217c6.45,3.76,8.665,11.066,9.731,14.577a17.848,17.848,0,0,0,.582,1.747c.351.783,2.294,1.334,5.33,1.512a67.286,67.286,0,0,1,10.107,1.793,31.911,31.911,0,0,0,4.059.806,14.8,14.8,0,0,0,3.536-.458c.494-.1,1-.213,1.489-.293.614-.1,1.173-.222,1.714-.339.754-.162,1.467-.316,2.3-.418a3.082,3.082,0,0,1,2.89,1.052.452.452,0,0,1,.09.413c-.176.564-1.541,1.059-2.986,1.584-1.739.63-3.708,1.342-4.209,2.4-.119.253-.632.281-.885.259a1.427,1.427,0,0,1-.445-.178,2.279,2.279,0,0,0-.236-.114,12.722,12.722,0,0,0-6.638-.864c-.96.109-3.3.233-5.009.325-.581.03-1.1.057-1.477.08-6.813.4-15.128-1.268-15.464-1.6a80.414,80.414,0,0,1-6.483-10.512l-.009,0a15.117,15.117,0,0,0-.481-3.222l-.173.045a14.962,14.962,0,0,1,.478,3.254,26.3,26.3,0,0,1-.12,3.649c-.087.929-.2,1.854-.316,2.771-.083.663-.17,1.346-.242,2.016a40.82,40.82,0,0,0,.611,14.169C1063.173,365.959,1052.23,366.787,1046.93,366.857Zm8.366-24.522a3.668,3.668,0,0,1-.063.714l.177.033a3.961,3.961,0,0,0,.066-.749,8.608,8.608,0,0,0-.7-2.886l-.169.063A8.463,8.463,0,0,1,1055.3,342.335Z" transform="translate(-1025.775 -302.044)"/><path class="a" d="M1116.783,452.468c-1.358,1.571-7.431,5.192-10.932,5.915,3.972,5.682,7.47,11.049,7.482,11.125a11.992,11.992,0,0,1-.9,3.907,36.014,36.014,0,0,0-1.833,7.831,23.257,23.257,0,0,0,.059,3.528c.017.264.036.527.051.788.1,1.728.233,3.738.488,5.728a4.369,4.369,0,0,1-.37,2.948,3.975,3.975,0,0,0-.76,2.79,6.56,6.56,0,0,0,1.883,3.44,20.182,20.182,0,0,1,2.042,2.76c.118.179.236.36.358.542a5.891,5.891,0,0,0,2.555,2.354,2.444,2.444,0,0,0,1.743.064,1.532,1.532,0,0,0,1-1.306,2.644,2.644,0,0,0-.5-1.352q-.324-.543-.652-1.082a39.789,39.789,0,0,1-2.828-5.253,5.661,5.661,0,0,1-.23-2.758c.008-.117.019-.237.027-.358.006-.092.015-.184.023-.277a86.564,86.564,0,0,1,4.049-17.3l.128-.379c.911-2.667,2.046-5.984,1.764-8.641a40.684,40.684,0,0,0-2.973-10.636c-.365-.852-.659-1.661-.942-2.443C1117.274,453.712,1117.04,453.059,1116.783,452.468Z" transform="translate(-1065.784 -366.571)"/><path class="f" d="M1116.6,452.148c-1.132,1.342-7.268,5.2-10.938,5.911l.008.043c.028.039.056.081.085.12,3.5-.722,9.574-4.344,10.932-5.915l-.057-.131Z" transform="translate(-1065.69 -366.41)"/><path class="a" d="M1111,491.129c-.256-1.99-.386-4-.488-5.728-.015-.262-.034-.525-.051-.788a23.257,23.257,0,0,1-.059-3.528,36.013,36.013,0,0,1,1.833-7.831,11.987,11.987,0,0,0,.9-3.907c-.012-.076-3.51-5.443-7.482-11.125l-.2.038c4.132,5.908,7.317,10.834,7.5,11.129a12.134,12.134,0,0,1-.891,3.809,36.139,36.139,0,0,0-1.839,7.871,23.3,23.3,0,0,0,.057,3.555c.017.263.036.526.051.788.014.245.031.494.047.749l.1.006-.012.181-.077-.005c.094,1.5.22,3.161.431,4.808a4.135,4.135,0,0,1-.341,2.826,4.142,4.142,0,0,0-.787,2.912,6.725,6.725,0,0,0,1.929,3.539,19.93,19.93,0,0,1,2.024,2.738c.118.179.237.358.357.54a6.043,6.043,0,0,0,2.639,2.423,2.892,2.892,0,0,0,1.228.2,2.19,2.19,0,0,0,.646-.139,1.716,1.716,0,0,0,1.117-1.469,2.782,2.782,0,0,0-.523-1.448q-.324-.543-.652-1.082a39.74,39.74,0,0,1-2.816-5.229,5.533,5.533,0,0,1-.217-2.674c.009-.119.018-.239.027-.361.006-.09.015-.181.021-.273a54.092,54.092,0,0,1,1.091-6.624l-.08-.009.021-.18.1.012a103.645,103.645,0,0,1,2.911-10.461l.13-.377c.916-2.683,2.059-6.023,1.772-8.719a40.981,40.981,0,0,0-2.986-10.687c-.364-.849-.656-1.654-.937-2.435-.263-.724-.511-1.408-.784-2.029a1.9,1.9,0,0,1-.126.16c.256.591.491,1.244.739,1.931.283.782.577,1.591.942,2.443a40.694,40.694,0,0,1,2.974,10.636c.283,2.657-.853,5.975-1.764,8.641l-.128.379a86.556,86.556,0,0,0-4.049,17.3c-.008.092-.017.184-.023.277-.008.121-.019.241-.028.358a5.663,5.663,0,0,0,.23,2.758,39.775,39.775,0,0,0,2.828,5.253q.326.54.651,1.082a2.642,2.642,0,0,1,.5,1.352,1.532,1.532,0,0,1-1,1.306,2.444,2.444,0,0,1-1.742-.064,5.893,5.893,0,0,1-2.555-2.354c-.121-.181-.24-.362-.358-.542a20.17,20.17,0,0,0-2.042-2.76,6.559,6.559,0,0,1-1.883-3.44,3.975,3.975,0,0,1,.76-2.79A4.369,4.369,0,0,0,1111,491.129Z" transform="translate(-1065.588 -366.41)"/><path class="a" d="M1134.431,353.392c-.119.253-.631.281-.885.259a1.428,1.428,0,0,1-.445-.178,2.278,2.278,0,0,0-.236-.114,12.722,12.722,0,0,0-6.638-.864c-.961.109-3.3.233-5.01.324-.581.03-1.1.057-1.477.08-6.813.4-15.128-1.268-15.464-1.6a80.409,80.409,0,0,1-6.483-10.512l-.009,0c.009.132.013.264.015.395a78.695,78.695,0,0,0,6.336,10.226c.333.417,8.961,2.056,15.614,1.669.38-.023.9-.049,1.477-.08,1.71-.091,4.054-.213,5.02-.325a12.546,12.546,0,0,1,6.551.851c.062.025.139.065.219.106a1.492,1.492,0,0,0,.513.2,1.981,1.981,0,0,0,.3,0c.269-.017.631-.091.759-.36.468-.991,2.4-1.693,4.107-2.31,1.554-.564,2.895-1.05,3.1-1.7a.633.633,0,0,0-.116-.57,3.258,3.258,0,0,0-3.056-1.125c-.844.1-1.561.257-2.321.419-.538.116-1.095.237-1.705.338-.491.08-1,.189-1.5.294a14.667,14.667,0,0,1-3.491.454,32.381,32.381,0,0,1-4.027-.8,67.195,67.195,0,0,0-10.139-1.8c-2.924-.169-4.858-.695-5.176-1.4a17.939,17.939,0,0,1-.575-1.726c-1.072-3.534-3.3-10.886-9.813-14.681a10.146,10.146,0,0,0-6.221-1.242,8.7,8.7,0,0,1-4.276-.557,4.388,4.388,0,0,1-2.206-2.019,5.475,5.475,0,0,1-.6-1.834c-.048.068-.1.134-.152.2a5.8,5.8,0,0,0,.592,1.712,4.57,4.57,0,0,0,2.292,2.105,8.865,8.865,0,0,0,4.359.573,10,10,0,0,1,6.124,1.217c6.45,3.76,8.665,11.066,9.731,14.577a17.839,17.839,0,0,0,.582,1.747c.351.783,2.294,1.334,5.33,1.512a67.267,67.267,0,0,1,10.107,1.793,31.927,31.927,0,0,0,4.059.806,14.8,14.8,0,0,0,3.536-.458c.494-.1,1-.213,1.489-.293.614-.1,1.173-.222,1.714-.339.754-.162,1.467-.317,2.3-.418a3.082,3.082,0,0,1,2.89,1.052.452.452,0,0,1,.09.413c-.176.564-1.541,1.059-2.986,1.584C1136.9,351.622,1134.933,352.335,1134.431,353.392Z" transform="translate(-1056.057 -301.844)"/></g></g></g></svg>