<svg xmlns="http://www.w3.org/2000/svg" width="239.255" height="113.938" viewBox="0 0 239.255 113.938"><defs><style>.a{fill:#94c93b;}.b{fill:#039;}.c{fill:#36ccc7;}.d{fill:#006938;}.e{fill:#ff5e26;}.f{fill:#fff;}</style></defs><g transform="translate(-519.672 -312.376)"><path class="a" d="M581.623,377.541a9.332,9.332,0,0,1,1.914,3.659,6.247,6.247,0,0,1-2.492,6.678c-2.629,2.037-5.7,2.973-8.853,3.77-4.484,1.133-9.007,2.2-12.952,4.8a12.4,12.4,0,0,0-5.792,8.378,17.307,17.307,0,0,0,.388,7.439c.879,3.34,2.491,6.391,3.739,9.586.184.472.316.965.472,1.448-7.832-1.275-15.4-.026-22.827,2.443a19.522,19.522,0,0,0-7.436,4.4c-.747.715-1.489.474-1.611-.535-.841-6.925-.461-13.7,2.764-20.057a24.333,24.333,0,0,1,10.276-10.4c.55-.3,1.062-.606.951-1.345-.116-.77-.725-.926-1.36-1.073-4.268-.989-8.422-.26-12.543.848a24.676,24.676,0,0,0-4.927,1.9c-1.073.553-1.71.168-1.659-1.042a19.352,19.352,0,0,1,3.169-10.043c2.937-4.44,7.186-7.208,11.98-9.245a60.216,60.216,0,0,1,16.838-4.118,88.477,88.477,0,0,1,12.347-.622,54.887,54.887,0,0,1,15.228,2.214C580.048,376.878,580.828,377.232,581.623,377.541Z" transform="translate(0 -62.01)"/><path class="b" d="M701.945,435.774a7.63,7.63,0,0,1-3.1.787,60.678,60.678,0,0,1-11.77,1.046,48.161,48.161,0,0,1-8.108-.88,19.43,19.43,0,0,1-5.551-1.829c-4.4-2.338-7.1-7.219-4.991-12.317a7.654,7.654,0,0,1,3.635-3.572,30.04,30.04,0,0,1,8.618-3.077,45.448,45.448,0,0,0,8.37-2.57,12.343,12.343,0,0,0,6.283-5.136,7.939,7.939,0,0,0,.83-6.17,2.988,2.988,0,0,1-.051-.5,13.439,13.439,0,0,1,4.408,7.6,41.574,41.574,0,0,1,.616,11.211c-.163,4.117-.564,8.236.073,12.349A20.769,20.769,0,0,0,701.945,435.774Z" transform="translate(-109.251 -82.061)"/><path class="c" d="M1190.736,647.988a9.329,9.329,0,0,1-1.914-3.659,6.247,6.247,0,0,1,2.492-6.678c2.629-2.037,5.7-2.973,8.853-3.771,4.484-1.133,9.007-2.2,12.952-4.8a12.4,12.4,0,0,0,5.792-8.378,17.3,17.3,0,0,0-.388-7.438c-.879-3.341-2.491-6.391-3.739-9.586-.184-.472-.316-.965-.472-1.449,7.832,1.275,15.4.026,22.827-2.442a19.525,19.525,0,0,0,7.436-4.4c.747-.715,1.489-.474,1.611.535.841,6.925.462,13.7-2.764,20.057a24.329,24.329,0,0,1-10.276,10.4c-.55.3-1.062.606-.951,1.345.116.77.725.926,1.36,1.073,4.268.989,8.422.26,12.543-.848a24.7,24.7,0,0,0,4.927-1.9c1.073-.554,1.71-.168,1.658,1.041a19.352,19.352,0,0,1-3.169,10.043c-2.937,4.44-7.186,7.208-11.98,9.244A60.217,60.217,0,0,1,1220.7,650.5a88.53,88.53,0,0,1-12.347.622,54.886,54.886,0,0,1-15.227-2.214C1192.311,648.651,1191.531,648.3,1190.736,647.988Z" transform="translate(-493.76 -224.829)"/><path class="d" d="M1154.34,646.383a7.626,7.626,0,0,1,3.1-.787,60.7,60.7,0,0,1,11.77-1.046,48.171,48.171,0,0,1,8.108.88,19.424,19.424,0,0,1,5.551,1.83c4.4,2.337,7.1,7.219,4.991,12.317a7.655,7.655,0,0,1-3.635,3.572,30.028,30.028,0,0,1-8.618,3.076,45.486,45.486,0,0,0-8.37,2.57,12.343,12.343,0,0,0-6.283,5.137,7.938,7.938,0,0,0-.83,6.17,2.968,2.968,0,0,1,.051.5,13.44,13.44,0,0,1-4.408-7.6,41.572,41.572,0,0,1-.616-11.211c.163-4.117.564-8.236-.073-12.349A20.738,20.738,0,0,0,1154.34,646.383Z" transform="translate(-468.435 -261.406)"/><path class="e" d="M818.463,457.827c-.882-2.62-2.051-5.12-3.138-7.654a6.058,6.058,0,0,0-.878-1.911c-.138-.341-.3-.674-.412-1.024a37.833,37.833,0,0,1-.927-18.8,28.865,28.865,0,0,0,.583-8.741,21.835,21.835,0,0,0-6.017-12.91c-3.8-3.924-8.591-6.185-13.7-7.85a68.658,68.658,0,0,0-14.1-2.865,59.6,59.6,0,0,0-9.625-.477,95.769,95.769,0,0,0-20.487,3.859c-5.69,1.6-19.466,6.979-20.795,7.639-7.261,3.606-14.507,7.242-21.91,10.552a120.669,120.669,0,0,1-16.147,5.975,19.358,19.358,0,0,1-4.315.948,2.324,2.324,0,0,0-.839.117,75.537,75.537,0,0,1-13.028,1.516,34.581,34.581,0,0,1-4.844-.323,29.337,29.337,0,0,1-8.233-1.721c-3.563-1.451-6.085-3.831-6.915-7.716-.518-2.425.317-5.841,2.557-7.432a23.39,23.39,0,0,1,7.9-3.522c2.95-.751,5.93-1.382,8.8-2.423,3.064-1.112,5.96-2.494,7.8-5.359,1.465-2.282,2.114-4.714.961-7.359A8.181,8.181,0,0,0,678,387.3a3.77,3.77,0,0,0-2.483-.912c0,.691.544,1.1.855,1.621a6.211,6.211,0,0,1-1.225,8.237,18.108,18.108,0,0,1-6.566,3.344c-3.1.832-6.238,1.55-9.287,2.577a20.939,20.939,0,0,0-9.271,5.528,11.686,11.686,0,0,0-2.965,6.317,18.534,18.534,0,0,0,.869,8.565c.883,2.62,2.051,5.12,3.138,7.654a6.063,6.063,0,0,0,.878,1.911c.139.341.3.674.412,1.023a37.832,37.832,0,0,1,.927,18.8,28.871,28.871,0,0,0-.583,8.741,21.836,21.836,0,0,0,6.018,12.91c3.8,3.924,8.591,6.185,13.7,7.85a68.643,68.643,0,0,0,14.1,2.865,59.637,59.637,0,0,0,9.625.477,95.754,95.754,0,0,0,20.487-3.859c5.69-1.6,11.287-3.482,16.807-5.589v-.072q1.995-.988,3.988-1.978c7.261-3.606,14.507-7.241,21.91-10.552a120.657,120.657,0,0,1,16.147-5.975,19.353,19.353,0,0,1,4.315-.948,2.337,2.337,0,0,0,.839-.117,75.505,75.505,0,0,1,13.028-1.516,34.531,34.531,0,0,1,4.844.322,29.328,29.328,0,0,1,8.233,1.721c3.563,1.451,6.085,3.831,6.915,7.716.518,2.425-.317,5.84-2.557,7.432a23.391,23.391,0,0,1-7.9,3.522c-2.95.751-5.93,1.383-8.8,2.423-3.064,1.111-5.96,2.494-7.8,5.359-1.465,2.282-2.115,4.714-.961,7.359a8.181,8.181,0,0,0,2.749,3.048,3.772,3.772,0,0,0,2.483.911c0-.691-.544-1.1-.855-1.62a6.211,6.211,0,0,1,1.225-8.237,18.108,18.108,0,0,1,6.566-3.344c3.1-.832,6.238-1.55,9.287-2.577a20.938,20.938,0,0,0,9.271-5.528,11.685,11.685,0,0,0,2.965-6.317A18.53,18.53,0,0,0,818.463,457.827Z" transform="translate(-93.896 -70.857)"/><g transform="translate(575.334 344.33)"><g transform="translate(0 0)"><path class="f" d="M737.239,599.515l.376-.07,2.73.708q2.3.6,2.854.8a7.844,7.844,0,0,1,1.4.738,8.529,8.529,0,0,1,3.083,3.375,9.391,9.391,0,0,1,1.056,4.571,11.152,11.152,0,0,1-.822,3.453,9.835,9.835,0,0,1-2.33,3.08,7.99,7.99,0,0,1-3.036,1.714,10.138,10.138,0,0,1-3.669.447,27.234,27.234,0,0,1-3.13-.677,15.337,15.337,0,0,1-2.8-.823,2.048,2.048,0,0,1-.687-1.182l-.078-.345,1.819-7.353q1.812-7.322,1.98-7.607a1.967,1.967,0,0,1,.537-.52A1.652,1.652,0,0,1,737.239,599.515Z" transform="translate(-732.188 -572.451)"/><path class="f" d="M806.935,622.56l.022.538,2.47-.1a23.589,23.589,0,0,1,2.6-.028,1.717,1.717,0,0,1,.94.484,1.78,1.78,0,0,1,.5.677,4.973,4.973,0,0,1,.145,1.2l.025.6a6.362,6.362,0,0,1-.087,1.717,1.887,1.887,0,0,1-.975.96,36.031,36.031,0,0,1-5.06.368l-4.781.2-.355-.144a1.876,1.876,0,0,1-.991-.942l-.173-.342-.347-7.6-.114-2.755q-.155-3.736-.138-4.483a1.751,1.751,0,0,1,.258-1.041.363.363,0,0,1,.059-.1,2.479,2.479,0,0,1,.863-.607q.156-.069,5-.271l4.813-.2.323.145a2.019,2.019,0,0,1,1.022.941,5.592,5.592,0,0,1,.23,1.735,6.388,6.388,0,0,1-.086,1.748,1.824,1.824,0,0,1-.969,1.119,13.783,13.783,0,0,1-2.937.312l-2.564.138.022.539,1.679-.07a11.037,11.037,0,0,1,1.745.007,1.481,1.481,0,0,1,.714.4,1.438,1.438,0,0,1,.487.646,7.454,7.454,0,0,1,.137,1.39l.053,1.267-.174.388a1.166,1.166,0,0,1-.451.59,1.891,1.891,0,0,1-.778.365,11.154,11.154,0,0,1-1.643.147Z" transform="translate(-782.695 -580.753)"/><path class="f" d="M855.088,595q.137-.086,4.014-1.571l3.729-1.428.523.037a2.155,2.155,0,0,1,1.467.728,4.119,4.119,0,0,1,.56,1.109,3.83,3.83,0,0,1,.339,1.329,2.264,2.264,0,0,1-.623,1.563,20.937,20.937,0,0,1-3.14,1.372l-2.878,1.17a.467.467,0,0,0,.19.674l2.083-.764a16.424,16.424,0,0,1,2.631-.839,6.163,6.163,0,0,1,3.366.679,6.021,6.021,0,0,1,2.5,2.4,8.541,8.541,0,0,1,.365.776,5.435,5.435,0,0,1,.325,3.507,4.117,4.117,0,0,0-.078.505,7.034,7.034,0,0,1-.338.978,3.345,3.345,0,0,1-.73,1.2,3.944,3.944,0,0,1-.939.784,19.941,19.941,0,0,1-2.117.9l-2.131.817-3.859,1.444-.523-.037a2.3,2.3,0,0,1-.884-.272,2.591,2.591,0,0,1-1.034-1.368l-.17-.444a4,4,0,0,1-.332-1.4,2.3,2.3,0,0,1,.7-1.455,27.277,27.277,0,0,1,3.554-1.531,18.27,18.27,0,0,0,3.365-1.493.308.308,0,0,0-.02-.23l-.011-.029q-.091-.237-.433-.157t-2.2.724q-1.828.632-2.319.769a4.549,4.549,0,0,1-1.2.138,6.146,6.146,0,0,1-3.369-1.085,5.588,5.588,0,0,1-2.021-2.619,7.221,7.221,0,0,1-.251-4.112A4.075,4.075,0,0,1,855.088,595Z" transform="translate(-821.365 -566.96)"/><path class="f" d="M913.145,564.3a24.414,24.414,0,0,1,2.542-1.9,13.206,13.206,0,0,1,2.494-1.518,1.821,1.821,0,0,1,1.446.315,9.487,9.487,0,0,1,1.234,1.575,8.229,8.229,0,0,1,.629,1.029,1.878,1.878,0,0,1-.3,1.973q-.121.16-2.176,1.646l-1.994,1.406-.285.426a3.049,3.049,0,0,0-.455,2.194,2.735,2.735,0,0,0,.49,1.163,3,3,0,0,0,.758.825,3.05,3.05,0,0,0,2.512.468l.473-.094,2.161-1.443q1.865-1.2,2.193-1.369a1.479,1.479,0,0,1,.882-.086,1.567,1.567,0,0,1,.8.354,10.722,10.722,0,0,1,1.024,1.354,11.049,11.049,0,0,1,.9,1.456,1.555,1.555,0,0,1,.051.887,1.594,1.594,0,0,1-.429.832q-.3.286-2.186,1.576-2.143,1.47-2.824,1.821a8.977,8.977,0,0,1-6.7.369,9.163,9.163,0,0,1-3.625-2.317,8.578,8.578,0,0,1-.939-1.2,7.467,7.467,0,0,1-.845-1.457,8.85,8.85,0,0,1-.524-5.443A9.425,9.425,0,0,1,913.145,564.3Z" transform="translate(-863.607 -543.966)"/><path class="f" d="M967.562,538.613a9.469,9.469,0,0,1,2.581-1.287,7.759,7.759,0,0,1,4.832.158,7.643,7.643,0,0,1,3.82,2.938,23.066,23.066,0,0,1,1.3,2.4,13.706,13.706,0,0,1,.772,1.809,7.642,7.642,0,0,1,.4,1.918,7.753,7.753,0,0,1-.762,3.839,7.534,7.534,0,0,1-2.51,3,7.225,7.225,0,0,1-1.071.625,9.176,9.176,0,0,1-1.979.713A7.915,7.915,0,0,1,967.259,552a16.341,16.341,0,0,1-1.47-2.668,14.749,14.749,0,0,1-1.17-2.849,8.178,8.178,0,0,1,.372-4.39A7.841,7.841,0,0,1,967.562,538.613Z" transform="translate(-903.635 -526.373)"/><path class="f" d="M1019.625,511.938a9.263,9.263,0,0,1,2.23-.836l1.912-.574.389.082a1.308,1.308,0,0,1,.625.209q.127.094,2.8,2.5l2.548,2.312-.763-2.65a16.286,16.286,0,0,1-.705-2.9,1.839,1.839,0,0,1,.643-1.054,5.876,5.876,0,0,1,1.715-.68,6.054,6.054,0,0,1,1.836-.386,2.023,2.023,0,0,1,1.127.555q.136.125,2.4,7.552l1.668,5.555q.583,1.942.58,2.042a1.829,1.829,0,0,1-.61,1.275l-.331.331-1.852.556a8.219,8.219,0,0,1-2.2.5,1.421,1.421,0,0,1-.665-.23q-.294-.209-2.815-2.431l-2.52-2.221.748,2.489a25.607,25.607,0,0,1,.655,2.566,1.8,1.8,0,0,1-.828,1.539,10.353,10.353,0,0,1-1.571.554,5.889,5.889,0,0,1-1.776.368,1.942,1.942,0,0,1-1.135-.585l-.234-.228-2.227-7.306-1.222-4.067-.67-2.231a7.026,7.026,0,0,1-.266-1.161,3.3,3.3,0,0,1-.04-.518,2.08,2.08,0,0,1,.13-.337A2.04,2.04,0,0,1,1019.625,511.938Z" transform="translate(-943.932 -504.925)"/><path class="f" d="M1086.7,498.2q.208-.122,6.9-.985l6.668-.827.37.144a2.021,2.021,0,0,1,.607.5l.265.317.441,3.426-.148.339a1.249,1.249,0,0,1-.375.56,1.741,1.741,0,0,1-.745.416,16.384,16.384,0,0,1-1.815.3l-1.76.227q.238,1.855.746,5.544t.746,5.544l-.171.405a1.829,1.829,0,0,1-.493.639l-.286.26-3.52.453-.343-.179a1.566,1.566,0,0,1-.635-.461l-.233-.321-.78-5.556-.748-5.56q-.884.082-1.921.216l-1.922.216-.339-.148a1.786,1.786,0,0,1-.951-.932,6.182,6.182,0,0,1-.276-1.4,9.516,9.516,0,0,1-.121-1.934,1.735,1.735,0,0,1,.31-.7A1.449,1.449,0,0,1,1086.7,498.2Z" transform="translate(-993.219 -496.385)"/><path class="f" d="M1157.66,496.643a9.472,9.472,0,0,1,2.884.027,7.759,7.759,0,0,1,4.232,2.337,7.646,7.646,0,0,1,2.066,4.353,23.139,23.139,0,0,1,.071,2.727,13.755,13.755,0,0,1-.135,1.963,7.666,7.666,0,0,1-.514,1.891,7.757,7.757,0,0,1-2.424,3.073,7.538,7.538,0,0,1-3.6,1.527,7.154,7.154,0,0,1-1.238.07,9.182,9.182,0,0,1-2.087-.265,7.916,7.916,0,0,1-5.617-5.916,16.331,16.331,0,0,1-.1-3.045,14.714,14.714,0,0,1,.253-3.07,8.176,8.176,0,0,1,2.328-3.74A7.838,7.838,0,0,1,1157.66,496.643Z" transform="translate(-1041.445 -496.503)"/></g></g></g></svg>