<svg xmlns="http://www.w3.org/2000/svg" xmlns:xlink="http://www.w3.org/1999/xlink" viewBox="0 0 100.62 85.7"><defs><style>.cls-1{fill:none;}.cls-2{fill:#fff;}.cls-3{fill:#006938;}.cls-4{fill:#94c93b;}.cls-5{clip-path:url(#clip-path);}.cls-6{fill:#f0d0b4;}.cls-7{fill:#ff0030;}.cls-8{fill:#f7931e;}</style><clipPath id="clip-path" transform="translate(0 -19.88)"><path class="cls-1" d="M13.6,51S28.76,71.17,47.72,72.7C66.89,74.24,86.8,55.83,86.8,55.83L82.3,13.19,65.73.8,44.87,0,20.26,5.79l-12,14.09L6.52,34.59Z"/></clipPath></defs><g id="Camada_2" data-name="Camada 2"><g id="Camada_1-2" data-name="Camada 1"><path class="cls-2" d="M89,88.65c0,3.06-7.76,5.75-19.25,7.17A152.28,152.28,0,0,1,51.1,96.89,147.43,147.43,0,0,1,29.39,95.4c-9.79-1.49-16.19-4-16.19-6.75,0-2.36,4.57-4.51,11.92-6-3.43,1.31-5.43,2.9-5.43,4.61,0,2.75,5.23,5.19,13.23,6.65a99.87,99.87,0,0,0,17.74,1.47,103.2,103.2,0,0,0,15.21-1c9.4-1.4,15.74-4,15.74-7.07,0-1.89-2.47-3.65-6.62-5C83.53,83.74,89,86.06,89,88.65Z" transform="translate(0 -19.88)"/><path class="cls-2" d="M44.14,99.88c1.55,0,3.09,0,4.63,0s3.08,0,4.62-.07c3.08-.1,6.15-.22,9.21-.46s6.12-.56,9.17-.93c1.53-.19,3-.42,4.57-.71s3-.6,4.58-.82a53.23,53.23,0,0,1-9,2.67,69.14,69.14,0,0,1-9.24,1.29,78.17,78.17,0,0,1-9.31.11A58.67,58.67,0,0,1,44.14,99.88Z" transform="translate(0 -19.88)"/><path class="cls-2" d="M62.77,104a75.44,75.44,0,0,1-13,1.55,91.76,91.76,0,0,1-13.05-.4,79,79,0,0,1-12.9-2.32,67.93,67.93,0,0,1-12.39-4.53c2.12.57,4.15,1.41,6.28,1.86l3.15.86,3.17.68a116.19,116.19,0,0,0,12.81,1.95c4.29.45,8.6.67,12.92.75,2.16,0,4.32,0,6.48-.07S60.6,104.11,62.77,104Z" transform="translate(0 -19.88)"/><path class="cls-2" d="M14.72,82.24c-2.82.67-5.63,1.26-8.27,2.14A10.82,10.82,0,0,0,3,86.12a2.17,2.17,0,0,0-.44.54,1.08,1.08,0,0,0-.11.47,1.88,1.88,0,0,0,.5,1.2A9.62,9.62,0,0,0,6,90.61a36.15,36.15,0,0,0,3.84,1.73l8.1,3a32,32,0,0,1-8.64-.91,25.4,25.4,0,0,1-4.24-1.41,11,11,0,0,1-4-2.91A4.81,4.81,0,0,1,0,87a4.24,4.24,0,0,1,.53-1.8A4.13,4.13,0,0,1,1.6,84,10.18,10.18,0,0,1,6,82.32,26.69,26.69,0,0,1,14.72,82.24Z" transform="translate(0 -19.88)"/><path class="cls-2" d="M86.3,82.24a31,31,0,0,1,8.63.43,10.32,10.32,0,0,1,4.27,1.72,3.93,3.93,0,0,1,1,1,3.55,3.55,0,0,1,.45,1.57,4.3,4.3,0,0,1-1,2.83,10.56,10.56,0,0,1-3.87,2.8,26.21,26.21,0,0,1-4.17,1.47,38.25,38.25,0,0,1-8.54,1.27c2.77-.85,5.51-1.71,8.19-2.68A33,33,0,0,0,95.17,91a9.87,9.87,0,0,0,3.27-2.38A2.43,2.43,0,0,0,99,87.1a1.63,1.63,0,0,0-.18-.69,2.47,2.47,0,0,0-.55-.64A10.65,10.65,0,0,0,94.65,84,65.86,65.86,0,0,0,86.3,82.24Z" transform="translate(0 -19.88)"/><path class="cls-2" d="M26.65,80.77c-1.77-1.64-3.51-3.3-5.22-5a25.79,25.79,0,0,1-2.55-2.57,16.76,16.76,0,0,1-2-3.18l.1-.1a14.32,14.32,0,0,1,2.86,2.2,26.54,26.54,0,0,1,2.36,2.79q2.32,2.84,4.57,5.75Z" transform="translate(0 -19.88)"/><path class="cls-2" d="M28.19,79.43c-.66-1.36-1.28-2.75-1.86-4.14a11.32,11.32,0,0,1-.84-2.11,7.3,7.3,0,0,1-.15-2.4l.13,0a6.41,6.41,0,0,1,1.27,1.92,11.9,11.9,0,0,1,.59,2.22c.36,1.49.69,3,1,4.51Z" transform="translate(0 -19.88)"/><path class="cls-2" d="M70.72,80.84q1.41-3.51,2.92-7a29.59,29.59,0,0,1,1.55-3.44,16.5,16.5,0,0,1,2.18-3l.12.07a17.52,17.52,0,0,1-1.14,3.7,30.63,30.63,0,0,1-1.78,3.29q-1.81,3.26-3.74,6.47Z" transform="translate(0 -19.88)"/><path class="cls-2" d="M74.07,80.07c1.07-1,2.15-1.93,3.26-2.85A8.8,8.8,0,0,1,79,75.9a5.17,5.17,0,0,1,2.06-.62l.07.13a6.44,6.44,0,0,1-1.44,1.77,8.36,8.36,0,0,1-1.82,1.07c-1.23.69-2.48,1.34-3.74,2Z" transform="translate(0 -19.88)"/><path class="cls-3" d="M60.81,68.81a3.6,3.6,0,0,1-.79-.72,4.1,4.1,0,0,1-.56-1,4.79,4.79,0,0,1-.31-1.2,6.5,6.5,0,0,1,0-1.41,11,11,0,0,1,1-3.58,17,17,0,0,1,2.18-3.55,19.19,19.19,0,0,1,3.05-3.06,14.77,14.77,0,0,1,3.54-2.12,9.9,9.9,0,0,1,1.65-.54,8.16,8.16,0,0,1,1.49-.2,5.1,5.1,0,0,1,1.32.13,4.24,4.24,0,0,1,1.1.41h0a41.51,41.51,0,0,0-4.3-2.08,46,46,0,0,0-4.37-1.59c-1.49-.47-1.54-.48-4.44-1.18-1.49-.33-1.54-.34-4.48-.82-1.5-.21-1.5-.21-4.52-.47h0s-.06,0-.09.09a2,2,0,0,0-.1.3,4.94,4.94,0,0,0-.12.51c0,.21-.09.45-.14.73-.13.78-.27,1.77-.41,2.89s-.28,2.39-.41,3.71-.24,2.67-.34,4-.18,2.59-.23,3.73q0,1-.06,1.68t0,1.2c0,.32,0,.57.05.73s.06.24.1.24h0A23.12,23.12,0,0,1,53,66a22.64,22.64,0,0,1,2.33.49c.77.21.8.21,2.14.67a17.29,17.29,0,0,1,1.85.8,13.15,13.15,0,0,1,1.5.87Z" transform="translate(0 -19.88)"/><path class="cls-3" d="M42.29,71.74A20.89,20.89,0,0,1,40,71a14.59,14.59,0,0,1-1.82-.85,10.23,10.23,0,0,1-1.27-.82c-.18-.13-.38-.24-.57-.35a3.67,3.67,0,0,1,.37-.34,6.88,6.88,0,0,1,1-.67,14.64,14.64,0,0,1,1.45-.72,2.79,2.79,0,0,0,.83-.55,3.38,3.38,0,0,0,.64-.87A4.75,4.75,0,0,0,41,64.61a6.88,6.88,0,0,0,.16-1.49,12.44,12.44,0,0,0-.54-3.66,19.18,19.18,0,0,0-1.56-3.79,20.42,20.42,0,0,0-2.33-3.4A13.67,13.67,0,0,0,34,49.74a8.65,8.65,0,0,0-1.24-.69,5.79,5.79,0,0,0-1.15-.39,4.18,4.18,0,0,0-1-.1,3.07,3.07,0,0,0-.92.18,39.1,39.1,0,0,0-4.24,1.78,32.68,32.68,0,0,0-4,2.27,29.44,29.44,0,0,0-3.59,2.79A25.08,25.08,0,0,0,14.72,59a22.09,22.09,0,0,0-2.39,4l-.05.11A6.68,6.68,0,0,1,13.86,61a9.49,9.49,0,0,1,2.53-1.63,13.1,13.1,0,0,1,3.3-1,17,17,0,0,1,3.88-.15,18.26,18.26,0,0,1,4.92,1.07,15.68,15.68,0,0,1,4.05,2.19,10.45,10.45,0,0,1,2.71,3,6.73,6.73,0,0,1,1,3.39c0,.33-.08.66-.12,1a6.66,6.66,0,0,0-.91-.37,7.92,7.92,0,0,0-2.13-.33,11.12,11.12,0,0,0-2.5.24,15.93,15.93,0,0,0-2.79.88,19.62,19.62,0,0,0-4.47,2.6,20.84,20.84,0,0,0-3.64,3.56,15.66,15.66,0,0,0-2.37,4,9.1,9.1,0,0,0-.68,3.9,6,6,0,0,0,.15,1,4.91,4.91,0,0,0,.31.89,4.16,4.16,0,0,0,.44.77,4.5,4.5,0,0,0,.57.66,34,34,0,0,0,4.55,3.64,40.24,40.24,0,0,0,5.12,2.91,47.9,47.9,0,0,0,5.54,2.22,50.85,50.85,0,0,0,5.86,1.56c1.78.33,4.15.69,5.93.92h0c-.75-1.22.41-14.54,1.71-22,.51-2.8.73-3,.9-3.16-.84-.09-2-.24-2.79-.37A24.65,24.65,0,0,1,42.29,71.74Z" transform="translate(0 -19.88)"/><path class="cls-3" d="M88.52,70.78l0-.32a6.53,6.53,0,0,0-1.14-2.94A10,10,0,0,0,84.81,65a14.61,14.61,0,0,0-3.71-1.84,18.53,18.53,0,0,0-4.56-.92.5.5,0,0,1,0,.13,19.5,19.5,0,0,0-5.28.28,15.49,15.49,0,0,0-4.39,1.56,9.89,9.89,0,0,0-3.07,2.55,6.43,6.43,0,0,0-1.25,2.88l-.11.12a4.14,4.14,0,0,1-.63.5,9.28,9.28,0,0,1-1.26.69h0c3-1.31,6.52.92,7.68,1.65,8,5.64,11.8,16.55,6.89,19.78l.08-.05A33.75,33.75,0,0,0,80.09,89a28.66,28.66,0,0,0,4-4,23.89,23.89,0,0,0,2.81-4.58,20.58,20.58,0,0,0,1.45-4.6A20.91,20.91,0,0,0,88.52,70.78Zm-26-1a1.08,1.08,0,0,1,0,.19C62.51,69.93,62.52,69.88,62.53,69.83Zm5.7,2.78h0Z" transform="translate(0 -19.88)"/><path class="cls-4" d="M48,65.58c.74,0,1.74,0,2.48.09,0,0-.07-.08-.1-.24s0-.41-.05-.73,0-.72,0-1.2,0-1,.06-1.68c0-1.14.13-2.41.23-3.73s.22-2.68.34-4,.27-2.58.41-3.71.28-2.11.41-2.89c0-.28.1-.52.14-.73a4.94,4.94,0,0,1,.12-.51,2,2,0,0,1,.1-.3q0-.1.09-.09c-1.35-.07-3.15-.13-4.5-.15-1.53,0-1.53,0-4.54.19-1.54.12-1.54.12-4.53.53-1.57.25-1.57.25-4.51.92a46,46,0,0,0-4.5,1.35l-.07,0a3.07,3.07,0,0,1,.92-.18,4.18,4.18,0,0,1,1,.1,5.79,5.79,0,0,1,1.15.39,8.65,8.65,0,0,1,1.24.69,13.67,13.67,0,0,1,2.79,2.53,20.42,20.42,0,0,1,2.33,3.4,19.18,19.18,0,0,1,1.56,3.79,12.44,12.44,0,0,1,.54,3.66A6.88,6.88,0,0,1,41,64.61a4.75,4.75,0,0,1-.42,1.19,3.38,3.38,0,0,1-.64.87,2.79,2.79,0,0,1-.83.55h0a16.91,16.91,0,0,1,1.9-.67A20.1,20.1,0,0,1,43.22,66c.77-.14.77-.14,2.35-.32A23.83,23.83,0,0,1,48,65.58Z" transform="translate(0 -19.88)"/><path class="cls-4" d="M36.68,69.12,36.5,69l-.28-.27s-.06-.09-.1-.13a1.5,1.5,0,0,0,0-.2,2.56,2.56,0,0,1,0-.27,1.31,1.31,0,0,1,.06-.27,6.73,6.73,0,0,0-1-3.39,10.45,10.45,0,0,0-2.71-3,15.68,15.68,0,0,0-4.05-2.19,18.26,18.26,0,0,0-4.92-1.07,17,17,0,0,0-3.88.15,13.1,13.1,0,0,0-3.3,1A9.49,9.49,0,0,0,13.86,61a6.68,6.68,0,0,0-1.58,2.16,21.17,21.17,0,0,0-1.36,4.49,20.34,20.34,0,0,0-.19,4.8,21.6,21.6,0,0,0,1.15,5,23.59,23.59,0,0,0,2.46,4.74,28.55,28.55,0,0,0,3.77,4.43,4.5,4.5,0,0,1-.57-.66,4.16,4.16,0,0,1-.44-.77,4.91,4.91,0,0,1-.31-.89,6,6,0,0,1-.15-1,9.1,9.1,0,0,1,.68-3.9,15.66,15.66,0,0,1,2.37-4,20.84,20.84,0,0,1,3.64-3.56,19.62,19.62,0,0,1,4.47-2.6,15.93,15.93,0,0,1,2.79-.88,11.12,11.12,0,0,1,2.5-.24,7.92,7.92,0,0,1,2.13.33,5.78,5.78,0,0,1,.88.36s0,.07,0,.1v-.09a5.34,5.34,0,0,1,.8.49Z" transform="translate(0 -19.88)"/><path class="cls-4" d="M68.21,72.62c-4.4-2.91-6.87-2-7.68-1.65a13.83,13.83,0,0,1-1.86.71,17.94,17.94,0,0,1-2.35.6,23.28,23.28,0,0,1-2.69.39,25.79,25.79,0,0,1-2.89.15c-1,0-1,0-3-.12h-.07c-.25.14-.49,1-.9,3.16-1.15,6.42-2.51,20.83-1.71,22h.15a52.7,52.7,0,0,0,6.19.29,52.55,52.55,0,0,0,6.19-.37,49.55,49.55,0,0,0,6.09-1,46,46,0,0,0,5.89-1.79A39.3,39.3,0,0,0,75.1,92.4C79.76,89.71,76.94,78.84,68.21,72.62Z" transform="translate(0 -19.88)"/><path class="cls-4" d="M87.43,66a24.3,24.3,0,0,0-2.17-4.3,26.91,26.91,0,0,0-3-3.72,32.09,32.09,0,0,0-3.55-3.15A39.61,39.61,0,0,0,74.41,52a4.24,4.24,0,0,0-1.1-.41A5.1,5.1,0,0,0,72,51.47a8.16,8.16,0,0,0-1.49.2,9.9,9.9,0,0,0-1.65.54,14.77,14.77,0,0,0-3.54,2.12,19.19,19.19,0,0,0-3.05,3.06,17,17,0,0,0-2.18,3.55,11,11,0,0,0-1,3.58,6.5,6.5,0,0,0,0,1.41,4.79,4.79,0,0,0,.31,1.2,4.1,4.1,0,0,0,.56,1,3.6,3.6,0,0,0,.79.72,9.24,9.24,0,0,1,1.07.84,4.79,4.79,0,0,1,.5.55l.16.24,0-.08c0-.14,0-.16,0-.31V70a6.2,6.2,0,0,1,1.31-3.26,9.74,9.74,0,0,1,3.06-2.56,15.17,15.17,0,0,1,4.4-1.58,18.93,18.93,0,0,1,5.26-.31,18.53,18.53,0,0,1,4.56.92A14.61,14.61,0,0,1,84.81,65a10,10,0,0,1,2.54,2.51,6.53,6.53,0,0,1,1.14,2.94A21.42,21.42,0,0,0,87.43,66Z" transform="translate(0 -19.88)"/><g class="cls-5"><path class="cls-6" d="M43.17,51.34c-.5-.13-1.2-.34-1.8-.54s-1.25-.42-1.86-.65A36.51,36.51,0,0,1,36,48.6,18.11,18.11,0,0,1,33,46.75a7.58,7.58,0,0,1-1-.93l-.58-.72-.6-.81c-1.58-2.24-3.11-4.71-4.59-7.18s-3-5-4.37-7.52h0a1.71,1.71,0,0,0-3.13,1.35c.88,2.82,1.78,5.6,2.74,8.4s1.95,5.56,3.17,8.41l.49,1.09L25.73,50a14.4,14.4,0,0,0,1.8,2.41,25.92,25.92,0,0,0,4,3.44,43.38,43.38,0,0,0,4.13,2.58c.7.39,1.41.76,2.13,1.12s1.39.68,2.26,1l.12.05a4.89,4.89,0,0,0,3.76-9A5,5,0,0,0,43.17,51.34Z" transform="translate(0 -19.88)"/><path class="cls-7" d="M53.87,51a6.65,6.65,0,0,1,7,6.77c-.15,6.39-4.68,13.58-5.08,19.3-.3,4.34,1.66,10.06,2.1,14.64A6.59,6.59,0,0,1,51,99L42,98.5a6.62,6.62,0,0,1-6.19-5.69c-.59-4.2,1.92-9.53,2.35-15.74.26-3.76-.24-17,1.12-20.62,1.19-3.11,3.1-5,6.42-5.1Z" transform="translate(0 -19.88)"/><path class="cls-6" d="M43.9,41.74l-5.15.48,0-.79L36,41.56l1.35-5.36a24.67,24.67,0,0,0,.43-2.55,5.6,5.6,0,0,1,5.29-4.85l5.26-.25a3.14,3.14,0,0,1,3.28,3l.82,17.59-7.71.36a5.61,5.61,0,0,1-5.54-3.72C43.87,45.63,43.9,41.74,43.9,41.74Z" transform="translate(0 -19.88)"/><path class="cls-8" d="M45.18,29.71l-5.79.76a3,3,0,0,1-2.62-3.15c0-1.81,3.89-3.08,9.89-4.11,4.62-.8,9.92,1.46,13.87,4.62C63.78,30.42,71,38.9,79.46,36.39L71.07,53.92a52.45,52.45,0,0,1-10.54-3.23,17.49,17.49,0,0,1-8.4-7.51l-.32-6.84Z" transform="translate(0 -19.88)"/><circle class="cls-6" cx="51.92" cy="18.89" r="1.67"/><path d="M40.06,33.66a.19.19,0,0,1-.12,0,.19.19,0,0,1,0-.25,2.35,2.35,0,0,1,1.57-.81,1.76,1.76,0,0,1,1.3.62.18.18,0,0,1,0,.25.18.18,0,0,1-.25,0,1.46,1.46,0,0,0-1-.51,2,2,0,0,0-1.3.69A.2.2,0,0,1,40.06,33.66Z" transform="translate(0 -19.88)"/><path class="cls-6" d="M46.46,53,46,43.29,52.12,43l.41,8.72a1.79,1.79,0,0,1-.72,1.51L49.9,54.65A2.16,2.16,0,0,1,46.46,53Z" transform="translate(0 -19.88)"/><path class="cls-8" d="M51.81,36.34s-7.65.82-8.57-6.74l7.95-1.77Z" transform="translate(0 -19.88)"/><path d="M40.63,36.19a.17.17,0,0,1-.16-.09.18.18,0,0,1,.07-.24,2.23,2.23,0,0,1,1.81-.15.17.17,0,0,1,.08.24.19.19,0,0,1-.24.08,2,2,0,0,0-1.48.14A.13.13,0,0,1,40.63,36.19Z" transform="translate(0 -19.88)"/><path class="cls-6" d="M61.38,58.84c2.35-2.41,4.56-4.79,6.76-7.31,1.09-1.26,2.17-2.55,3.23-4,.53-.69,1-1.43,1.57-2.25a12.38,12.38,0,0,0,1.35-2.82,31.6,31.6,0,0,0,1.22-5.15c.27-1.67.44-3.32.59-5,.27-3.29.38-6.53.37-9.82a1.41,1.41,0,0,0-2.81-.21v0c-.48,3.12-1.08,6.26-1.82,9.32-.37,1.52-.77,3-1.25,4.48a25.51,25.51,0,0,1-1.63,4,6,6,0,0,1-1,1.4c-.45.45-1,.93-1.53,1.41-1.13,1-2.35,1.92-3.59,2.86-2.49,1.86-5.12,3.71-7.69,5.42h0a4.89,4.89,0,1,0,5.42,8.15A5.64,5.64,0,0,0,61.38,58.84Z" transform="translate(0 -19.88)"/><ellipse class="cls-6" cx="20.26" cy="29.54" rx="2.61" ry="2.58" transform="translate(-14.64 17.74) rotate(-68.6)"/><path class="cls-6" d="M21.34,31.4a.76.76,0,0,1-.69-.43.78.78,0,0,1,.34-1,3.33,3.33,0,0,0,1.39-1.63.78.78,0,0,1,1.45.56,5,5,0,0,1-2.15,2.46A.71.71,0,0,1,21.34,31.4Z" transform="translate(0 -19.88)"/><ellipse class="cls-6" cx="75.07" cy="22.49" rx="2.61" ry="2.58" transform="translate(26.73 64.29) rotate(-68.6)"/><path class="cls-6" d="M76.14,24.35a.78.78,0,0,1-.34-1.47c.71-.35,1.12-1.7,1.21-2.14a.77.77,0,0,1,1.52.3c0,.25-.53,2.47-2,3.22A.73.73,0,0,1,76.14,24.35Z" transform="translate(0 -19.88)"/></g></g></g></svg>