<svg xmlns="http://www.w3.org/2000/svg" xmlns:xlink="http://www.w3.org/1999/xlink" viewBox="0 0 96.71 97.12"><defs><style>.cls-1{fill:none;}.cls-2{fill:#fff;}.cls-3{fill:#94c93b;}.cls-4{fill:#41b1c3;}.cls-5{clip-path:url(#clip-path);}.cls-6{fill:#dfb28b;}.cls-7{fill:#e52139;}.cls-8{fill:#cf9e76;}</style><clipPath id="clip-path" transform="translate(-6.33 -10.18)"><path class="cls-1" d="M65.45,65.5S60,68.85,50.6,68.93A65.23,65.23,0,0,1,30.51,65.6l-8.31.18L0,65.5l2.22-25L8.8,8.91,23.21,4.78l16.37.12L55.9,2.72,88.45,0,98.73,12.14,93.67,42l-7.08,7.55-6.16,8.54Z"/></clipPath></defs><g id="Camada_2" data-name="Camada 2"><g id="Camada_1-2" data-name="Camada 1"><path class="cls-2" d="M91.08,89.09c0,3.3-8,6.19-19.81,7.71A148.27,148.27,0,0,1,52.11,98a144,144,0,0,1-22.33-1.6c-10.07-1.6-16.66-4.25-16.66-7.26,0-2.53,4.71-4.84,12.27-6.44-3.53,1.4-5.59,3.11-5.59,5,0,3,5.38,5.57,13.61,7.14a98.37,98.37,0,0,0,18.25,1.58A101.84,101.84,0,0,0,67.31,95.2C77,93.7,83.5,90.86,83.5,87.61c0-2-2.54-3.93-6.81-5.4C85.47,83.82,91.08,86.31,91.08,89.09Z" transform="translate(-6.33 -10.18)"/><path class="cls-2" d="M45,101.17c1.59,0,3.18,0,4.77,0s3.17,0,4.75-.07c3.16-.12,6.32-.24,9.47-.5s6.29-.6,9.44-1c1.57-.21,3.14-.45,4.7-.77s3.12-.64,4.7-.88a52.55,52.55,0,0,1-9.24,2.88A66.65,66.65,0,0,1,64,102.21a76.42,76.42,0,0,1-9.57.13A59.83,59.83,0,0,1,45,101.17Z" transform="translate(-6.33 -10.18)"/><path class="cls-2" d="M64.11,105.55a74.76,74.76,0,0,1-13.32,1.66,91.31,91.31,0,0,1-13.43-.43,78.53,78.53,0,0,1-13.27-2.49,67.66,67.66,0,0,1-12.75-4.88c2.18.62,4.27,1.52,6.46,2l3.24.92,3.27.73a113.81,113.81,0,0,0,13.17,2.1c4.42.49,8.85.72,13.29.8,2.22,0,4.45,0,6.67-.07S61.89,105.72,64.11,105.55Z" transform="translate(-6.33 -10.18)"/><path class="cls-2" d="M88.32,82.21a30.09,30.09,0,0,1,8.87.46,10.41,10.41,0,0,1,4.4,1.85,4,4,0,0,1,1,1.12,3.88,3.88,0,0,1,.47,1.7,4.81,4.81,0,0,1-1,3,11.09,11.09,0,0,1-4,3A27.54,27.54,0,0,1,93.79,95,38.21,38.21,0,0,1,85,96.33c2.84-.91,5.66-1.84,8.42-2.87a35.47,35.47,0,0,0,4-1.81,10.2,10.2,0,0,0,3.36-2.56,2.65,2.65,0,0,0,.61-1.66,1.68,1.68,0,0,0-.19-.74,2.7,2.7,0,0,0-.56-.69,11.05,11.05,0,0,0-3.76-1.87A67.31,67.31,0,0,0,88.32,82.21Z" transform="translate(-6.33 -10.18)"/><path class="cls-2" d="M27,80.63Q24.23,78,21.59,75.26A29.87,29.87,0,0,1,19,72.49a18.6,18.6,0,0,1-2.09-3.41L17,69a15.27,15.27,0,0,1,2.95,2.37,28.57,28.57,0,0,1,2.42,3c1.6,2,3.16,4.09,4.7,6.18Z" transform="translate(-6.33 -10.18)"/><path class="cls-2" d="M28.54,79.19c-.67-1.47-1.31-3-1.91-4.46a11.93,11.93,0,0,1-.86-2.27,8,8,0,0,1-.16-2.57l.13-.06a7,7,0,0,1,1.31,2.07,12.79,12.79,0,0,1,.61,2.38c.37,1.61.71,3.22,1,4.85Z" transform="translate(-6.33 -10.18)"/><path class="cls-2" d="M72.29,80.71q1.45-3.79,3-7.51a30.38,30.38,0,0,1,1.59-3.69,17.43,17.43,0,0,1,2.25-3.27l.12.08a20.08,20.08,0,0,1-1.17,4,31.18,31.18,0,0,1-1.84,3.54c-1.24,2.34-2.53,4.66-3.84,7Z" transform="translate(-6.33 -10.18)"/><path class="cls-2" d="M75.74,79.87c1.1-1.05,2.21-2.07,3.35-3.05a9.67,9.67,0,0,1,1.73-1.43,5.18,5.18,0,0,1,2.12-.67l.07.14a6.79,6.79,0,0,1-1.48,1.91,9,9,0,0,1-1.87,1.15c-1.26.74-2.55,1.43-3.85,2.09Z" transform="translate(-6.33 -10.18)"/><path class="cls-3" d="M30.55,69c4.35-2.86,7-2.07,8-1.77a18.68,18.68,0,0,0,2.33.72,27.25,27.25,0,0,0,2.93.57c1.09.16,1.09.16,3.32.33,1.15.06,1.15.06,3.51,0,1.19,0,1.19,0,3.55-.24h.09c.08,0,.16,0,.26.16a2.93,2.93,0,0,1,.31.52c.11.24.22.55.35.92s.26.82.4,1.33c.34,1.24.68,2.77,1,4.47s.66,3.61.94,5.55.53,3.92.73,5.81.33,3.67.39,5.22c0,.77,0,1.45,0,2s0,1.06-.07,1.44a3.78,3.78,0,0,1-.17.87c-.07.2-.15.3-.25.32l-.18,0a66.22,66.22,0,0,1-7,.55,67.13,67.13,0,0,1-7.08-.14,61.87,61.87,0,0,1-7-.86,54.23,54.23,0,0,1-6.83-1.64,47.38,47.38,0,0,1-6.43-2.44C17.6,89.91,20.5,76.16,30.55,69Z" transform="translate(-6.33 -10.18)"/><path class="cls-3" d="M6.46,67.85A22.35,22.35,0,0,1,7.92,62.4a26,26,0,0,1,2.72-4.78,30.6,30.6,0,0,1,3.58-4,35.43,35.43,0,0,1,4.17-3.34c1.11-.73,2.61-1.64,3.76-2.31,2.38-1.27,5-.5,6.25-.13A15.68,15.68,0,0,1,32.59,50a19.55,19.55,0,0,1,3.63,3.35,18.41,18.41,0,0,1,2.62,4A12.74,12.74,0,0,1,40,61.56a8.32,8.32,0,0,1,0,1.81,6.56,6.56,0,0,1-.41,1.54,5,5,0,0,1-.74,1.25,4.89,4.89,0,0,1-1,.94,10.49,10.49,0,0,0-.94.72,4.37,4.37,0,0,0-.53.54l-.06.08a2.58,2.58,0,0,0,.13-.42,3.61,3.61,0,0,0,0-.79c.26-1.48-3.31-9.56-16.27-8.71a20.91,20.91,0,0,0-5.36,1.24,16.84,16.84,0,0,0-4.32,2.37A11.93,11.93,0,0,0,7.56,65.3,8,8,0,0,0,6.36,69Z" transform="translate(-6.33 -10.18)"/><path class="cls-3" d="M52.13,40.54c1.72,0,1.72,0,5.13,0,1.74.07,1.74.07,5.14.39,1.78.2,1.78.2,5.14.77,1.83.36,1.89.37,5.14,1.22l.09,0a3.71,3.71,0,0,0-1-.13,4,4,0,0,0-1.06.12,5.79,5.79,0,0,0-1.15.39,10,10,0,0,0-1.22.67h0a14.2,14.2,0,0,0-3,2.81,20.83,20.83,0,0,0-2.51,3.88,21.61,21.61,0,0,0-1.67,4.4,15.67,15.67,0,0,0-.52,4.31,9.42,9.42,0,0,0,.25,2,6.25,6.25,0,0,0,.58,1.53A4.35,4.35,0,0,0,62.34,64a3.17,3.17,0,0,0,1.09.64h0A21.67,21.67,0,0,0,61.06,64c-.88-.2-.91-.21-2.65-.49-.93-.12-.93-.12-2.84-.26-1-.05-1-.05-3,0-.88,0-2,.12-2.93.2.31,0,.37-1.71.2-5-.09-1.36-.21-2.84-.36-4.36S49.19,51,49,49.51s-.42-2.87-.64-4.1-.44-2.27-.65-3.07c-.34-1.27-.45-1.35-.65-1.5C48.57,40.72,50.61,40.61,52.13,40.54Z" transform="translate(-6.33 -10.18)"/><path class="cls-2" d="M60.65,67.43a26.9,26.9,0,0,0,2.63-.9,17.6,17.6,0,0,0,2-1l.15-.08-.21-.11a14.56,14.56,0,0,0-1.81-.75A3.17,3.17,0,0,1,62.34,64a4.35,4.35,0,0,1-.87-1.09,6.25,6.25,0,0,1-.58-1.53,9.42,9.42,0,0,1-.25-2,15.67,15.67,0,0,1,.52-4.31,21.61,21.61,0,0,1,1.67-4.4,20.83,20.83,0,0,1,2.51-3.88,14.2,14.2,0,0,1,3-2.81,10,10,0,0,1,1.22-.67A5.79,5.79,0,0,1,70.75,43a4,4,0,0,1,1.06-.12,3.71,3.71,0,0,1,1,.13,51.54,51.54,0,0,1,4.88,1.66,42,42,0,0,1,4.65,2.17,36.93,36.93,0,0,1,4.29,2.74A30.7,30.7,0,0,1,90.43,53a25.9,25.9,0,0,1,3.16,4.25l.08.13C92,54.83,88.52,51.9,81,52.42a20,20,0,0,0-5.6,1.39,17.41,17.41,0,0,0-4.57,2.7,12.53,12.53,0,0,0-3,3.61,8.33,8.33,0,0,0-1.06,4.07l0,.5a6.83,6.83,0,0,1,1.89-1A9.52,9.52,0,0,1,71,63.17a12.86,12.86,0,0,1,2.82.08A16.81,16.81,0,0,1,77,64a21.31,21.31,0,0,1,5.31,2.66,22,22,0,0,1,4.36,3.89,17.63,17.63,0,0,1,2.88,4.57,10.79,10.79,0,0,1,.91,4.62,7.93,7.93,0,0,1-.17,1.32,6.53,6.53,0,0,1-.39,1.18,6,6,0,0,1-.57,1,5.8,5.8,0,0,1-.75.89,38.65,38.65,0,0,1-5.09,4.15,46.41,46.41,0,0,1-5.74,3.33,54.93,54.93,0,0,1-6.23,2.59,59.47,59.47,0,0,1-6.6,1.89c-2,.41-4.68.89-6.7,1.21.1,0,.18-.12.25-.32a3.78,3.78,0,0,0,.17-.87c0-.38.06-.87.07-1.44s0-1.26,0-2c-.06-1.55-.2-3.33-.39-5.22s-.45-3.87-.73-5.81-.6-3.83-.94-5.55-.67-3.23-1-4.47c-.14-.51-.27-1-.4-1.33s-.24-.68-.35-.92a2.93,2.93,0,0,0-.31-.52c-.1-.12-.18-.17-.26-.16,1-.13,2.32-.33,3.31-.5S58.7,68,60.65,67.43Z" transform="translate(-6.33 -10.18)"/><path class="cls-4" d="M36.42,67.09l0-.16h0Z" transform="translate(-6.33 -10.18)"/><path class="cls-2" d="M6.62,73.66A21,21,0,0,0,9,80.31a28.4,28.4,0,0,0,3.69,4.94,33.65,33.65,0,0,0,4.9,4.15,42.17,42.17,0,0,0,5.89,3.36l.11,0C17.15,89.24,21.1,75.69,30.55,69a11.85,11.85,0,0,1,5.84-2.11,1.6,1.6,0,0,0,0-.21,1.29,1.29,0,0,1,0,.21,6,6,0,0,1,1.45.15l0,0h0l0,0a5.12,5.12,0,0,1,.67.19h0L37.92,67a14.57,14.57,0,0,1,1.55-.9,21.26,21.26,0,0,1,2.11-.92,22.06,22.06,0,0,1,2.47-.8c1.77-.45,1.77-.45,2.72-.63,1.91-.32,1.91-.32,2.89-.42h0c.31-.19.38-1.86.2-5-.09-1.36-.21-2.84-.36-4.36S49.19,51,49,49.51s-.42-2.87-.64-4.1-.44-2.27-.65-3.07c-.16-.59-.41-1.49-.65-1.5h0c-3.4.37-3.4.37-5.09.64-3.31.58-3.37.59-5,1-3.26.82-3.32.84-5,1.36-3.11,1.06-3.23,1.1-4.91,1.8a48,48,0,0,0-4.83,2.31h0C24,47,25.78,47,28.4,47.8h0A15.68,15.68,0,0,1,32.59,50a19.55,19.55,0,0,1,3.63,3.35,18.41,18.41,0,0,1,2.62,4A12.74,12.74,0,0,1,40,61.56a8.32,8.32,0,0,1,0,1.81,6.56,6.56,0,0,1-.41,1.54,5,5,0,0,1-.74,1.25,4.91,4.91,0,0,1-1,.87,10.09,10.09,0,0,1-1-.49c-.38-.23-.48-.29-.65-.41a7.87,7.87,0,0,0-1.46-2.79,11.41,11.41,0,0,0-3.58-2.89,17.05,17.05,0,0,0-5-1.72,21.43,21.43,0,0,0-6-.21,20.91,20.91,0,0,0-5.36,1.24,16.84,16.84,0,0,0-4.32,2.37A11.93,11.93,0,0,0,7.56,65.3,8,8,0,0,0,6.36,69,20.33,20.33,0,0,0,6.62,73.66ZM30.48,69l0,0Z" transform="translate(-6.33 -10.18)"/><path class="cls-3" d="M66.63,64.73l.16-.13a.31.31,0,0,0,0-.08c0-.11-.06-.22-.1-.33a8.33,8.33,0,0,1,1.06-4.07,12.53,12.53,0,0,1,3-3.61,17.41,17.41,0,0,1,4.57-2.7A20,20,0,0,1,81,52.42c6-.43,10.35,1.29,12.72,5a23.55,23.55,0,0,1,2,4.93,19.92,19.92,0,0,1,.63,6.22,22.67,22.67,0,0,1-1,5.27,24.85,24.85,0,0,1-2.37,5,31.87,31.87,0,0,1-4.38,5.38,5.8,5.8,0,0,0,.75-.89,6,6,0,0,0,.57-1,6.53,6.53,0,0,0,.39-1.18,7.93,7.93,0,0,0,.17-1.32,10.79,10.79,0,0,0-.91-4.62,17.63,17.63,0,0,0-2.88-4.57,22,22,0,0,0-4.36-3.89A21.31,21.31,0,0,0,77,64a16.81,16.81,0,0,0-3.13-.74A12.86,12.86,0,0,0,71,63.17a9.52,9.52,0,0,0-2.42.51,7.66,7.66,0,0,0-1.46.73l-.06.13s0,0,0,.06,0,.18-.07.26A.36.36,0,0,1,67,65l0,.23c0,.11,0,.22,0,.33,0-.11,0-.23,0-.34s0-.22-.05-.34,0-.15,0-.23Z" transform="translate(-6.33 -10.18)"/><g class="cls-5"><polygon class="cls-6" points="41.75 36.15 51.86 36.15 51.17 26.58 42.44 26.58 41.75 36.15"/><path class="cls-6" d="M74.85,36.35l8.51-17.5a4.53,4.53,0,0,1-1-1.82,2.2,2.2,0,0,1-.92-.59,1.83,1.83,0,0,1-.11-2.57,1.57,1.57,0,0,1,1.21-.39c.93-2.4,3.26-3.8,5.4-3.14s3.42,3.39,2.61,6a5,5,0,0,1-4,3.63L81,39.5,66.85,56.44,62,45.8Z" transform="translate(-6.33 -10.18)"/><path class="cls-6" d="M31.17,36.35l-8.51-17.5a4.41,4.41,0,0,0,1-1.82,2.17,2.17,0,0,0,.93-.59,1.83,1.83,0,0,0,.1-2.57,1.55,1.55,0,0,0-1.21-.39c-.92-2.4-3.25-3.8-5.39-3.14s-3.42,3.39-2.61,6a5,5,0,0,0,4,3.63L25,39.5,39.18,56.44,44,45.8Z" transform="translate(-6.33 -10.18)"/><path class="cls-7" d="M37.3,54.15l1.26,20.32.54,8.66a119.49,119.49,0,0,0,12.74.64,113.63,113.63,0,0,0,14.86-.9l.65-8.11L69,54.15c-2.67-1.58-4.55-5.19-4.55-9.39,0-1.64-6.57-2.76-6.57-2.76s-.7,1.71-4.72,1.84S48.41,42,48.41,42s-6.57,1.12-6.57,2.76C41.84,49,40,52.57,37.3,54.15Z" transform="translate(-6.33 -10.18)"/><rect class="cls-6" x="44.41" y="16.43" width="17.61" height="23.17" rx="7" transform="translate(100.09 45.85) rotate(-180)"/><path class="cls-6" d="M63.08,25.64c1,.21,1.53,1.48,1.24,2.85S63,30.81,62,30.6s-1.52-1.48-1.24-2.85S62.11,25.44,63.08,25.64Zm-19.54,0c-1,.21-1.53,1.48-1.24,2.85s1.31,2.32,2.28,2.11,1.53-1.48,1.24-2.85S44.51,25.44,43.54,25.64Z" transform="translate(-6.33 -10.18)"/><path d="M48.85,32.4V33a4.17,4.17,0,1,0,8.33,0V32.4Z" transform="translate(-6.33 -10.18)"/><path class="cls-7" d="M50.41,36.21a4.15,4.15,0,0,0,5.21,0,3.08,3.08,0,0,0-5.21,0Z" transform="translate(-6.33 -10.18)"/><path d="M58.71,25a.42.42,0,0,0,.39-.12.42.42,0,0,0,0-.59,4.57,4.57,0,0,0-4.22-.93.41.41,0,0,0-.26.53.43.43,0,0,0,.53.26,3.7,3.7,0,0,1,3.36.74A.47.47,0,0,0,58.71,25Z" transform="translate(-6.33 -10.18)"/><path d="M51.18,24.82a.39.39,0,0,0,.37-.15.42.42,0,0,0-.06-.59,4.6,4.6,0,0,0-4.28-.56.42.42,0,1,0,.34.76,3.76,3.76,0,0,1,3.41.45A.31.31,0,0,0,51.18,24.82Z" transform="translate(-6.33 -10.18)"/><path class="cls-8" d="M63.14,27a1.66,1.66,0,0,0-.86,1A4.18,4.18,0,0,0,62,29.29a.27.27,0,0,0,.27.28.28.28,0,0,0,.27-.23h0a3.37,3.37,0,0,1,.27-.87,1.16,1.16,0,0,1,.71-.6,1,1,0,0,0-1,.37,2,2,0,0,0-.49,1l.54,0c0-.37.1-.79.17-1.2A2.43,2.43,0,0,1,63.14,27Z" transform="translate(-6.33 -10.18)"/><path class="cls-8" d="M43.14,27A1.64,1.64,0,0,1,44,28a3.92,3.92,0,0,1,.27,1.31.28.28,0,0,1-.27.28.27.27,0,0,1-.27-.23h0a3.37,3.37,0,0,0-.27-.87,1.14,1.14,0,0,0-.7-.6,1,1,0,0,1,1,.37,2,2,0,0,1,.5,1l-.55,0c0-.37-.1-.79-.16-1.2A2.54,2.54,0,0,0,43.14,27Z" transform="translate(-6.33 -10.18)"/><path d="M55.28,27.59a.28.28,0,0,0,.2-.1,2.41,2.41,0,0,1,1.57-.57,1.43,1.43,0,0,1,1.27.5.26.26,0,0,0,.42-.32A1.92,1.92,0,0,0,57,26.39a2.89,2.89,0,0,0-2,.77.27.27,0,0,0,0,.37A.27.27,0,0,0,55.28,27.59Z" transform="translate(-6.33 -10.18)"/><path d="M51.15,27.59a.28.28,0,0,1-.21-.1,2.38,2.38,0,0,0-1.57-.57,1.43,1.43,0,0,0-1.27.5.26.26,0,1,1-.41-.32,1.9,1.9,0,0,1,1.71-.71,2.87,2.87,0,0,1,2,.77.25.25,0,0,1,0,.37A.25.25,0,0,1,51.15,27.59Z" transform="translate(-6.33 -10.18)"/><path d="M48.65,18.89c0-.19-.06,2.22,3.77,2.85s4.92.63,5.81,1.15a10.66,10.66,0,0,0-1.64-2.47c1.15.26,1.81,0,3.25,1.61s1.07,5.29,1.07,5.29,1.16-1.5,1.24-1.54a13.38,13.38,0,0,0,.63-5.08,7.06,7.06,0,0,0-2.11-3.56,17.34,17.34,0,0,1,1.76,1c-.61-1.87-2.85-3.52-7-4.51a7.42,7.42,0,0,0-6.94,1.52,3.5,3.5,0,0,0-4.27,1.58c-1.4,2.62-.6,8.87-.6,8.87a1.85,1.85,0,0,1,.87.89,2.74,2.74,0,0,1,.32,1.07s.17-3.06.17-3.95S48.27,21.08,48.65,18.89Z" transform="translate(-6.33 -10.18)"/></g></g></g></svg>