<svg xmlns="http://www.w3.org/2000/svg" xmlns:xlink="http://www.w3.org/1999/xlink" viewBox="0 0 118.51 127.47"><defs><style>.cls-1{fill:none;}.cls-2{fill:#fff;}.cls-3{fill:#ff5e26;}.cls-4{fill:#94c93b;}.cls-5{clip-path:url(#clip-path);}.cls-6{fill:#7d4921;}.cls-7{fill:#41b1c3;}.cls-8{fill:#e52139;}.cls-9{fill:#572000;}</style><clipPath id="clip-path" transform="translate(0 -20.53)"><path class="cls-1" d="M21.51,123.73s11.08-4.41,16.13-29c6.84,4.15,14.7,7.39,23.08,8.07C87.83,105,116,79,116,79L118.51,21,86.19,1.14,56.69,0,33.17,27.85,39,56.9,5.36,114.75Z"/></clipPath></defs><g id="Camada_2" data-name="Camada 2"><g id="Camada_1-2" data-name="Camada 1"><path class="cls-2" d="M113.61,126.27c0,5.37-9.91,10.08-24.59,12.56a142.18,142.18,0,0,1-23.78,1.87,137.33,137.33,0,0,1-27.72-2.61c-12.5-2.61-20.67-6.92-20.67-11.82,0-4.14,5.84-7.9,15.22-10.51-4.37,2.29-6.93,5.08-6.93,8.09,0,4.81,6.68,9.08,16.89,11.63a93.43,93.43,0,0,0,22.65,2.58,96.92,96.92,0,0,0,19.42-1.84c12-2.45,20.09-7.08,20.09-12.37,0-3.32-3.15-6.4-8.44-8.8C106.64,117.68,113.61,121.74,113.61,126.27Z" transform="translate(0 -20.53)"/><path class="cls-2" d="M56.35,145.94c2,0,3.95.07,5.92,0s3.93,0,5.89-.11c3.93-.18,7.85-.39,11.76-.81s7.81-1,11.71-1.63q2.93-.49,5.84-1.24c2-.32,3.87-1,5.84-1.44a55,55,0,0,1-11.48,4.68A64.45,64.45,0,0,1,80,147.63a71.44,71.44,0,0,1-11.88.21A56.92,56.92,0,0,1,56.35,145.94Z" transform="translate(0 -20.53)"/><path class="cls-2" d="M18.79,115.05a103.78,103.78,0,0,0-10.56,3.74,13,13,0,0,0-4.46,3.06,3.47,3.47,0,0,0-.57.94,2.65,2.65,0,0,0-.14.82,4.14,4.14,0,0,0,.64,2.11,13.59,13.59,0,0,0,4,4,43.35,43.35,0,0,0,4.9,3l10.34,5.32a30.11,30.11,0,0,1-11-1.59A26.94,26.94,0,0,1,6.47,134a15.1,15.1,0,0,1-5.13-5.1A10.61,10.61,0,0,1,0,123.37a9.08,9.08,0,0,1,.67-3.16,7.38,7.38,0,0,1,1.36-2,11.35,11.35,0,0,1,5.66-3A25,25,0,0,1,18.79,115.05Z" transform="translate(0 -20.53)"/><path class="cls-2" d="M34,112.48q-3.38-4.31-6.66-8.75a42.71,42.71,0,0,1-3.25-4.52,31.64,31.64,0,0,1-2.59-5.55l.12-.19a21,21,0,0,1,3.66,3.85,48.82,48.82,0,0,1,3,4.9q3,4.95,5.83,10.07Z" transform="translate(0 -20.53)"/><path class="cls-2" d="M36,110.13q-1.26-3.59-2.38-7.25a24.67,24.67,0,0,1-1.07-3.7,18,18,0,0,1-.19-4.2l.16-.09a12.09,12.09,0,0,1,1.63,3.37,26.63,26.63,0,0,1,.75,3.88q.69,3.92,1.26,7.9Z" transform="translate(0 -20.53)"/><path class="cls-2" d="M90.28,112.61q1.81-6.18,3.73-12.23c.65-2,1.16-4.15,2-6A30.18,30.18,0,0,1,98.79,89l.14.13a40.58,40.58,0,0,1-1.45,6.47,57.51,57.51,0,0,1-2.28,5.76q-2.33,5.73-4.77,11.33Z" transform="translate(0 -20.53)"/><path class="cls-2" d="M94.56,111.25c1.37-1.72,2.75-3.39,4.16-5a13.45,13.45,0,0,1,2.15-2.33,5.51,5.51,0,0,1,2.63-1.08l.09.22a10.9,10.9,0,0,1-1.84,3.12,11.21,11.21,0,0,1-2.32,1.87q-2.36,1.8-4.78,3.4Z" transform="translate(0 -20.53)"/><path class="cls-3" d="M79.23,97.32a5.08,5.08,0,0,1-1.11-1,5.54,5.54,0,0,1-.8-1.36,7.09,7.09,0,0,1-.44-1.69,10.11,10.11,0,0,1,0-2,15.59,15.59,0,0,1,1.38-5.07,24.15,24.15,0,0,1,3.08-5,27.16,27.16,0,0,1,4.31-4.33,21.41,21.41,0,0,1,5-3,16.26,16.26,0,0,1,2.34-.76,10.17,10.17,0,0,1,2.11-.27,7.4,7.4,0,0,1,1.86.17,5.79,5.79,0,0,1,1.57.59h0a59.17,59.17,0,0,0-6.08-2.95,65.27,65.27,0,0,0-6.19-2.25c-2.1-.66-2.17-.67-6.27-1.67-2.11-.47-2.19-.48-6.35-1.15-2.11-.3-2.11-.3-6.38-.67h0s-.08,0-.12.14a2.67,2.67,0,0,0-.15.42c0,.19-.11.43-.17.72s-.12.64-.19,1c-.19,1.1-.39,2.5-.58,4.08s-.4,3.39-.58,5.25-.35,3.78-.48,5.65-.26,3.66-.33,5.27c0,.9-.07,1.7-.08,2.38s0,1.25,0,1.7a7.42,7.42,0,0,0,.07,1c0,.23.08.35.14.35h0c1.18.1,1.18.1,3.47.43,1.15.19,1.15.19,3.3.7a31,31,0,0,1,3,1,25.12,25.12,0,0,1,2.62,1.13,18.83,18.83,0,0,1,2.12,1.22Z" transform="translate(0 -20.53)"/><path class="cls-3" d="M53,101.47a33.08,33.08,0,0,1-3.23-1.08,23.89,23.89,0,0,1-2.57-1.21A14.44,14.44,0,0,1,45.43,98a7.32,7.32,0,0,0-.81-.5,5.86,5.86,0,0,1,.52-.48,12.38,12.38,0,0,1,1.38-.94,19.46,19.46,0,0,1,2-1,3.68,3.68,0,0,0,1.18-.78,4.63,4.63,0,0,0,.91-1.23,7.05,7.05,0,0,0,.59-1.68,10.43,10.43,0,0,0,.23-2.12,17.6,17.6,0,0,0-.76-5.17,27,27,0,0,0-2.22-5.35,27.3,27.3,0,0,0-3.29-4.82,19.49,19.49,0,0,0-3.94-3.57,12.12,12.12,0,0,0-1.76-1,7.57,7.57,0,0,0-1.62-.55,5.81,5.81,0,0,0-1.47-.14,4.47,4.47,0,0,0-1.29.24,59.6,59.6,0,0,0-6,2.53,49,49,0,0,0-5.62,3.2,41.8,41.8,0,0,0-5.08,4A36.38,36.38,0,0,0,14,83.42a32.64,32.64,0,0,0-3.38,5.69l-.06.15a9.15,9.15,0,0,1,2.23-3.05,13.06,13.06,0,0,1,3.58-2.31,18.63,18.63,0,0,1,4.66-1.35,23,23,0,0,1,5.49-.21,25.74,25.74,0,0,1,7,1.5,22.33,22.33,0,0,1,5.72,3.1,15,15,0,0,1,3.85,4.2,9.48,9.48,0,0,1,1.4,4.79c-.06.47-.11.94-.17,1.4A8.27,8.27,0,0,0,43,96.81a10.49,10.49,0,0,0-3-.47,15.4,15.4,0,0,0-3.54.34,21.67,21.67,0,0,0-3.94,1.24,28.49,28.49,0,0,0-6.33,3.68,29.2,29.2,0,0,0-5.14,5,22.47,22.47,0,0,0-3.35,5.65,12.89,12.89,0,0,0-1,5.51A8.67,8.67,0,0,0,17,119.2a8,8,0,0,0,.43,1.25,6.56,6.56,0,0,0,1.43,2,49.27,49.27,0,0,0,6.44,5.15,56.42,56.42,0,0,0,7.24,4.1,65.23,65.23,0,0,0,7.84,3.15,73.37,73.37,0,0,0,8.29,2.21c2.51.46,5.87,1,8.39,1.3h0c-1.06-1.73.59-20.57,2.42-31.09.72-4,1-4.24,1.28-4.47-1.19-.13-2.77-.34-3.95-.52S55.4,102.06,53,101.47Z" transform="translate(0 -20.53)"/><path class="cls-3" d="M118.43,100.12l-.05-.46a9.26,9.26,0,0,0-1.6-4.16,14.15,14.15,0,0,0-3.6-3.55,20.85,20.85,0,0,0-5.24-2.6,26.54,26.54,0,0,0-6.45-1.3v.19a27.32,27.32,0,0,0-7.46.39,21.77,21.77,0,0,0-6.22,2.21,13.89,13.89,0,0,0-4.33,3.61,9,9,0,0,0-1.77,4.07l-.15.16a6,6,0,0,1-.9.71,13.43,13.43,0,0,1-1.79,1l0,0c4.21-1.86,9.22,1.29,10.86,2.33,11.31,8,16.68,23.4,9.75,28l.11-.06a49.41,49.41,0,0,0,7-4.73,40.3,40.3,0,0,0,5.58-5.65,34,34,0,0,0,4-6.47,29.19,29.19,0,0,0,2.05-6.51A29.51,29.51,0,0,0,118.43,100.12ZM81.67,98.77c0,.09,0,.18,0,.28C81.64,98.92,81.66,98.84,81.67,98.77Zm8.07,3.93,0,0Z" transform="translate(0 -20.53)"/><path class="cls-4" d="M61.17,92.76c1,0,2.46.07,3.51.13-.06,0-.11-.12-.14-.35a7.42,7.42,0,0,1-.07-1c0-.45,0-1,0-1.7s0-1.48.08-2.38c.07-1.61.19-3.41.33-5.27s.3-3.79.48-5.65.38-3.65.58-5.25.39-3,.58-4.08c.07-.4.13-.75.19-1s.12-.53.17-.72A2.67,2.67,0,0,1,67,65c0-.09.08-.14.12-.14-1.91-.09-4.45-.17-6.36-.2-2.16,0-2.16,0-6.42.27-2.18.17-2.18.17-6.4.75-2.23.36-2.23.36-6.39,1.3a64,64,0,0,0-6.36,1.91l-.1,0a4.47,4.47,0,0,1,1.29-.24,5.81,5.81,0,0,1,1.47.14,7.57,7.57,0,0,1,1.62.55,12.12,12.12,0,0,1,1.76,1,19.49,19.49,0,0,1,3.94,3.57,27.3,27.3,0,0,1,3.29,4.82,27,27,0,0,1,2.22,5.35,17.6,17.6,0,0,1,.76,5.17,10.43,10.43,0,0,1-.23,2.12,7.05,7.05,0,0,1-.59,1.68,4.63,4.63,0,0,1-.91,1.23,3.68,3.68,0,0,1-1.18.78h0a24,24,0,0,1,2.68-.95,28,28,0,0,1,3.07-.73,30.72,30.72,0,0,1,3.33-.46C58.83,92.82,58.83,92.82,61.17,92.76Z" transform="translate(0 -20.53)"/><path class="cls-4" d="M45.11,97.77l-.26-.22-.4-.4a1.09,1.09,0,0,1-.13-.17c0-.1,0-.2,0-.3l.06-.38.09-.37a9.48,9.48,0,0,0-1.4-4.79,15,15,0,0,0-3.85-4.2,22.33,22.33,0,0,0-5.72-3.1,25.74,25.74,0,0,0-7-1.5,23,23,0,0,0-5.49.21,18.63,18.63,0,0,0-4.66,1.35,13.06,13.06,0,0,0-3.58,2.31,9.15,9.15,0,0,0-2.23,3.05,29.42,29.42,0,0,0-1.93,6.35,28.44,28.44,0,0,0-.27,6.8A30.26,30.26,0,0,0,10,109.5a34.29,34.29,0,0,0,3.48,6.71,41,41,0,0,0,5.33,6.27,6.56,6.56,0,0,1-1.43-2A8,8,0,0,1,17,119.2a8.67,8.67,0,0,1-.22-1.41,12.89,12.89,0,0,1,1-5.51,22.47,22.47,0,0,1,3.35-5.65,29.2,29.2,0,0,1,5.14-5,28.49,28.49,0,0,1,6.33-3.68,21.67,21.67,0,0,1,3.94-1.24A15.4,15.4,0,0,1,40,96.34a10.49,10.49,0,0,1,3,.47,8.29,8.29,0,0,1,1.26.51s0,.09,0,.13v-.13a8.57,8.57,0,0,1,1.13.7Z" transform="translate(0 -20.53)"/><path class="cls-4" d="M89.7,102.72C83.48,98.61,80,100,78.84,100.39a21.69,21.69,0,0,1-2.63,1,28,28,0,0,1-3.32.85c-1.25.24-1.3.25-3.81.55-1.35.13-1.35.13-4.09.21-1.39,0-1.39,0-4.17-.16h-.1c-.36.19-.69,1.36-1.28,4.47-1.63,9.07-3.54,29.46-2.41,31.09l.21,0a77.88,77.88,0,0,0,8.75.41,76.06,76.06,0,0,0,8.76-.53,72.21,72.21,0,0,0,8.62-1.49,64.67,64.67,0,0,0,8.33-2.52,57.36,57.36,0,0,0,7.75-3.59C106,126.89,102,111.51,89.7,102.72Z" transform="translate(0 -20.53)"/><path class="cls-4" d="M116.88,93.33a33,33,0,0,0-3.07-6.09A37,37,0,0,0,109.62,82a44,44,0,0,0-5-4.45,54.92,54.92,0,0,0-6.11-4A5.79,5.79,0,0,0,96.91,73a7.4,7.4,0,0,0-1.86-.17,10.17,10.17,0,0,0-2.11.27,16.26,16.26,0,0,0-2.34.76,21.41,21.41,0,0,0-5,3,27.16,27.16,0,0,0-4.31,4.33,24.15,24.15,0,0,0-3.08,5,15.59,15.59,0,0,0-1.38,5.07,10.11,10.11,0,0,0,0,2A7.09,7.09,0,0,0,77.32,95a5.54,5.54,0,0,0,.8,1.36,5.08,5.08,0,0,0,1.11,1,13.4,13.4,0,0,1,1.52,1.2,6.12,6.12,0,0,1,.71.78,1.73,1.73,0,0,1,.21.34l0-.13a2.89,2.89,0,0,1,0-.43V99a8.8,8.8,0,0,1,1.85-4.61,13.8,13.8,0,0,1,4.33-3.62A21.5,21.5,0,0,1,94,88.48a27.19,27.19,0,0,1,7.45-.43,26.54,26.54,0,0,1,6.45,1.3,20.85,20.85,0,0,1,5.24,2.6,14.15,14.15,0,0,1,3.6,3.55,9.26,9.26,0,0,1,1.6,4.16A29.45,29.45,0,0,0,116.88,93.33Z" transform="translate(0 -20.53)"/><g class="cls-5"><rect class="cls-6" x="52.8" y="11.36" width="21.67" height="28.51" rx="9.5"/><path d="M54.21,45.81s1.29-1.88.52-3.42-.84-1.28-.84-1.28A3.17,3.17,0,0,0,56,39.72a2.43,2.43,0,0,0,.44-2.46,6.53,6.53,0,0,0,3.09,0c1.61-.42,1.47-1.68,1.47-1.68a5.52,5.52,0,0,0,3.87,1.47c2.24-.14,2.59-.42,2.59-.42a1.88,1.88,0,0,0,2,1.9,19.36,19.36,0,0,1,2.53,0s-.78,1.81.35,2.17.56,1.55.56,1.55l1,1.38s.55-.57.54,2.18a73.16,73.16,0,0,1-.82,7.87s1.37,1.49,3.47,0A2.07,2.07,0,0,0,78,51.23s3.8-.42,4-2.66a5.11,5.11,0,0,0-1.2-3.74s2.81-1.18,2.81-3.72c0-2.32-2.67-4-2.67-4A5,5,0,0,0,82,32.77c-.5-2.6-3.79-2.67-3.79-2.67s1-2.76-1.07-4.37a6.74,6.74,0,0,0-4.62-1.17,11.07,11.07,0,0,0-6.39-3.94c-3.44-.7-5.52,2.6-5.52,2.6a6.53,6.53,0,0,0-6.39-1.17c-3.51,1.41-3.35,5.74-3.35,5.74s-3.83,0-4.68,1.89a4.23,4.23,0,0,0,.07,3.86,4.88,4.88,0,0,0-2,3.3,3.3,3.3,0,0,0,2.18,3.09S44.05,41.07,44,42.8a2.51,2.51,0,0,0,1.7,2.71c.29,0-.23,1.29,0,2.53s3.16,1.72,3.16,1.72a3.15,3.15,0,0,0,.84,2.89C51,53.8,53.35,53,53.35,53l-.55-6.54Z" transform="translate(0 -20.53)"/><polygon class="cls-6" points="69.85 48.15 57.41 48.15 58.27 36.37 69 36.37 69.85 48.15"/><path class="cls-6" d="M37.77,88.75,24.93,109a5.53,5.53,0,0,1,1,2.36,2.69,2.69,0,0,1,1,.86,2.25,2.25,0,0,1-.23,3.16,1.92,1.92,0,0,1-1.53.3c-1.46,2.8-4.51,4.19-7,3.09s-3.71-4.63-2.36-7.73a6.18,6.18,0,0,1,5.42-3.89L30.67,84,46.83,68.67,54,79.47Z" transform="translate(0 -20.53)"/><path class="cls-6" d="M90.66,56.39l10.47-21.54a5.5,5.5,0,0,1-1.25-2.23,2.62,2.62,0,0,1-1.14-.73,2.25,2.25,0,0,1-.13-3.16,2,2,0,0,1,1.49-.48c1.13-2.95,4-4.67,6.64-3.86S111,28.56,110,31.8A6.16,6.16,0,0,1,105,36.28l-6.75,24L80.81,81.11,74.83,68Z" transform="translate(0 -20.53)"/><path class="cls-7" d="M83.12,78.3l-1.55,25L80.91,114a145.47,145.47,0,0,1-15.68.8A138.11,138.11,0,0,1,47,113.63l-.8-10-1-18.86c3.28-1.93,2.08-12.1,1.66-16.13,1.42-3.43,11-5.33,11-5.33s.87,2.1,5.81,2.27,5.82-2.27,5.82-2.27,8.08,1.39,8.08,3.4C77.53,71.9,79.83,76.36,83.12,78.3Z" transform="translate(0 -20.53)"/><path class="cls-6" d="M54.21,45.81c.36,1.69-.32,3.26-1.52,3.51s-2.46-.91-2.81-2.59.32-3.26,1.52-3.51S53.86,44.13,54.21,45.81Zm18.43,0c-.36,1.69.32,3.26,1.52,3.51s2.46-.91,2.81-2.59-.32-3.26-1.52-3.51S73,44.13,72.64,45.81Z" transform="translate(0 -20.53)"/><path d="M68.91,51.53v.69a5.1,5.1,0,0,1-1.92,4,5.11,5.11,0,0,1-6.41,0,5.1,5.1,0,0,1-1.92-4v-.69Z" transform="translate(0 -20.53)"/><path class="cls-8" d="M67,56.22a5.11,5.11,0,0,1-6.41,0,3.79,3.79,0,0,1,6.41,0Z" transform="translate(0 -20.53)"/><path d="M56.39,42.74a.49.49,0,0,1-.49-.06.51.51,0,0,1-.11-.72,5.64,5.64,0,0,1,4.92-2,.53.53,0,0,1,.43.6.51.51,0,0,1-.59.42,4.6,4.6,0,0,0-3.93,1.59A.48.48,0,0,1,56.39,42.74Z" transform="translate(0 -20.53)"/><path d="M65.79,41.07a.5.5,0,0,1-.32-.37.51.51,0,0,1,.39-.62,5.65,5.65,0,0,1,5,1.75.51.51,0,0,1-.07.72.52.52,0,0,1-.73-.07,4.56,4.56,0,0,0-4-1.39A.57.57,0,0,1,65.79,41.07Z" transform="translate(0 -20.53)"/><path class="cls-9" d="M51.33,44.83a2.07,2.07,0,0,1,1.05,1.26,5,5,0,0,1,.33,1.61.34.34,0,0,1-.33.34.33.33,0,0,1-.34-.27v0a4.16,4.16,0,0,0-.34-1.07,1.41,1.41,0,0,0-.86-.73,1.24,1.24,0,0,1,1.26.45,2.44,2.44,0,0,1,.6,1.25L52,47.7a13.92,13.92,0,0,0-.2-1.47A3.12,3.12,0,0,0,51.33,44.83Z" transform="translate(0 -20.53)"/><path class="cls-9" d="M75.94,44.83a2.07,2.07,0,0,0-1,1.26,5,5,0,0,0-.33,1.61.34.34,0,0,0,.67.07v0a4.14,4.14,0,0,1,.33-1.07,1.46,1.46,0,0,1,.87-.73,1.24,1.24,0,0,0-1.26.45,2.54,2.54,0,0,0-.61,1.25l.67.05c0-.45.12-1,.21-1.47A3.12,3.12,0,0,1,75.94,44.83Z" transform="translate(0 -20.53)"/><path d="M61.23,45.68A.35.35,0,0,1,61,45.6c-2.55-1.87-4-.14-4.06-.06a.36.36,0,0,1-.52.05.36.36,0,0,1,0-.51s1.94-2.38,5.07-.07a.38.38,0,0,1,.08.52A.42.42,0,0,1,61.23,45.68Z" transform="translate(0 -20.53)"/><path d="M65.73,45.68A.37.37,0,0,0,66,45.6c2.54-1.87,4-.14,4-.06a.37.37,0,0,0,.58-.46S68.64,42.7,65.51,45a.37.37,0,0,0-.08.52A.4.4,0,0,0,65.73,45.68Z" transform="translate(0 -20.53)"/></g></g></g></svg>