<?xml version="1.0" encoding="utf-8"?>
<!-- Generator: Adobe Illustrator 22.0.0, SVG Export Plug-In . SVG Version: 6.00 Build 0)  -->
<svg version="1.1" id="Layer_1" xmlns="http://www.w3.org/2000/svg" xmlns:xlink="http://www.w3.org/1999/xlink" x="0px" y="0px"
	 viewBox="0 0 1080.7 8.8" style="enable-background:new 0 0 1080.7 8.8;" xml:space="preserve">
<style type="text/css">
	.st0{fill:#ffffff;}
</style>
<path class="st0" d="M1080.7,4.1c-5.3,0-5.3-4-10.7-4s-5.3,4-10.7,4s-5.3-4-10.7-4s-5.3,4-10.7,4s-5.3-4-10.7-4c-5.4,0-5.3,4-10.7,4
	s-5.3-4-10.7-4s-5.3,4-10.7,4s-5.3-4-10.7-4s-5.3,4-10.7,4s-5.3-4-10.7-4s-5.3,4-10.7,4s-5.3-4-10.7-4s-5.3,4-10.7,4s-5.3-4-10.7-4
	s-5.3,4-10.7,4s-5.3-4-10.7-4s-5.3,4-10.7,4s-5.3-4-10.7-4s-5.3,4-10.7,4s-5.3-4-10.7-4s-5.3,4-10.7,4s-5.3-4-10.7-4s-5.3,4-10.7,4
	s-5.3-4-10.7-4s-5.3,4-10.7,4s-5.3-4-10.7-4s-5.3,4-10.7,4s-5.3-4-10.7-4s-5.3,4-10.7,4s-5.3-4-10.7-4s-5.3,4-10.7,4s-5.3-4-10.7-4
	s-5.3,4-10.7,4s-5.3-4-10.7-4s-5.3,4-10.7,4s-5.3-4-10.7-4s-5.3,4-10.7,4s-5.3-4-10.7-4s-5.3,4-10.7,4s-5.3-4-10.7-4s-5.3,4-10.7,4
	s-5.3-4-10.7-4s-5.3,4-10.7,4s-5.3-4-10.7-4s-5.3,4-10.7,4s-5.3-4-10.7-4s-5.3,4-10.7,4s-5.3-4-10.7-4s-5.3,4-10.7,4s-5.3-4-10.7-4
	s-5.3,4-10.7,4s-5.3-4-10.7-4s-5.3,4-10.7,4s-5.3-4-10.7-4s-5.3,4-10.7,4s-5.3-4-10.7-4s-5.3,4-10.7,4s-5.3-4-10.7-4s-5.3,4-10.7,4
	s-5.3-4-10.7-4s-5.3,4-10.7,4s-5.3-4-10.7-4s-5.3,4-10.7,4s-5.3-4-10.7-4s-5.3,4-10.7,4s-5.3-4-10.7-4s-5.3,4-10.7,4s-5.3-4-10.7-4
	s-5.3,4-10.7,4s-5.3-4-10.7-4s-5.3,4-10.7,4s-5.3-4-10.7-4s-5.3,4-10.7,4s-5.3-4-10.7-4s-5.3,4-10.7,4s-5.3-4-10.7-4
	c-5.4,0-5.3,4-10.7,4s-5.3-4-10.7-4s-5.3,4-10.7,4s-5.3-4-10.7-4s-5.3,4-10.7,4s-5.3-4-10.7-4s-5.3,4-10.7,4s-5.3-4-10.7-4
	s-5.3,4-10.7,4s-5.3-4-10.7-4s-5.3,4-10.7,4s-5.3-4-10.7-4c-5.4,0-5.3,4-10.7,4s-5.3-4-10.7-4s-5.3,4-10.7,4s-5.3-4-10.7-4
	s-5.3,4-10.7,4s-5.3-4-10.7-4s-5.3,4-10.7,4s-5.3-4-10.7-4s-5.3,4-10.7,4s-5.3-4-10.7-4s-5.3,4-10.7,4s-5.3-4-10.7-4v8.5h1079.5V4.1
	H1080.7z"/>
</svg>
