<svg xmlns="http://www.w3.org/2000/svg" width="26.573" height="46.647" viewBox="0 0 26.573 46.647"><defs><style>.a{fill:#039;}</style></defs><g transform="translate(0)"><path class="a" d="M22.529,108.327,20.14,125.554a2.541,2.541,0,0,0,5.034.7L27.012,113h2.48l1.837,13.25a2.541,2.541,0,0,0,5.034-.7l-2.388-17.227Z" transform="translate(-15.19 -81.797)"/><circle class="a" cx="5.121" cy="5.121" r="5.121" transform="translate(7.941 0)"/><path class="a" d="M5.319,16.426a13.141,13.141,0,0,0,2.158.5V27.437H18.648V16.985A12.288,12.288,0,0,0,22.7,15.838a7.475,7.475,0,0,0,2.656-2.117,5.994,5.994,0,0,0,1.221-3.694,11.921,11.921,0,0,0-2.381-6.44,1.714,1.714,0,1,0-2.853,1.9,8.686,8.686,0,0,1,1.8,4.539,2.537,2.537,0,0,1-.519,1.616,5.018,5.018,0,0,1-2.438,1.524,9.141,9.141,0,0,1-2.593.453,1.714,1.714,0,0,0-.25.02,1.519,1.519,0,0,0-.165-.01H9.164a1.768,1.768,0,0,0-.185-.01h0A9.049,9.049,0,0,1,5.4,12.769a4.1,4.1,0,0,1-1.455-1.126,2.534,2.534,0,0,1-.519-1.616A8.673,8.673,0,0,1,5.234,5.488a1.714,1.714,0,0,0-2.852-1.9A11.91,11.91,0,0,0,0,10.027a5.991,5.991,0,0,0,1.221,3.694A8.338,8.338,0,0,0,5.319,16.426Z" transform="translate(0 -2.131)"/></g></svg>