<svg xmlns="http://www.w3.org/2000/svg" width="254" height="164.883" viewBox="0 0 254 164.883"><defs><style>.a{fill:#fff;}.b{fill:#039;}</style></defs><g transform="translate(-469 -2164)"><g transform="translate(-532.339 1047.953)"><path class="a" d="M1007.829,1187.8c2.473-10.974,11.757-32.356,46.624-33.5,6.092-1.115,3.865-6.752.342-6.776s-8.849,1.686-10.724-.257c-3.811-3.954,1.974-7.638,6.092-9.694s8.436-8.456,0-8.408c-3.5.017-4.135-4.358,1.372-5.665,13.04-3.089,14.305-7.861,5.709-7.426-3.1.157-4.389.523-10.416,2.931C1019.712,1133.615,1004.511,1161.815,1007.829,1187.8Z" transform="translate(14.619)"/><path class="a" d="M1026.852,1122.858c-.253.048-5.234.688-5.4,2.316s3.345.773,6.263,1.03S1031.829,1121.914,1026.852,1122.858Z" transform="translate(48.66 16.173)"/><path class="a" d="M1048.064,1121.438l17.917,43.165a3.9,3.9,0,0,0,6.615.975s3.216-6.93,5.145-6.291c29.647,9.834,44.065,29.151,46.713,49.887,3.318,25.987-11.884,54.19-39,68.8-1.837.988-3.715,1.936-5.658,2.795,0,0,57.652-14.415,62.8-70.008s-46.326-81.387-46.326-81.387l4.56-7.382a3.9,3.9,0,0,0-3.311-5.945h-45.861A3.9,3.9,0,0,0,1048.064,1121.438Z" transform="translate(112.376 0)"/><g transform="translate(1063.626 1127.712)"><path class="b" d="M1043.254,1120.635a26.981,26.981,0,0,1,5.346-.428,26.68,26.68,0,0,1,4.382.322,26.143,26.143,0,0,1,14.432,7.591,25.777,25.777,0,0,1,7.272,14.538,78,78,0,0,1,.428,9.195,46.134,46.134,0,0,1-.322,6.629,25.7,25.7,0,0,1-1.6,6.41,26.164,26.164,0,0,1-7.967,10.535,25.389,25.389,0,0,1-12.024,5.395,24.073,24.073,0,0,1-4.17.322,31.263,31.263,0,0,1-7.06-.746,26.707,26.707,0,0,1-19.348-19.563q-.539-1.929-.533-10.265,0-8.128.643-10.371a27.532,27.532,0,0,1,7.587-12.773A26.421,26.421,0,0,1,1043.254,1120.635Z" transform="translate(-1013.403 -1117.641)"/><path class="b" d="M1043.143,1120.51a38.491,38.491,0,0,1,11.442,0,6.341,6.341,0,0,1,3.527,3.1l.64,1.177.106,15.075.216,15.072.64,1.392a6.185,6.185,0,0,0,5.99,3.848,6.4,6.4,0,0,0,4.919-2.244,5.174,5.174,0,0,0,1.55-3.314q.159-1.924.267-14.541.108-14.967.643-16.036a6.756,6.756,0,0,1,3.311-3.421q.965-.426,5.668-.534h2.459a17.831,17.831,0,0,1,3.636.318,5.832,5.832,0,0,1,3.633,3.1l.64,1.071v34.1l-.64,2.244a31.508,31.508,0,0,1-5.131,10.262,24.876,24.876,0,0,1-8.449,7.272,27.223,27.223,0,0,1-12.721,2.884,21.726,21.726,0,0,1-3.633-.216,26.9,26.9,0,0,1-22.665-22.662q-.318-1.816-.318-17.852l.106-15.5.643-1.389A6.237,6.237,0,0,1,1043.143,1120.51Z" transform="translate(-972.776 -1117.944)"/><path class="b" d="M1059.626,1119.669q.641-.211,16.248-.212,12.515,0,15.612.212a22.843,22.843,0,0,1,5.665,1.071,19.156,19.156,0,0,1,7.806,5.237,21.04,21.04,0,0,1,4.7,8.446,23.484,23.484,0,0,1,.859,6.1,21.52,21.52,0,0,1-2.566,10.046,23.5,23.5,0,0,1-3.527,4.813l-4.813,3.848q0,.749,1.71,8.018,2.032,8.235,2.032,8.983a4.509,4.509,0,0,1-2.993,4.276,46.639,46.639,0,0,1-5.99.212h-5.877c-.216-.144-.5-.356-.855-.64s-.588-.462-.694-.533a3.57,3.57,0,0,1-.537-.537,5.943,5.943,0,0,1-.479-.588,5.864,5.864,0,0,1-.376-.8,6.042,6.042,0,0,1-.373-1.177c-.072-.356-.2-.91-.376-1.656s-.339-1.481-.479-2.193-.36-1.673-.643-2.887l-1.71-8.018h-6.2v7.481a68.89,68.89,0,0,1-.212,8.233,5.339,5.339,0,0,1-2.672,2.781q-.965.534-6.951.534h-6.1l-1.173-.64a5.478,5.478,0,0,1-2.672-3.421q-.215-.534-.216-27.266l.11-26.3.745-1.067A5.207,5.207,0,0,1,1059.626,1119.669Z" transform="translate(-931.848 -1119.457)"/><path class="b" d="M1025.773,1140.614q.749-.318,15.5-.318h14.753l1.067.64a6.493,6.493,0,0,1,3.424,3.636,22.007,22.007,0,0,1,.534,6.2,20.672,20.672,0,0,1-.428,5.562q-.641.959-4.17,5.025l-3.848,4.382a20.524,20.524,0,0,1,4.221,4.115,16.619,16.619,0,0,1,2.942,4.974,21.423,21.423,0,0,1,1.283,7.163,18.837,18.837,0,0,1-1.926,8.124q-3.951,8.23-13.471,10.474a30.639,30.639,0,0,1-6.2.428,23.343,23.343,0,0,1-6.2-.531,20.118,20.118,0,0,1-9.517-6.574,18.968,18.968,0,0,1-4.166-10.85,8.158,8.158,0,0,1,.212-3.1,2.086,2.086,0,0,1,1.6-1.338q1.067-.159,7.163-.161,7.378,0,7.7.322a7.647,7.647,0,0,1,.322,1.283,3.655,3.655,0,0,0,1.392,2.247,3.838,3.838,0,0,0,2.456.961,2.293,2.293,0,0,0,.855-.106,3.76,3.76,0,0,0,2.778-3.848,1.477,1.477,0,0,0-.106-.643,3.784,3.784,0,0,0-1.283-1.926q-1.072-.96-5.128-4.17-5.034-3.848-5.456-4.7a4.891,4.891,0,0,1-.639-2.565,5.669,5.669,0,0,1,.106-1.283,10.017,10.017,0,0,1,2.353-3.315l2.138-2.244-4.813-.106q-5.028-.108-5.774-.643a2.428,2.428,0,0,1-1.228-1.389,15.279,15.279,0,0,1-.267-3.636v-3.739q.108-6.629.534-7.272A3.282,3.282,0,0,1,1025.773,1140.614Z" transform="translate(-1019.548 -1069.013)"/><path class="b" d="M1047.105,1140.229a50.06,50.06,0,0,1,6.948-.215h6.1a4.8,4.8,0,0,1,1.71,3.208,2.4,2.4,0,0,1-.055.373,2.078,2.078,0,0,0-.052.376q0,.108-2.726,8.23t-2.836,8.339c.643.144,1.317.287,2.032.428a17.47,17.47,0,0,1,8.021,3.636,19.967,19.967,0,0,1,7.265,11.333,22.131,22.131,0,0,1,.537,4.919,19.294,19.294,0,0,1-.537,5.022,20.792,20.792,0,0,1-5.076,8.822,19.589,19.589,0,0,1-8.606,5.186,23.47,23.47,0,0,1-6.629.855,19.624,19.624,0,0,1-2.778-.215,20.391,20.391,0,0,1-8.983-3.954,19.617,19.617,0,0,1-6.092-7.594,25.413,25.413,0,0,1-2.35-10.9,22.938,22.938,0,0,1,.64-5.562q.323-1.283,5.343-15.287t5.456-14.753A4.731,4.731,0,0,1,1047.105,1140.229Zm10.05,42.337a2.8,2.8,0,0,0,.533-1.82,4.386,4.386,0,0,0-1.071-2.887,3.338,3.338,0,0,0-2.672-1.283,3.83,3.83,0,0,0-1.707.427,3.6,3.6,0,0,0-2.247,3.636,4.024,4.024,0,0,0,3.848,3.848,2.3,2.3,0,0,0,.855-.106A4.454,4.454,0,0,0,1057.155,1182.567Z" transform="translate(-986.998 -1069.696)"/><path class="b" d="M1053.79,1145.171a20.376,20.376,0,0,1,13.255-4.813,23.061,23.061,0,0,1,5.774.749,20.744,20.744,0,0,1,14.647,14.219l.75,2.35v25.874l-.644,2.244a21.329,21.329,0,0,1-5.131,8.928,22.135,22.135,0,0,1-8.873,5.613,18.967,18.967,0,0,1-5.99.746,20.41,20.41,0,0,1-5.983-.643,21.649,21.649,0,0,1-10-6.359,21.142,21.142,0,0,1-4.97-10.529q-.318-1.5-.318-12.615,0-10.37.212-12.294a28.035,28.035,0,0,1,2.99-8.552,14.66,14.66,0,0,1,1.765-2.459A14.407,14.407,0,0,1,1053.79,1145.171Zm15.5,11.117a4.13,4.13,0,0,0-2.141-.643,3.851,3.851,0,0,0-3.1,1.6l-.643.855.106,11.333q0,11.334.215,12.4a3.045,3.045,0,0,0,1.177,2.244,3.911,3.911,0,0,0,5.237-.322l.855-.961V1170.72q0-12.078-.428-13.043A3.208,3.208,0,0,0,1069.292,1156.288Z" transform="translate(-954.769 -1068.863)"/><g transform="translate(137.487 70.604)"><circle class="b" cx="10.192" cy="10.192" r="10.192"/></g></g><path class="a" d="M1108.261,1143.272c-2.473,10.977-11.753,32.356-46.62,33.5-6.092,1.115-3.869,6.752-.345,6.78s8.853-1.686,10.724.257c3.811,3.954-1.97,7.635-6.089,9.694s-8.435,8.456,0,8.408c3.5-.021,4.132,4.358-1.375,5.661-13.04,3.089-14.3,7.861-5.709,7.426,3.1-.157,4.392-.523,10.419-2.928C1096.378,1197.462,1111.579,1169.259,1108.261,1143.272Z" transform="translate(125.966 65.902)"/><path class="a" d="M1096.235,1275.428l-17.917-43.169a3.9,3.9,0,0,0-6.612-.971s-3.219,6.927-5.148,6.291c-29.647-9.834-44.062-29.154-46.709-49.89-3.322-25.987,11.883-54.187,39-68.8,1.837-.992,3.711-1.936,5.658-2.8,0,0-57.655,14.415-62.8,70.008s46.326,81.387,46.326,81.387l-4.563,7.385a3.9,3.9,0,0,0,3.315,5.942h45.861A3.892,3.892,0,0,0,1096.235,1275.428Z" transform="translate(0 0.114)"/><path class="b" d="M1008.794,1119.261q.8-.344,24.984-.342l24.074.113,1.249.681a7.22,7.22,0,0,1,1.933,2.046l.79,1.249v12.376l-.677,1.135a4.478,4.478,0,0,1-1.591,1.82,6.245,6.245,0,0,1-2.839,1.136,58.315,58.315,0,0,1-6.588.226h-6.359q0,6.7.113,20.045t.113,20.042l-.79,1.361a6.607,6.607,0,0,1-2.045,2.046l-1.136.79h-12.718l-1.135-.79a5.654,5.654,0,0,1-2.042-1.929l-.681-1.252-.229-20.1-.113-20.1q-3.182-.108-6.927-.113l-6.93-.113-1.136-.681a6.389,6.389,0,0,1-2.949-3.749,22.12,22.12,0,0,1-.342-5.107,34.06,34.06,0,0,1,.455-6.93,6.239,6.239,0,0,1,1.419-2.326A5.146,5.146,0,0,1,1008.794,1119.261Z" transform="translate(8.433 6.952)"/><path class="a" d="M1056.307,1159.908c.253-.048,5.233-.688,5.4-2.319s-3.345-.77-6.263-1.03S1051.333,1160.849,1056.307,1159.908Z" transform="translate(124.856 98.042)"/></g></g></svg>