<svg xmlns="http://www.w3.org/2000/svg" width="22.802" height="22.033" viewBox="0 0 22.802 22.033"><defs><style>.a{fill:#fff;}</style></defs><g transform="translate(-1.598 -1.545)"><path class="a" d="M-11913.3-4822.352l-9.989-9.668,1.4-1.349,1.4-1.351,10,9.683,10.007,9.68-1.382,1.335c-.758.735-1.392,1.336-1.41,1.336S-11907.8-4817.035-11913.3-4822.352Zm-6.125,9.439-.309-.043a4.194,4.194,0,0,1-1.57-.615,3.924,3.924,0,0,1-1.477-1.866,3.774,3.774,0,0,1,.014-2.564,3.91,3.91,0,0,1,3.013-2.447,4.89,4.89,0,0,1,1.361,0,3.878,3.878,0,0,1,3.173,2.994,4.312,4.312,0,0,1,.014,1.459,3.788,3.788,0,0,1-1.09,1.978,3.971,3.971,0,0,1-2.216,1.078,4.113,4.113,0,0,1-.913.026Zm14.353-13.96a3.9,3.9,0,0,1-3.435-3.052,4.458,4.458,0,0,1-.016-1.4,3.821,3.821,0,0,1,2.145-2.744,4,4,0,0,1,4.421.649,3.7,3.7,0,0,1,.591,4.844,3.913,3.913,0,0,1-2.5,1.643A4.529,4.529,0,0,1-11905.07-4826.872Z" transform="translate(11924.886 4836.264)"/></g></svg>