<svg xmlns="http://www.w3.org/2000/svg" width="46.829" height="31.893" viewBox="0 0 46.829 31.893"><defs><style>.a{fill:#fff;}.b{fill:#006938;}</style></defs><path class="a" d="M-914.466,974.515a1.116,1.116,0,0,0,1.134-1.134v-3.648a1.116,1.116,0,0,0-1.134-1.134,1.115,1.115,0,0,0-1.134,1.134v3.648A1.18,1.18,0,0,0-914.466,974.515Z" transform="translate(930.832 -968.6)"/><path class="a" d="M-934.53,982.148a1.163,1.163,0,0,0,.789.345.981.981,0,0,0,.789-.345,1.1,1.1,0,0,0,0-1.577l-2.613-2.613a1.1,1.1,0,0,0-1.577,0,1.1,1.1,0,0,0,0,1.577Z" transform="translate(941.924 -973.176)"/><path class="a" d="M-940.585,1000.734a1.116,1.116,0,0,0-1.134-1.134h-3.648a1.115,1.115,0,0,0-1.134,1.134,1.115,1.115,0,0,0,1.134,1.134h3.648A1.18,1.18,0,0,0-940.585,1000.734Z" transform="translate(946.5 -984.319)"/><path class="a" d="M-934.53,1016.558l-2.613,2.613a1.1,1.1,0,0,0,0,1.577,1.163,1.163,0,0,0,.789.345.981.981,0,0,0,.789-.345l2.613-2.613a1.1,1.1,0,0,0,0-1.577A1.1,1.1,0,0,0-934.53,1016.558Z" transform="translate(941.924 -992.749)"/><path class="a" d="M-897.754,982.493a.981.981,0,0,0,.789-.345l2.613-2.613a1.1,1.1,0,0,0,0-1.577,1.1,1.1,0,0,0-1.577,0l-2.612,2.613a1.1,1.1,0,0,0,0,1.577A.981.981,0,0,0-897.754,982.493Z" transform="translate(922.351 -973.176)"/><path class="b" d="M-897.625,992.826a9.624,9.624,0,0,0-9.021-6.408,9.67,9.67,0,0,0-7.345,3.451,8.677,8.677,0,0,0-8.133-5.669,8.688,8.688,0,0,0-8.676,8.676,8.711,8.711,0,0,0,4.486,7.591,5.657,5.657,0,0,0-.3,1.824,6.111,6.111,0,0,0,6.112,6.112h20.851a7.931,7.931,0,0,0,7.936-7.936A7.915,7.915,0,0,0-897.625,992.826Zm-27.654,5.669a6.409,6.409,0,0,1-3.3-5.62,6.48,6.48,0,0,1,6.457-6.457,6.441,6.441,0,0,1,6.26,4.929,6.328,6.328,0,0,0-5.077,4.831A6.131,6.131,0,0,0-925.279,998.5Zm25.633,7.69H-920.5a3.9,3.9,0,0,1-3.894-3.894A3.9,3.9,0,0,1-920.5,998.4h.394a1.062,1.062,0,0,0,.838-.246,1.029,1.029,0,0,0,.394-.789,4.064,4.064,0,0,1,4.042-3.894h.394a1.091,1.091,0,0,0,1.134-.641,7.351,7.351,0,0,1,6.655-4.239,7.381,7.381,0,0,1,7.1,5.422,1,1,0,0,0,.887.789,5.706,5.706,0,0,1,4.732,5.62A5.8,5.8,0,0,1-899.646,1006.185Z" transform="translate(938.539 -976.51)"/></svg>