<svg xmlns="http://www.w3.org/2000/svg" width="32.523" height="32.522" viewBox="0 0 32.523 32.522"><defs><style>.a{fill:#fff;}</style></defs><path class="a" d="M31.595,18.6,13.926.929a3.168,3.168,0,0,0-4.482,0L6.479,3.893l.979.979a1.784,1.784,0,0,1,0,2.522,1.826,1.826,0,0,1-2.523,0l-.979-.98L.928,9.442a3.168,3.168,0,0,0,0,4.482L18.6,31.594a3.168,3.168,0,0,0,4.482,0l3.028-3.028-.979-.979a1.784,1.784,0,0,1,0-2.522,1.826,1.826,0,0,1,2.523,0l.979.979,2.964-2.964a3.169,3.169,0,0,0,0-4.482ZM2.769,11.684a.4.4,0,0,1,.117-.284L4.107,10.18a4.556,4.556,0,0,0,6.137-6.136L11.4,2.886a.4.4,0,0,1,.566,0l3.975,3.975L6.861,15.942,2.886,11.967A.393.393,0,0,1,2.769,11.684Zm26.868,9.439L28.48,22.28a4.557,4.557,0,0,0-6.137,6.137l-1.221,1.221a.4.4,0,0,1-.566,0L8.819,17.9,17.9,8.819,29.637,20.556a.4.4,0,0,1,0,.567Z"/></svg>