<svg xmlns="http://www.w3.org/2000/svg" width="34.482" height="22.19" viewBox="0 0 34.482 22.19"><defs><style>.a{fill:#fff;}</style></defs><path class="a" d="M32.341,18.2H7.1a4.524,4.524,0,0,0-4.6,4.424V35.966A4.524,4.524,0,0,0,7.1,40.39H32.377a4.524,4.524,0,0,0,4.6-4.424V22.624A4.579,4.579,0,0,0,32.341,18.2Zm2.321,17.731a2.269,2.269,0,0,1-2.321,2.229H7.1a2.27,2.27,0,0,1-2.321-2.229V22.624A2.269,2.269,0,0,1,7.1,20.395H32.377A2.27,2.27,0,0,1,34.7,22.624V35.931Z" transform="translate(-2.5 -18.2)"/><path class="a" d="M62.579,32.5H53.26a1.146,1.146,0,0,0-1.16,1.115,1.124,1.124,0,0,0,1.16,1.115h9.318a1.146,1.146,0,0,0,1.16-1.115A1.124,1.124,0,0,0,62.579,32.5Z" transform="translate(-34.116 -27.519)"/><path class="a" d="M62.579,46.8H53.26a1.146,1.146,0,0,0-1.16,1.115,1.124,1.124,0,0,0,1.16,1.115h9.318a1.146,1.146,0,0,0,1.16-1.115A1.124,1.124,0,0,0,62.579,46.8Z" transform="translate(-34.116 -36.837)"/><path class="a" d="M62.579,61.2H53.26a1.116,1.116,0,1,0,0,2.229h9.318a1.146,1.146,0,0,0,1.16-1.115A1.124,1.124,0,0,0,62.579,61.2Z" transform="translate(-34.116 -46.221)"/><path class="a" d="M23.676,36.657a3.52,3.52,0,0,0,.87-2.334,3.774,3.774,0,0,0-7.542,0,3.588,3.588,0,0,0,.87,2.334A5.849,5.849,0,0,0,15.3,41.5c0,.627.254,1.742,2.067,2.473a9.916,9.916,0,0,0,3.408.557c3.336,0,5.475-1.184,5.475-3.031A5.761,5.761,0,0,0,23.676,36.657Zm-4.387-2.334a1.465,1.465,0,0,1,1.487-1.428,1.489,1.489,0,0,1,1.487,1.428,1.488,1.488,0,0,1-2.973,0Zm1.487,8.012c-2.176,0-3.191-.662-3.191-.836a3.352,3.352,0,0,1,3.191-3.518A3.352,3.352,0,0,1,23.966,41.5C23.966,41.673,22.951,42.335,20.775,42.335Z" transform="translate(-10.659 -26.346)"/></svg>