<svg xmlns="http://www.w3.org/2000/svg" width="20.646" height="24" viewBox="0 0 20.646 24"><defs><style>.a{fill:#fff;}</style></defs><g transform="translate(0)"><path class="a" d="M23.413,23.073,17.5,7.873a.771.771,0,0,0-.481-.48.513.513,0,0,0-.619.24l-8.8,10.24a1.24,1.24,0,0,0-.206.72.821.821,0,0,0,.412.56l13.058,6.88a1.687,1.687,0,0,0,.893.24,1.951,1.951,0,0,0,1.581-.96A2.8,2.8,0,0,0,23.413,23.073ZM14,20.593l4.811-5.6,1.856,4.64-2.612,3.04Zm2.612-10.96,1.512,3.92-5.5,6.4-3.368-1.76Zm5.567,14.8a.473.473,0,0,1-.687.16l-2.131-1.12,1.856-2.16.962,2.48A1.011,1.011,0,0,1,22.176,24.433Z" transform="translate(-2.965 -2.273)"/><path class="a" d="M13.335,10.6a.546.546,0,0,0,.344-.08.882.882,0,0,0,.275-1.12,5.673,5.673,0,0,1-.137-5.04A2.931,2.931,0,0,1,16.084,2.6a.708.708,0,0,0,.687-.8.708.708,0,0,0-.687-.8,4.163,4.163,0,0,0-3.505,2.56,7.53,7.53,0,0,0,.137,6.64A.707.707,0,0,0,13.335,10.6Z" transform="translate(-4.365 -1)"/><path class="a" d="M1.969,9.437a3.33,3.33,0,0,1,2.887.08,4.513,4.513,0,0,1,2.337,2.72.666.666,0,0,0,.619.48.461.461,0,0,0,.275-.08A.879.879,0,0,0,8.5,11.6a5.858,5.858,0,0,0-3.093-3.52A4.645,4.645,0,0,0,1.42,8a.85.85,0,0,0-.344,1.04A.648.648,0,0,0,1.969,9.437Z" transform="translate(-0.971 -2.317)"/><path class="a" d="M6.894,16.458a.69.69,0,0,0,.893-.48.879.879,0,0,0-.412-1.04,4.45,4.45,0,0,0-4.536,1.04,6.249,6.249,0,0,0-1.856,5.44.727.727,0,0,0,.687.72H1.74a.784.784,0,0,0,.619-.88,4.543,4.543,0,0,1,1.306-4A3.519,3.519,0,0,1,6.894,16.458Z" transform="translate(-0.948 -3.739)"/><ellipse class="a" cx="1.375" cy="1.6" rx="1.375" ry="1.6" transform="translate(3.472 0.8)"/><ellipse class="a" cx="1.375" cy="1.6" rx="1.375" ry="1.6" transform="translate(0.723 8)"/></g></svg>