<svg xmlns="http://www.w3.org/2000/svg" width="43.312" height="31.5" viewBox="0 0 43.312 31.5"><defs><style>.a{fill:#039;}</style></defs><g transform="translate(-1 -4)"><path class="a" d="M40.375,11.875V9.906a1.86,1.86,0,0,0-1.969-1.969H6.906A1.973,1.973,0,0,0,4.937,9.906v1.969Zm0,7.875H4.937v9.844a1.86,1.86,0,0,0,1.969,1.969h31.5a2.117,2.117,0,0,0,1.969-1.969ZM1,9.906A5.8,5.8,0,0,1,6.906,4h31.5a5.8,5.8,0,0,1,5.906,5.906V29.594A5.8,5.8,0,0,1,38.406,35.5H6.906A5.8,5.8,0,0,1,1,29.594Z" transform="translate(0 0)"/><rect class="a" width="16" height="5" transform="translate(8 23.5)"/></g></svg>