<svg xmlns="http://www.w3.org/2000/svg" width="8.5" height="1080.7" viewBox="0 0 8.5 1080.7"><path d="M4.5,1080.7c0-5.3,4-5.3,4-10.7s-4-5.3-4-10.7,4-5.3,4-10.7-4-5.3-4-10.7,4-5.3,4-10.7-4-5.3-4-10.7,4-5.3,4-10.7-4-5.3-4-10.7,4-5.3,4-10.7-4-5.3-4-10.7,4-5.3,4-10.7-4-5.3-4-10.7,4-5.3,4-10.7-4-5.3-4-10.7,4-5.3,4-10.7-4-5.3-4-10.7,4-5.3,4-10.7-4-5.3-4-10.7,4-5.3,4-10.7-4-5.3-4-10.7,4-5.3,4-10.7-4-5.3-4-10.7,4-5.3,4-10.7-4-5.3-4-10.7,4-5.3,4-10.7-4-5.3-4-10.7,4-5.3,4-10.7-4-5.3-4-10.7,4-5.3,4-10.7-4-5.3-4-10.7,4-5.3,4-10.7-4-5.3-4-10.7,4-5.3,4-10.7-4-5.3-4-10.7,4-5.3,4-10.7-4-5.3-4-10.7,4-5.3,4-10.7-4-5.3-4-10.7,4-5.3,4-10.7-4-5.3-4-10.7,4-5.3,4-10.7-4-5.3-4-10.7,4-5.3,4-10.7-4-5.3-4-10.7,4-5.3,4-10.7-4-5.3-4-10.7,4-5.3,4-10.7-4-5.3-4-10.7,4-5.3,4-10.7-4-5.3-4-10.7,4-5.3,4-10.7-4-5.3-4-10.7,4-5.3,4-10.7-4-5.3-4-10.7,4-5.3,4-10.7-4-5.3-4-10.7,4-5.3,4-10.7-4-5.3-4-10.7,4-5.3,4-10.7-4-5.3-4-10.7,4-5.3,4-10.7-4-5.3-4-10.7,4-5.3,4-10.7-4-5.3-4-10.7,4-5.3,4-10.7-4-5.3-4-10.7,4-5.3,4-10.7-4-5.3-4-10.7,4-5.3,4-10.7-4-5.3-4-10.7,4-5.3,4-10.7-4-5.3-4-10.7,4-5.3,4-10.7-4-5.3-4-10.7,4-5.3,4-10.7-4-5.3-4-10.7,4-5.3,4-10.7-4-5.3-4-10.7,4-5.3,4-10.7-4-5.3-4-10.7,4-5.3,4-10.7-4-5.3-4-10.7,4-5.3,4-10.7-4-5.3-4-10.7,4-5.3,4-10.7-4-5.3-4-10.7,4-5.3,4-10.7-4-5.3-4-10.7,4-5.3,4-10.7-4-5.3-4-10.7,4-5.3,4-10.7-4-5.3-4-10.7,4-5.3,4-10.7-4-5.3-4-10.7,4-5.3,4-10.7-4-5.3-4-10.7,4-5.3,4-10.7-4-5.3-4-10.7,4-5.3,4-10.7-4-5.3-4-10.7,4-5.3,4-10.7H0V1079.5H4.5Z"/></svg>