<svg xmlns="http://www.w3.org/2000/svg" width="56.833" height="354.379" viewBox="0 0 56.833 354.379">
  <path id="menu-label" d="M-3828.946,357.126q-17.4,0-23.8-.142v-27.42l.062-.047a.366.366,0,0,0-.062-.169V301.577h41.2q10.088,0,10.865.444a6.785,6.785,0,0,1,3.216,3.215q.443,1.222.443,6.653t-.666,6.875a4.976,4.976,0,0,1-1.44,2,5.5,5.5,0,0,1-2.718,1.22q-1.5.222-8.592.221h-17.852l2.441,2.329a8.66,8.66,0,0,1,2.66,3.658,4.153,4.153,0,0,1,0,2.328q-.221,1.221-2.66,3.548l-2.441,2.439h13.084q13.084,0,14.3.445a5.74,5.74,0,0,1,3.325,3.1q.557,1.224.555,6.763,0,5.435-.443,6.653a6.273,6.273,0,0,1-3.216,3.1q-.775.446-4.324.5-3.506.057-23.257.055Zm-9.658-104.334q-10.35,0-14.143-.1V208.816q1.059-.042,2.391-.042a22.35,22.35,0,0,1,6.1.555,6.38,6.38,0,0,1,3.771,3.547q.555,1.221.665,10.312l.11,8.981h1.885v-5.875a38.453,38.453,0,0,1,.278-6.1,5.17,5.17,0,0,1,1.5-2.439,5.021,5.021,0,0,1,2.327-1.608,25.982,25.982,0,0,1,4.879-.278h4.435l1.33.666a4.075,4.075,0,0,1,2,1.664,6.61,6.61,0,0,1,1.166,2.772,39.071,39.071,0,0,1,.276,5.764v5.211h1.885V223.3a82.393,82.393,0,0,1,.278-9.091,6,6,0,0,1,1.829-3.216,6.2,6.2,0,0,1,2.439-1.663A17.355,17.355,0,0,1-3809,209h2.108q5.1.112,5.987.554a6.6,6.6,0,0,1,3.215,3.546q.557,1.331.553,17.741v16.742l-.553,1.219a6.57,6.57,0,0,1-3.437,3.327l-1.22.555-26.61.109Zm-4.547-92.91h-8.148q-.77,0-1.448-.024V134.581q2.323-1.419,5.606-3.416l10.31-6.208-9.645-.112q-3.835-.043-6.271-.142V104.672q6.547-.158,23.678-.228h20.291q7.1,0,7.429.11a6.4,6.4,0,0,1,3.658,3.326l.777,1.443v6.763q0,6.764-.554,7.872a4.966,4.966,0,0,1-1.442,2q-1,.778-10.977,6.985l-9.979,6.208h9.091a89.649,89.649,0,0,1,9.259.388,5.488,5.488,0,0,1,2.938,1.83,5.488,5.488,0,0,1,1.387,2.494,36.368,36.368,0,0,1,.277,5.821q0,5.1-.554,6.321a6.808,6.808,0,0,1-3.106,3.215l-1,.555-26.721.11Zm-9.6-104.423V34.9l12.26-.086,15.633-.223,1.442-.665a6.41,6.41,0,0,0,3.991-6.209,6.627,6.627,0,0,0-2.328-5.1,5.355,5.355,0,0,0-3.437-1.609q-2-.166-15.079-.278-8.3-.058-12.48-.245V3.747h41.357A33.763,33.763,0,0,1-3808,5.986a25.792,25.792,0,0,1,7.539,8.759,28.219,28.219,0,0,1,3,13.195,22.937,22.937,0,0,1-.223,3.77,27.549,27.549,0,0,1-7.872,15.633,27.551,27.551,0,0,1-15.634,7.872q-1.884.334-18.516.332Z" transform="translate(3853.247 -3.247)" fill="#1670ac" stroke="rgba(0,0,0,0)" stroke-miterlimit="10" stroke-width="1"/>
</svg>
