<svg width="66" height="17" viewBox="0 0 66 17" fill="none" xmlns="http://www.w3.org/2000/svg">
<path d="M22.7536 16.5714C21.8463 16.5714 20.9389 16.269 20.2332 15.7649L11.6639 9.71593L6.42144 12.3372C4.20349 13.4461 1.58228 12.5388 0.473303 10.3208C-0.635671 8.10289 0.271671 5.48167 2.48962 4.3727L10.1516 0.541693C11.6639 -0.164018 13.3777 -0.0631991 14.6883 0.844143L23.3585 6.99391L36.8678 0.541693C38.2793 -0.164018 39.8923 -0.0631976 41.1021 0.743329L49.2682 5.78412L59.753 1.04577C61.971 0.0376136 64.5922 1.04578 65.6003 3.26373C66.6085 5.48167 65.6003 8.10288 63.3824 9.11104L50.6796 14.8575C49.369 15.4624 47.7559 15.3616 46.5462 14.5551L38.4809 9.51431L24.6691 16.0673C24.0642 16.3698 23.3585 16.5714 22.7536 16.5714Z" fill="white"/>
</svg>
