<svg width="241" height="345" viewBox="0 0 241 345" fill="none" xmlns="http://www.w3.org/2000/svg">
<path d="M128.001 54.1002L89.291 41.1002C89.291 41.1002 143.471 26.3302 158.911 23.6802C171.551 20.4602 221.601 11.9402 221.601 11.9402V42.8002L217.661 45.5402L138.001 59.1002L128.001 54.1002Z" fill="#41B1C3"/>
<path d="M118.62 40.2603C119.73 40.7303 147.8 50.0703 147.8 50.0703C147.8 50.0703 145.68 61.0202 131.69 64.8802C122.41 67.4402 83.6003 77.1102 76.8503 89.2802C72.8289 96.4936 71.2569 104.817 72.3703 113C72.3703 113 50.8403 82.6702 61.4603 69.9402C72.0803 57.2102 118.62 40.2603 118.62 40.2603Z" fill="#FF5E26"/>
<path d="M4.75062 75.0002C4.75062 75.0002 -5.01938 103.52 6.81062 124.47C20.5206 148.76 79.6406 184.68 105.061 201.73C130.711 218.93 147.701 235.6 147.181 246.92C146.431 263.38 131.471 265.01 131.471 265.01C131.471 265.01 175.131 263.13 177.021 244.12C178.911 225.11 138.251 180.39 138.251 180.39C138.251 180.39 71.8306 132.88 54.2506 120.84C36.6706 108.8 4.75062 75.0002 4.75062 75.0002Z" fill="#FF5E26"/>
<path d="M206.161 315.28C191.991 325.84 158.161 336.28 139.751 341.95C107.611 351.85 68.1309 325.95 68.1309 325.95L237.881 241.63C237.881 241.63 249.341 283.1 206.161 315.28Z" fill="#FF5E26"/>
<path d="M239.071 257.61C219.881 314.71 129.471 320.86 129.471 320.86C129.471 320.86 113.331 343.63 77.0008 331.42C62.8408 326.66 55.1708 318.14 51.2008 308.98C43.4708 291.22 49.7008 270.98 49.7008 270.98C49.7008 270.98 154.921 266.82 164.201 239.22C174.891 207.43 -16.9992 139.11 5.72078 71.5401C16.3008 40.0401 90.2308 29.6001 90.2308 29.6001L126.001 41.7301L149.531 49.7301C149.531 49.7301 74.6908 61.5901 66.5308 85.8801C52.6808 126.92 260.071 195.15 239.071 257.61Z" fill="#41B1C3"/>
<path d="M166.001 271.62C138.931 300.53 59.0008 300.77 48.4108 300C46.5749 290.365 47.0167 280.434 49.7008 271C49.7008 271 154.921 266.84 164.201 239.24C174.891 207.43 -16.9992 139.11 5.72078 71.5401C16.3008 40.0401 90.2308 29.6001 90.2308 29.6001L109.231 36.1001C105.351 37.0101 42.6508 53.4301 25.2308 71.4101C13.5708 83.4101 22.6008 108.23 40.5908 126.41C63.6708 149.71 133.401 198.89 158.311 219.57C187.611 243.92 177.671 259.17 166.001 271.62Z" fill="#48BFCC"/>
<path d="M110.791 71.0002C110.791 71.0002 192.071 50.2202 221.411 46.0702C221.411 42.7702 221.551 36.1902 221.551 36.1902C221.551 36.1902 127.321 53.3802 120.601 56.0302C113.881 58.6802 110.791 71.0002 110.791 71.0002Z" fill="#FF5E26"/>
<path d="M184.23 209.64C181.86 211.02 177.91 218.37 177.15 222.88C176.39 227.39 177.93 235.63 177.93 235.63C177.93 235.63 185.4 237.39 189.01 241.48C192.62 245.57 196.89 248.78 203.59 252.25C210.29 255.72 220.49 250.59 220.49 250.59L220 218.66C220 218.66 214.13 225.42 209.47 222.01C202.76 217.08 194.48 203.64 184.23 209.64Z" fill="black"/>
<path d="M175.602 227.091C173.344 232.113 175.585 238.015 180.607 240.273C185.629 242.531 191.531 240.29 193.789 235.268L197.885 226.157C200.143 221.135 197.903 215.233 192.881 212.975C187.859 210.717 181.957 212.958 179.699 217.98L175.602 227.091Z" fill="#DFB28B"/>
<path d="M174.717 246.772L182.644 250.343L188.712 236.875L180.785 233.304L174.717 246.772Z" fill="#DFB28B"/>
<path d="M177.081 225.98C178.356 225.98 179.391 224.946 179.391 223.67C179.391 222.394 178.356 221.36 177.081 221.36C175.805 221.36 174.771 222.394 174.771 223.67C174.771 224.946 175.805 225.98 177.081 225.98Z" fill="#DFB28B"/>
<path d="M195.491 233.79C196.766 233.79 197.801 232.756 197.801 231.48C197.801 230.204 196.766 229.17 195.491 229.17C194.215 229.17 193.181 230.204 193.181 231.48C193.181 232.756 194.215 233.79 195.491 233.79Z" fill="#DFB28B"/>
<path d="M191.87 229.35C191.789 229.329 191.718 229.279 191.67 229.21C191.426 228.999 191.142 228.837 190.834 228.736C190.527 228.635 190.203 228.596 189.88 228.62C189.764 228.62 189.652 228.574 189.569 228.491C189.487 228.409 189.44 228.297 189.44 228.18C189.44 228.064 189.487 227.952 189.569 227.869C189.652 227.787 189.764 227.74 189.88 227.74C190.342 227.708 190.804 227.773 191.238 227.932C191.673 228.09 192.069 228.338 192.4 228.66C192.437 228.705 192.464 228.757 192.48 228.813C192.496 228.869 192.501 228.927 192.494 228.985C192.488 229.042 192.47 229.098 192.442 229.149C192.414 229.2 192.376 229.244 192.33 229.28C192.269 229.335 192.192 229.37 192.111 229.383C192.029 229.395 191.946 229.384 191.87 229.35V229.35Z" fill="black"/>
<path d="M186.391 211C186.391 211 183.331 226.71 198.621 233.12L205.841 219.62C205.841 219.62 192.501 208.23 186.391 211Z" fill="black"/>
<path d="M157.651 249C156.881 247.95 156.331 247.11 155.721 246.15C155.111 245.19 154.561 244.28 154.011 243.32C152.899 241.378 151.897 239.375 151.011 237.32C150.033 235.103 149.289 232.791 148.791 230.42C148.505 229.062 148.367 227.678 148.381 226.29L148.521 224.56L148.721 222.93C149.321 218.68 150.141 214.71 151.001 210.71C151.861 206.71 152.791 202.78 153.771 198.83C153.911 198.262 154.256 197.765 154.741 197.437C155.225 197.108 155.814 196.97 156.394 197.049C156.974 197.129 157.504 197.42 157.882 197.867C158.26 198.314 158.459 198.885 158.441 199.47V199.47C158.311 203.47 158.231 207.47 158.221 211.47C158.211 215.47 158.221 219.47 158.521 223.24L158.641 224.62L158.811 225.9C158.926 226.518 159.096 227.123 159.321 227.71C159.902 229.204 160.622 230.64 161.471 232C162.414 233.505 163.439 234.957 164.541 236.35C165.101 237.07 165.671 237.77 166.271 238.46C166.871 239.15 167.511 239.87 168.011 240.37C169.28 241.634 169.995 243.35 169.999 245.141C170.002 246.932 169.295 248.651 168.031 249.92C166.767 251.189 165.051 251.904 163.26 251.908C161.469 251.912 159.75 251.204 158.481 249.94C158.245 249.701 158.024 249.447 157.821 249.18L157.651 249Z" fill="#DFB28B"/>
<path d="M158.652 201.026C160.236 199.815 160.549 197.564 159.351 195.998C158.153 194.431 155.898 194.144 154.315 195.355C152.731 196.566 152.418 198.818 153.616 200.384C154.814 201.95 157.069 202.238 158.652 201.026Z" fill="#DFB28B"/>
<path d="M156.37 202.07C155.921 201.927 155.541 201.622 155.303 201.214C155.065 200.807 154.986 200.326 155.082 199.864C155.177 199.402 155.441 198.992 155.821 198.712C156.201 198.433 156.671 198.304 157.14 198.35C157.946 198.334 158.726 198.065 159.37 197.58C159.771 197.322 160.254 197.223 160.725 197.302C161.195 197.382 161.618 197.635 161.912 198.011C162.205 198.387 162.347 198.859 162.31 199.335C162.273 199.81 162.059 200.254 161.71 200.58C160.306 201.642 158.58 202.189 156.82 202.13C156.669 202.127 156.518 202.106 156.37 202.07V202.07Z" fill="#DFB28B"/>
<path d="M187.711 248.88C188.411 248.79 189.401 248.59 190.261 248.41C191.121 248.23 192.031 248 192.911 247.77C194.629 247.324 196.322 246.783 197.981 246.15C199.482 245.586 200.925 244.88 202.291 244.04C202.823 243.708 203.321 243.326 203.781 242.9L204.691 241.99L205.621 240.99C208.121 238.14 210.621 234.99 212.971 231.79C215.321 228.59 217.741 225.35 220.051 222.09C220.384 221.598 220.89 221.249 221.468 221.112C222.046 220.975 222.655 221.06 223.173 221.351C223.691 221.641 224.082 222.116 224.267 222.681C224.451 223.246 224.417 223.859 224.171 224.4C222.561 228.14 220.911 231.84 219.171 235.54C217.431 239.24 215.691 242.91 213.611 246.65L212.781 248.07L211.851 249.54C211.017 250.65 210.072 251.672 209.031 252.59C207.198 254.173 205.208 255.564 203.091 256.74C201.149 257.853 199.146 258.854 197.091 259.74C196.091 260.18 195.041 260.58 194.011 260.97C192.981 261.36 192.011 261.7 190.751 262.07L190.571 262.13C189.721 262.384 188.83 262.469 187.948 262.378C187.065 262.288 186.21 262.025 185.429 261.603C183.853 260.753 182.679 259.311 182.166 257.595C181.653 255.879 181.842 254.03 182.693 252.454C183.543 250.877 184.985 249.703 186.701 249.19C187.03 249.064 187.368 248.96 187.711 248.88Z" fill="#DFB28B"/>
<path d="M223.28 225.739C225.181 225.214 226.292 223.231 225.761 221.309C225.231 219.387 223.26 218.254 221.359 218.779C219.459 219.304 218.348 221.287 218.878 223.209C219.409 225.131 221.38 226.263 223.28 225.739Z" fill="#DFB28B"/>
<path d="M220.081 225.37C219.936 225.322 219.798 225.255 219.671 225.17C218.211 224.169 217.149 222.685 216.671 220.98C216.605 220.738 216.588 220.485 216.62 220.236C216.652 219.987 216.733 219.747 216.858 219.529C216.983 219.311 217.149 219.12 217.348 218.967C217.547 218.814 217.774 218.701 218.016 218.635C218.258 218.569 218.511 218.552 218.76 218.584C219.009 218.616 219.249 218.697 219.467 218.822C219.685 218.947 219.876 219.113 220.029 219.312C220.183 219.511 220.295 219.738 220.361 219.98C220.582 220.752 221.04 221.434 221.671 221.93C222.072 222.177 222.368 222.563 222.501 223.015C222.635 223.466 222.597 223.951 222.395 224.376C222.193 224.802 221.841 225.137 221.406 225.319C220.972 225.5 220.486 225.515 220.041 225.36L220.081 225.37Z" fill="#DFB28B"/>
<path d="M187.381 214L177.811 221.53L180.811 214.7C180.811 214.7 184.371 210.78 184.451 210.56C185.699 210.255 186.97 210.051 188.251 209.95L187.381 214Z" fill="black"/>
<path d="M189.691 260.72C182.241 271.57 176.441 280.55 174.311 300.3C173.995 303.287 172.511 306.027 170.182 307.923C167.853 309.819 164.869 310.717 161.881 310.42L152.291 309.47C145.551 308.79 140.091 302.21 142.291 295.81C148.711 277.18 150.931 258.62 158.801 244.59C159.943 242.546 161.795 240.991 164.007 240.221C166.218 239.451 168.635 239.518 170.801 240.41L185.471 246.5C186.783 247.045 187.958 247.875 188.909 248.931C189.86 249.987 190.564 251.242 190.968 252.605C191.372 253.967 191.468 255.403 191.247 256.807C191.026 258.211 190.494 259.548 189.691 260.72Z" fill="#FF5E26"/>
<path d="M189.13 234C188.368 235.256 187.189 236.204 185.8 236.68C184.799 236.933 183.741 236.838 182.8 236.41C181.751 236 180.896 235.207 180.41 234.19C179.797 232.82 179.629 231.291 179.93 229.82L189.13 234Z" fill="black"/>
<path d="M143.11 305.35C139.57 301.941 136.587 297.996 134.27 293.66C133.16 291.66 132.19 289.66 131.27 287.8C130.35 285.94 129.55 284.05 128.9 282.8C128.75 282.5 128.61 282.23 128.58 282.14C128.55 282.05 128.58 282.14 129.36 282.43C129.937 282.652 130.553 282.754 131.17 282.73C131.847 282.716 132.511 282.534 133.1 282.2C133.377 282.054 133.622 281.853 133.82 281.61C133.722 281.634 133.628 281.671 133.54 281.72C132.948 282.092 132.413 282.547 131.95 283.07C131.351 283.72 130.79 284.405 130.27 285.12C128.003 288.286 125.996 291.63 124.27 295.12V295.22C123.991 295.761 123.53 296.187 122.968 296.422C122.405 296.657 121.779 296.686 121.197 296.504C120.616 296.323 120.117 295.942 119.788 295.429C119.46 294.917 119.322 294.304 119.4 293.7C119.925 289.42 120.794 285.19 122 281.05C122.34 279.97 122.71 278.87 123.19 277.74C123.725 276.475 124.396 275.271 125.19 274.15C125.4 273.83 125.7 273.48 125.96 273.15C126.548 272.558 127.222 272.059 127.96 271.67C129.005 271.102 130.171 270.793 131.36 270.77C132.484 270.755 133.598 270.976 134.63 271.42C135.802 271.95 136.871 272.681 137.79 273.58C138.356 274.112 138.891 274.676 139.39 275.27C141.1 277.27 142.25 278.95 143.49 280.56C144.73 282.17 145.86 283.62 147.05 284.97C149.147 287.465 151.632 289.606 154.41 291.31C155.523 291.943 156.49 292.804 157.246 293.838C158.002 294.871 158.53 296.053 158.796 297.305C159.062 298.557 159.059 299.852 158.788 301.103C158.518 302.355 157.985 303.534 157.225 304.565C156.465 305.595 155.495 306.453 154.379 307.081C153.264 307.709 152.028 308.094 150.753 308.21C149.478 308.326 148.193 308.17 146.982 307.753C145.772 307.336 144.663 306.667 143.73 305.79L143.11 305.35Z" fill="#DFB28B"/>
<path d="M120.611 298.07C115.281 296.28 112.451 290.19 112.151 289.5C111.942 289.04 111.826 288.543 111.81 288.038C111.795 287.532 111.879 287.029 112.059 286.557C112.238 286.084 112.51 285.652 112.857 285.285C113.205 284.918 113.622 284.623 114.084 284.418C114.545 284.213 115.043 284.101 115.549 284.089C116.054 284.077 116.557 284.166 117.028 284.349C117.499 284.532 117.929 284.807 118.293 285.157C118.658 285.508 118.949 285.927 119.151 286.39C119.691 287.59 121.361 290.25 123.061 290.82C123.537 290.98 123.976 291.233 124.355 291.563C124.733 291.893 125.043 292.295 125.267 292.745C125.49 293.194 125.622 293.684 125.657 294.185C125.691 294.686 125.626 295.189 125.466 295.665C125.305 296.141 125.053 296.581 124.723 296.959C124.393 297.338 123.991 297.648 123.541 297.871C123.091 298.094 122.602 298.227 122.101 298.261C121.6 298.295 121.097 298.23 120.621 298.07H120.611Z" fill="#DFB28B"/>
<path d="M162.67 296.41C162.67 296.48 162.8 296.31 162.88 296.23L163.15 295.89C163.33 295.65 163.52 295.4 163.7 295.14C164.07 294.62 164.44 294.06 164.79 293.5C165.5 292.37 166.17 291.19 166.79 289.97C167.41 288.75 167.98 287.5 168.52 286.23C168.78 285.59 169.04 284.94 169.27 284.29L169.45 283.8L169.53 283.56L169.66 282.97C169.713 282.729 169.783 282.492 169.87 282.26C170.204 281.299 170.743 280.422 171.45 279.69C172.017 279.112 172.676 278.632 173.4 278.27C174.288 277.847 175.242 277.583 176.22 277.49C176.863 277.436 177.508 277.436 178.15 277.49C179.162 277.578 180.165 277.745 181.15 277.99C182.818 278.418 184.458 278.949 186.06 279.58C189.06 280.763 191.997 282.098 194.86 283.58C195.407 283.859 195.837 284.323 196.073 284.89C196.31 285.456 196.337 286.088 196.151 286.673C195.965 287.258 195.577 287.757 195.057 288.083C194.537 288.408 193.918 288.539 193.31 288.45H193.23C190.23 288.02 187.23 287.68 184.32 287.55C182.934 287.479 181.544 287.499 180.16 287.61C179.611 287.651 179.068 287.752 178.54 287.91C178.35 287.98 178.2 288.06 178.19 288.13C178.18 288.2 178.33 288.26 178.84 288.06C179.216 287.885 179.555 287.641 179.84 287.34C180.284 286.892 180.625 286.353 180.84 285.76C180.84 285.6 180.94 285.47 180.97 285.33V285.12C180.97 285.05 180.97 284.96 180.97 285.03V285.35V286C180.97 286.86 180.97 287.73 180.97 288.6C180.97 290.33 180.84 292.07 180.65 293.81C180.46 295.55 180.23 297.29 179.9 299.05C179.73 299.93 179.55 300.8 179.33 301.7C179.22 302.14 179.11 302.59 178.98 303.06L178.77 303.77C178.692 304.059 178.595 304.343 178.48 304.62C177.318 306.601 175.443 308.063 173.238 308.706C171.033 309.349 168.666 309.125 166.621 308.079C164.576 307.034 163.008 305.246 162.238 303.082C161.469 300.919 161.555 298.542 162.48 296.44L162.67 296.41Z" fill="#DFB28B"/>
<path d="M192.801 289.62C192.325 289.461 191.885 289.209 191.506 288.88C191.128 288.55 190.818 288.149 190.595 287.699C190.372 287.249 190.24 286.76 190.207 286.259C190.173 285.758 190.239 285.255 190.401 284.78L192.821 277.58C193.145 276.619 193.837 275.825 194.745 275.374C195.654 274.923 196.705 274.852 197.666 275.175C198.627 275.499 199.421 276.191 199.872 277.1C200.323 278.008 200.395 279.059 200.071 280.02L197.651 287.22C197.491 287.697 197.238 288.137 196.908 288.516C196.577 288.894 196.175 289.204 195.724 289.427C195.274 289.65 194.784 289.782 194.282 289.815C193.78 289.848 193.277 289.782 192.801 289.62V289.62Z" fill="#DFB28B"/>
<path d="M186.001 222.73C185.933 222.707 185.872 222.667 185.823 222.615C185.775 222.563 185.739 222.499 185.721 222.43C185.535 221.811 185.13 221.281 184.581 220.94C184.355 220.842 184.111 220.796 183.865 220.805C183.619 220.813 183.379 220.877 183.161 220.99C183.052 221.034 182.93 221.033 182.822 220.988C182.713 220.943 182.627 220.858 182.581 220.75C182.558 220.697 182.546 220.64 182.546 220.582C182.546 220.525 182.557 220.467 182.58 220.414C182.602 220.361 182.635 220.313 182.676 220.273C182.718 220.233 182.767 220.201 182.821 220.18C183.157 220.022 183.524 219.94 183.896 219.94C184.267 219.94 184.634 220.022 184.971 220.18C185.737 220.622 186.308 221.336 186.571 222.18C186.587 222.235 186.593 222.293 186.587 222.351C186.58 222.408 186.563 222.463 186.535 222.514C186.507 222.564 186.469 222.608 186.424 222.644C186.378 222.679 186.326 222.705 186.271 222.72C186.183 222.748 186.09 222.752 186.001 222.73V222.73Z" fill="black"/>
<path d="M183.811 225.58C183.731 225.556 183.661 225.507 183.611 225.44C183.42 225.175 183.178 224.95 182.9 224.778C182.622 224.607 182.313 224.492 181.991 224.44C181.933 224.443 181.875 224.434 181.821 224.414C181.766 224.395 181.716 224.364 181.674 224.325C181.631 224.286 181.596 224.239 181.572 224.187C181.547 224.135 181.533 224.078 181.531 224.02C181.528 223.961 181.537 223.903 181.557 223.848C181.578 223.793 181.609 223.742 181.649 223.699C181.689 223.657 181.737 223.622 181.791 223.598C181.844 223.574 181.902 223.561 181.961 223.56C182.419 223.604 182.864 223.743 183.266 223.966C183.669 224.19 184.021 224.494 184.301 224.86C184.337 224.905 184.364 224.957 184.38 225.013C184.396 225.069 184.401 225.127 184.395 225.185C184.388 225.242 184.37 225.298 184.342 225.349C184.314 225.399 184.276 225.444 184.231 225.48C184.176 225.532 184.108 225.569 184.034 225.587C183.96 225.604 183.883 225.602 183.811 225.58V225.58Z" fill="black"/>
<path d="M169.221 239.92C165.161 239.01 160.681 240.06 158.591 243.8C157.761 245.27 157.221 247.59 156.511 249.15L169.221 239.92Z" fill="#DFB28B"/>
<path d="M187.381 247.56L188.881 261.9C189.151 261.51 190.351 260.56 190.621 260.16C193.631 255.78 191.501 250.5 187.381 247.56Z" fill="#DFB28B"/>
<path d="M185.8 236.64C184.798 236.893 183.741 236.797 182.8 236.37C181.751 235.96 180.896 235.167 180.41 234.15C180.931 233.956 181.485 233.867 182.04 233.887C182.595 233.908 183.141 234.037 183.646 234.268C184.151 234.5 184.606 234.828 184.984 235.235C185.362 235.642 185.657 236.119 185.85 236.64H185.8Z" fill="#FF0030"/>
<path d="M51.4808 70.8903L52.1908 71.0303L53.0008 71.1603C53.5308 71.2403 54.0808 71.3103 54.6208 71.3603C55.6706 71.4656 56.7262 71.5024 57.7808 71.4703C58.6881 71.4437 59.5899 71.3197 60.4707 71.1003C60.7765 71.0125 61.0743 70.8987 61.3608 70.7603C61.6502 70.6198 61.906 70.4185 62.1108 70.1703C63.7308 68.5603 65.3608 66.6703 66.9408 64.8103C68.5208 62.9503 70.1008 61.0103 71.6408 59.0803C71.8809 58.7913 72.2172 58.5988 72.5879 58.5379C72.9586 58.4771 73.3388 58.5521 73.6587 58.7491C73.9785 58.9461 74.2166 59.252 74.329 59.6104C74.4415 59.9689 74.4208 60.3559 74.2708 60.7003C73.2708 62.9803 72.1408 65.2403 71.0208 67.5003C69.9008 69.7603 68.7608 71.9903 67.3708 74.2903C67.1681 74.6441 66.9338 74.9788 66.6708 75.2903C66.3366 75.6853 65.9648 76.047 65.5608 76.3703C64.8421 76.9489 64.0564 77.4391 63.2207 77.8303C61.7849 78.4759 60.2728 78.9363 58.7207 79.2003C57.3197 79.4528 55.9031 79.6099 54.4808 79.6703C53.7808 79.6703 53.0908 79.6703 52.4008 79.6703H51.4008C51.0308 79.6703 50.7308 79.6703 50.2708 79.6003H49.9508C48.8094 79.4584 47.7677 78.8791 47.0449 77.9845C46.3221 77.0898 45.9747 75.9496 46.0758 74.8039C46.1769 73.6583 46.7186 72.5965 47.5868 71.8423C48.4551 71.088 49.5822 70.7001 50.7308 70.7603C50.9836 70.7854 51.2342 70.8288 51.4808 70.8903V70.8903Z" fill="#7D4921"/>
<path d="M73.7233 61.5425C74.9691 61.1987 75.6979 59.9014 75.3511 58.645C75.0043 57.3886 73.7133 56.6488 72.4675 56.9927C71.2218 57.3365 70.493 58.6337 70.8398 59.8902C71.1866 61.1466 72.4776 61.8864 73.7233 61.5425Z" fill="#7D4921"/>
<path d="M71.6302 61.3102C71.5325 61.2771 71.4385 61.2335 71.3502 61.1802C70.4052 60.5152 69.7196 59.5435 69.4102 58.4302C69.346 58.1156 69.4044 57.7884 69.5733 57.5154C69.7423 57.2424 70.0091 57.0442 70.3192 56.9613C70.6294 56.8783 70.9595 56.9168 71.2421 57.069C71.5248 57.2212 71.7388 57.4756 71.8402 57.7802C71.9849 58.2868 72.2858 58.7348 72.7002 59.0602C72.9784 59.2406 73.1744 59.5233 73.2455 59.8472C73.3166 60.171 73.2572 60.5098 73.0802 60.7902C72.9326 61.0277 72.709 61.2083 72.4458 61.3027C72.1825 61.3971 71.8951 61.3997 71.6302 61.3102V61.3102Z" fill="#7D4921"/>
<path d="M46.6403 102.25C49.6403 103.65 52.4703 105.07 55.3603 106.61C56.7903 107.39 58.2303 108.19 59.6603 109.04C61.1849 109.934 62.6543 110.919 64.0603 111.99C64.4503 112.3 64.8503 112.62 65.2903 113.04C65.7478 113.462 66.1509 113.939 66.4903 114.46C66.7403 114.86 67.0103 115.25 67.2403 115.65L67.8903 116.85C68.6891 118.413 69.358 120.038 69.8903 121.71C70.8555 124.909 71.4593 128.207 71.6903 131.54C71.7196 131.948 71.5988 132.353 71.3506 132.679C71.1023 133.005 70.7437 133.228 70.3421 133.308C69.9406 133.388 69.5237 133.318 69.1698 133.113C68.8159 132.907 68.5494 132.579 68.4203 132.19V132.09C67.4542 129.259 66.1728 126.545 64.6003 124C63.8572 122.809 63.0213 121.679 62.1003 120.62L61.4203 119.89C61.1903 119.66 60.9403 119.45 60.7103 119.23C60.4803 119.01 60.4403 118.97 60.4503 119.03C60.4603 119.09 60.3703 119.03 60.2903 118.97L59.6303 118.63C58.3819 118.046 57.1034 117.529 55.8003 117.08C54.4203 116.59 52.9903 116.13 51.5403 115.69C48.6503 114.82 45.6403 114 42.7503 113.3C41.9972 113.118 41.2874 112.788 40.6614 112.332C40.0355 111.875 39.5056 111.299 39.1022 110.638C38.6987 109.976 38.4295 109.241 38.3099 108.476C38.1903 107.71 38.2228 106.928 38.4053 106.175C38.5879 105.422 38.9169 104.712 39.3738 104.086C39.8306 103.46 40.4063 102.93 41.0679 102.527C41.7295 102.123 42.4641 101.854 43.2298 101.735C43.9954 101.615 44.7772 101.648 45.5303 101.83C45.9136 101.932 46.2855 102.073 46.6403 102.25V102.25Z" fill="#7D4921"/>
<path d="M31.6608 73.6202C30.7508 85.9502 33.2508 93.5002 27.6608 104.56C26.0708 107.71 31.2709 111.51 34.7709 111.98L43.0509 113.09C46.8509 113.59 50.8009 109.75 50.5909 103.96C50.2109 93.9602 53.9609 87.9602 53.8909 78.0902C53.8909 74.4602 52.4009 71.0902 48.8909 70.1902L40.0009 68.0002C36.0809 67.0502 32.0008 69.6302 31.6608 73.6202Z" fill="#94C93B"/>
<path d="M37.0806 102.08C37.7106 102.45 38.1906 102.78 38.7306 103.13C39.2706 103.48 39.7306 103.84 40.2806 104.21C41.2806 104.94 42.3306 105.71 43.3606 106.56C44.5085 107.488 45.5696 108.519 46.5306 109.64C46.8516 110.025 47.1488 110.429 47.4206 110.85C47.8159 111.468 48.116 112.143 48.3106 112.85C48.4492 113.382 48.5065 113.931 48.4806 114.48C48.4806 114.64 48.4806 114.81 48.4806 114.94V115.06L48.4206 115.28L48.1806 116.2C47.5353 118.568 46.713 120.885 45.7205 123.13C44.7524 125.338 43.64 127.479 42.3906 129.54C42.1765 129.88 41.8481 130.133 41.4643 130.253C41.0806 130.373 40.6666 130.353 40.2968 130.195C39.927 130.037 39.6255 129.752 39.4466 129.392C39.2676 129.032 39.223 128.62 39.3206 128.23V128.14C39.8739 126.012 40.2947 123.851 40.5806 121.67C40.8577 119.535 40.978 117.383 40.9406 115.23V114.44V114.15C40.9342 114.23 40.9342 114.31 40.9406 114.39C40.9004 114.655 40.9004 114.925 40.9406 115.19C41.0006 115.55 41.0606 115.66 41.0106 115.69C40.9606 115.72 40.8806 115.69 40.7606 115.62C40.2406 115.38 39.3506 114.97 38.4506 114.62C37.5506 114.27 36.5406 113.96 35.5406 113.62L34.0206 113.19C33.5306 113.06 32.9706 112.91 32.5506 112.84C30.9831 112.551 29.5947 111.651 28.6908 110.338C27.7869 109.026 27.4415 107.408 27.7306 105.84C28.0196 104.273 28.9196 102.884 30.2323 101.98C31.5451 101.076 33.1631 100.731 34.7306 101.02C35.4359 101.141 36.1135 101.388 36.7306 101.75L37.0806 102.08Z" fill="#7D4921"/>
<path d="M69.1907 134.19C68.6686 134.019 68.2173 133.681 67.9065 133.229C67.5957 132.776 67.4427 132.233 67.4711 131.684C67.4996 131.136 67.7079 130.612 68.0639 130.194C68.4199 129.775 68.9038 129.486 69.4407 129.37C71.0249 128.835 72.5062 128.033 73.8207 127C74.3512 126.594 75.021 126.416 75.683 126.504C76.345 126.592 76.9449 126.94 77.3507 127.47C77.7565 128 77.9349 128.67 77.8468 129.332C77.7587 129.994 77.4112 130.594 76.8807 131C74.986 132.48 72.8328 133.596 70.5308 134.29C70.0832 134.378 69.6202 134.344 69.1907 134.19Z" fill="#7D4921"/>
<path d="M40.1707 131.27C39.6424 131.089 39.1896 130.737 38.8839 130.269C38.5783 129.802 38.4372 129.246 38.4831 128.689C38.529 128.133 38.7592 127.607 39.1373 127.196C39.5154 126.785 40.0198 126.512 40.5707 126.42C42.5599 126.149 44.5634 125.995 46.5707 125.96C46.9171 125.925 47.2671 125.962 47.5985 126.069C47.9299 126.176 48.2354 126.351 48.4956 126.582C48.7557 126.814 48.9648 127.097 49.1096 127.414C49.2543 127.73 49.3316 128.074 49.3365 128.422C49.3414 128.77 49.2737 129.116 49.1379 129.436C49.002 129.757 48.8009 130.046 48.5474 130.284C48.2938 130.523 47.9934 130.707 47.6651 130.823C47.3369 130.939 46.988 130.986 46.6407 130.96C44.8611 130.989 43.0847 131.123 41.3207 131.36C40.9356 131.42 40.5417 131.389 40.1707 131.27Z" fill="#7D4921"/>
<path d="M55.4605 61.8101L55.5705 61.1001L56.5705 61.2501L57.1205 55.0901C57.2213 54.4321 57.1913 53.7606 57.0321 53.1142C56.8729 52.4678 56.5877 51.8591 56.1929 51.3231C55.7981 50.7871 55.3015 50.3343 54.7313 49.9906C54.1612 49.6469 53.5288 49.419 52.8705 49.3201L48.1505 48.6001C47.782 48.5434 47.4059 48.56 47.0439 48.649C46.6818 48.738 46.341 48.8977 46.0408 49.1188C45.7407 49.34 45.4872 49.6183 45.2949 49.9377C45.1027 50.2571 44.9754 50.6114 44.9205 50.9801L42.5205 66.7501L49.4305 67.8001C50.5063 67.9624 51.6058 67.7751 52.5671 67.2656C53.5284 66.7561 54.3008 65.9515 54.7705 64.9701C55.0607 63.9308 55.291 62.8758 55.4605 61.8101Z" fill="#7D4921"/>
<path d="M50.831 53.6802C50.7864 53.6569 50.7459 53.6265 50.711 53.5902C50.6844 53.5642 50.6632 53.5331 50.6488 53.4987C50.6344 53.4644 50.627 53.4275 50.627 53.3903C50.627 53.353 50.6344 53.3161 50.6488 53.2818C50.6632 53.2474 50.6844 53.2163 50.711 53.1902C50.8849 53.0189 51.0938 52.8873 51.3234 52.8045C51.553 52.7216 51.7978 52.6895 52.041 52.7102C52.6175 52.8294 53.1261 53.166 53.461 53.6502C53.504 53.7128 53.5208 53.7897 53.5077 53.8645C53.4946 53.9393 53.4527 54.006 53.391 54.0502C53.3309 54.0902 53.2583 54.1072 53.1866 54.0981C53.115 54.0889 53.0491 54.0541 53.001 54.0002C52.7627 53.6563 52.4071 53.4109 52.001 53.3102C51.8405 53.2962 51.6788 53.3186 51.5282 53.3757C51.3776 53.4329 51.2418 53.5233 51.131 53.6403C51.0886 53.672 51.0387 53.6923 50.9862 53.6993C50.9337 53.7063 50.8802 53.6998 50.831 53.6802Z" fill="black"/>
<path d="M47.5002 70.8102L48.8202 62.0902L43.3502 61.2603L42.1602 69.0802C42.1215 69.3397 42.1469 69.6048 42.234 69.8523C42.3212 70.0998 42.4674 70.3222 42.6602 70.5002L44.2502 71.9602C44.5168 72.1843 44.8373 72.3348 45.18 72.397C45.5227 72.4591 45.8757 72.4307 46.204 72.3145C46.5323 72.1983 46.8246 71.9984 47.0519 71.7346C47.2793 71.4708 47.4338 71.1521 47.5002 70.8102Z" fill="#7D4921"/>
<path d="M50.9406 56.0003C50.8988 55.9891 50.8605 55.9678 50.8291 55.9381C50.7976 55.9084 50.7741 55.8713 50.7606 55.8303C50.7463 55.7949 50.7394 55.757 50.7403 55.7189C50.7412 55.6808 50.7499 55.6433 50.7658 55.6086C50.7817 55.574 50.8046 55.543 50.8329 55.5175C50.8612 55.4919 50.8944 55.4725 50.9306 55.4603C51.2253 55.3899 51.5315 55.382 51.8294 55.4371C52.1274 55.4922 52.4105 55.6091 52.6605 55.7803C52.7239 55.823 52.7678 55.8889 52.7828 55.9638C52.7978 56.0387 52.7826 56.1165 52.7406 56.1803C52.6979 56.2436 52.6319 56.2875 52.557 56.3025C52.4821 56.3175 52.4044 56.3023 52.3406 56.2603C52.1683 56.1385 51.9732 56.0528 51.767 56.0081C51.5609 55.9634 51.3478 55.9608 51.1406 56.0003C51.0754 56.0203 51.0057 56.0203 50.9406 56.0003Z" fill="black"/>
<path d="M53.8908 64.3002C53.7005 64.4771 53.4742 64.6107 53.2273 64.6919C52.9805 64.773 52.719 64.7997 52.4608 64.7702C51.7943 64.7155 51.168 64.4289 50.6908 63.9602C50.2724 63.5449 49.9623 63.0331 49.788 62.4699C49.6136 61.9067 49.5803 61.3093 49.6908 60.7302L55.0108 61.7302C54.9291 62.6865 54.5356 63.5894 53.8908 64.3002Z" fill="black"/>
<path d="M43.0809 63.2701C43.0809 62.5101 44.0009 56.5001 45.0809 56.8501C45.0067 56.6533 44.9781 56.4422 44.9973 56.2327C45.0165 56.0232 45.083 55.8208 45.1918 55.6407C45.3006 55.4607 45.4489 55.3077 45.6254 55.1932C45.802 55.0788 46.0022 55.006 46.2109 54.9801C46.6509 54.9801 47.2109 55.1201 47.4309 54.7501C47.6509 54.3801 47.4309 54.0901 47.3709 53.7501C47.3327 53.511 47.3476 53.2664 47.4145 53.0337C47.4814 52.801 47.5987 52.5858 47.7581 52.4035C47.9174 52.2212 48.115 52.0763 48.3367 51.9789C48.5584 51.8815 48.7988 51.8341 49.0409 51.8401C49.5709 51.9001 50.1809 52.2201 50.6009 51.8401C50.781 51.6168 50.9261 51.3672 51.0309 51.1001C51.6209 50.1701 53.0309 50.6201 53.9409 51.1801C54.8509 51.7401 56.2309 52.2401 56.8709 51.3501C56.9856 51.108 57.1374 50.8853 57.3209 50.6901C58.0109 50.1701 58.7109 51.4201 59.5509 51.5901C59.7691 51.6128 59.9896 51.5839 60.1945 51.5057C60.3995 51.4276 60.5832 51.3023 60.7309 51.1401C61.0967 50.783 61.3509 50.3274 61.4628 49.8286C61.5746 49.3298 61.5392 48.8092 61.3609 48.3301C61.171 47.8635 60.8456 47.4645 60.4267 47.1847C60.0078 46.9048 59.5147 46.757 59.0109 46.7601C59.2095 46.0473 59.2011 45.2927 58.9869 44.5844C58.7726 43.8761 58.3613 43.2434 57.8009 42.7601C56.6791 41.8439 55.2437 41.4025 53.8009 41.5301C53.0009 41.5801 52.0309 41.7101 51.5209 41.0801C51.3727 40.8486 51.2455 40.6044 51.1409 40.3501C50.3409 38.8901 48.2409 38.9201 46.6909 39.5301C45.1409 40.1401 43.6909 41.1601 42.0109 41.0401C41.4948 40.9325 40.9646 40.9088 40.4409 40.9701C38.6209 41.4401 38.6609 44.8801 36.7809 45.0201C36.4609 45.0201 36.1409 44.9501 35.7809 45.0201C35.1932 45.1817 34.6911 45.5654 34.3809 46.0901C33.3902 47.2014 32.7897 48.606 32.6709 50.0901C32.6709 51.6701 33.6709 53.1501 33.4509 54.7201C33.2342 55.4567 33.133 56.2225 33.1509 56.9901C33.4309 58.3201 35.0509 58.7201 36.2809 59.2501C36.4839 59.32 36.6614 59.4488 36.7909 59.6201C36.9809 59.9301 36.7909 60.3301 36.7909 60.6901C36.6186 61.3578 36.6389 62.0606 36.8495 62.7172C37.0601 63.3738 37.4524 63.9573 37.9809 64.4001C39.0009 65.2201 43.1209 64.0001 43.0809 63.2701Z" fill="black"/>
<path d="M43.9202 58.9702C44.7541 58.9702 45.4302 58.2941 45.4302 57.4602C45.4302 56.6262 44.7541 55.9502 43.9202 55.9502C43.0862 55.9502 42.4102 56.6262 42.4102 57.4602C42.4102 58.2941 43.0862 58.9702 43.9202 58.9702Z" fill="#7D4921"/>
<path d="M53.8904 64.3002C53.7001 64.4771 53.4738 64.6108 53.2269 64.6919C52.9801 64.773 52.7186 64.7998 52.4604 64.7702C51.7939 64.7155 51.1676 64.4289 50.6904 63.9602C50.9501 63.6725 51.2877 63.4664 51.6623 63.367C52.0369 63.2676 52.4323 63.2791 52.8004 63.4002C53.2577 63.5638 53.6433 63.8822 53.8904 64.3002V64.3002Z" fill="#FF0030"/>
<path d="M31.1503 74.6502C30.6403 73.9602 30.2902 73.4102 29.8802 72.7802C29.4702 72.1502 29.1202 71.5602 28.7602 70.9302C28.02 69.6521 27.3523 68.3333 26.7602 66.9802C26.1205 65.5274 25.6313 64.0128 25.3002 62.4602C25.1228 61.5679 25.0357 60.66 25.0402 59.7502L25.1302 58.6202L25.2602 57.5502C25.6502 54.7702 26.1902 52.1602 26.7602 49.5502C27.3302 46.9402 27.9302 44.3502 28.5702 41.7602C28.6557 41.3815 28.88 41.0487 29.199 40.8275C29.518 40.6063 29.9084 40.5129 30.293 40.5657C30.6776 40.6185 31.0284 40.8136 31.276 41.1126C31.5236 41.4115 31.65 41.7925 31.6302 42.1802V42.1802C31.5502 44.8002 31.4902 47.4302 31.4902 50.0502C31.4902 52.6702 31.4902 55.2902 31.6802 57.7702L31.7602 58.6702L31.8702 59.5102C31.9469 59.9132 32.0608 60.3082 32.2103 60.6902C32.5869 61.6709 33.0591 62.6121 33.6202 63.5002C34.2349 64.4889 34.9026 65.4436 35.6202 66.3602C35.9802 66.8202 36.3602 67.2902 36.7502 67.7402C37.1402 68.1902 37.5602 68.6702 37.8902 68.9902C38.3019 69.3999 38.6289 69.8867 38.8525 70.4228C39.076 70.9589 39.1918 71.5338 39.1932 72.1146C39.1946 72.6954 39.0816 73.2709 38.8606 73.808C38.6396 74.3452 38.315 74.8335 37.9053 75.2452C37.4955 75.6569 37.0087 75.9839 36.4726 76.2074C35.9366 76.431 35.3616 76.5468 34.7808 76.5482C34.2 76.5495 33.6246 76.4365 33.0874 76.2155C32.5503 75.9946 32.0619 75.6699 31.6503 75.2602C31.4912 75.1078 31.3471 74.9403 31.2202 74.7602L31.1503 74.6502Z" fill="#7D4921"/>
<path d="M31.7968 43.2255C32.8321 42.4337 33.0349 40.9596 32.2498 39.9331C31.4647 38.9066 29.989 38.7163 28.9537 39.5082C27.9184 40.3 27.7156 41.7741 28.5007 42.8006C29.2858 43.8271 30.7615 44.0174 31.7968 43.2255Z" fill="#7D4921"/>
<path d="M30.3104 43.9102C30.0269 43.8057 29.7904 43.6028 29.644 43.3385C29.4977 43.0742 29.4512 42.766 29.513 42.4703C29.5748 42.1745 29.7408 41.9108 29.9808 41.7273C30.2208 41.5437 30.5187 41.4525 30.8204 41.4702C31.3466 41.4564 31.8561 41.282 32.2804 40.9702C32.5456 40.7674 32.8805 40.6781 33.2115 40.7222C33.5425 40.7663 33.8424 40.94 34.0453 41.2052C34.2482 41.4704 34.3375 41.8054 34.2934 42.1364C34.2493 42.4674 34.0756 42.7674 33.8104 42.9702C32.8906 43.6619 31.7603 44.0151 30.6103 43.9702C30.5085 43.9609 30.408 43.9408 30.3104 43.9102V43.9102Z" fill="#7D4921"/>
<path d="M221.551 0.210205L161.801 12.6502L161.131 12.8002L160.881 12.8502L77.6807 31.8502C77.6807 31.8502 84.3507 43.6602 92.2307 40.8502C98.7807 38.4802 149.831 27.3802 158.631 25.2802L221.541 12.6302L221.551 0.210205Z" fill="#48BFCC"/>
</svg>
